Uncut Sans-Bold Italic.ufo
<glyph name="exclam" format="2">
	<advance width="440"/>
	<unicode hex="0021"/>
	<outline>
		<contour>
			<point x="100" y="240" type="line"/>
			<point x="228" y="240" type="line"/>
			<point x="407" y="700" type="line"/>
			<point x="259" y="700" type="line"/>
		</contour>
		<contour>
			<point x="32" y="0" type="line"/>
			<point x="202" y="0" type="line"/>
			<point x="233" y="160" type="line"/>
			<point x="63" y="160" type="line"/>
		</contour>
	</outline>
</glyph>
<glyph name="numbersign" format="2">
	<advance width="786"/>
	<unicode hex="0023"/>
	<outline>
		<contour>
			<point x="298" y="0" type="line"/>
			<point x="422" y="0" type="line"/>
			<point x="808" y="716" type="line"/>
			<point x="684" y="716" type="line"/>
		</contour>
		<contour>
			<point x="-7" y="162" type="line"/>
			<point x="658" y="162" type="line"/>
			<point x="675" y="250" type="line"/>
			<point x="10" y="250" type="line"/>
		</contour>
		<contour>
			<point x="3" y="0" type="line"/>
			<point x="127" y="0" type="line"/>
			<point x="513" y="716" type="line"/>
			<point x="389" y="716" type="line"/>
		</contour>
		<contour>
			<point x="106" y="432" type="line"/>
			<point x="771" y="432" type="line"/>
			<point x="788" y="520" type="line"/>
			<point x="123" y="520" type="line"/>
		</contour>
	</outline>
</glyph>
<glyph name="dollar" format="2">
	<advance width="632"/>
	<unicode hex="0024"/>
	<outline>
		<contour>
			<point x="300" y="-16" type="curve" smooth="yes"/>
			<point x="440" y="-16"/>
			<point x="559" y="71"/>
			<point x="559" y="201" type="curve" smooth="yes"/>
			<point x="559" y="461"/>
			<point x="246" y="398"/>
			<point x="246" y="518" type="curve" smooth="yes"/>
			<point x="246" y="578"/>
			<point x="298" y="603"/>
			<point x="358" y="603" type="curve" smooth="yes"/>
			<point x="428" y="603"/>
			<point x="451" y="551"/>
			<point x="451" y="491" type="curve"/>
			<point x="591" y="501" type="line"/>
			<point x="591" y="601"/>
			<point x="540" y="716"/>
			<point x="358" y="716" type="curve" smooth="yes"/>
			<point x="218" y="716"/>
			<point x="108" y="628"/>
			<point x="108" y="518" type="curve" smooth="yes"/>
			<point x="108" y="288"/>
			<point x="421" y="361"/>
			<point x="421" y="201" type="curve" smooth="yes"/>
			<point x="421" y="141"/>
			<point x="380" y="97"/>
			<point x="300" y="97" type="curve" smooth="yes"/>
			<point x="210" y="97"/>
			<point x="160" y="163"/>
			<point x="160" y="283" type="curve"/>
			<point x="19" y="273" type="line"/>
			<point x="19" y="113"/>
			<point x="100" y="-16"/>
		</contour>
		<contour>
			<point x="195" y="-116" type="line"/>
			<point x="268" y="-116" type="line"/>
			<point x="446" y="800" type="line"/>
			<point x="373" y="800" type="line"/>
		</contour>
	</outline>
</glyph>
<glyph name="percent" format="2">
	<advance width="828"/>
	<unicode hex="0025"/>
	<outline>
		<contour>
			<point x="37" y="0" type="line"/>
			<point x="165" y="0" type="line"/>
			<point x="817" y="716" type="line"/>
			<point x="689" y="716" type="line"/>
		</contour>
		<contour>
			<point x="223" y="374" type="curve" smooth="yes"/>
			<point x="317" y="374"/>
			<point x="400" y="450"/>
			<point x="408" y="544" type="curve" smooth="yes"/>
			<point x="416" y="638"/>
			<point x="347" y="714"/>
			<point x="253" y="714" type="curve" smooth="yes"/>
			<point x="159" y="714"/>
			<point x="76" y="638"/>
			<point x="68" y="544" type="curve" smooth="yes"/>
			<point x="60" y="450"/>
			<point x="129" y="374"/>
		</contour>
		<contour>
			<point x="231" y="467" type="curve" smooth="yes"/>
			<point x="188" y="467"/>
			<point x="157" y="501"/>
			<point x="161" y="544" type="curve" smooth="yes"/>
			<point x="165" y="587"/>
			<point x="202" y="621"/>
			<point x="245" y="621" type="curve" smooth="yes"/>
			<point x="288" y="621"/>
			<point x="319" y="587"/>
			<point x="315" y="544" type="curve" smooth="yes"/>
			<point x="311" y="501"/>
			<point x="274" y="467"/>
		</contour>
		<contour>
			<point x="573" y="-16" type="curve" smooth="yes"/>
			<point x="667" y="-16"/>
			<point x="750" y="60"/>
			<point x="758" y="154" type="curve" smooth="yes"/>
			<point x="766" y="248"/>
			<point x="697" y="324"/>
			<point x="603" y="324" type="curve" smooth="yes"/>
			<point x="509" y="324"/>
			<point x="426" y="248"/>
			<point x="418" y="154" type="curve" smooth="yes"/>
			<point x="410" y="60"/>
			<point x="479" y="-16"/>
		</contour>
		<contour>
			<point x="581" y="77" type="curve" smooth="yes"/>
			<point x="538" y="77"/>
			<point x="507" y="111"/>
			<point x="511" y="154" type="curve" smooth="yes"/>
			<point x="515" y="197"/>
			<point x="552" y="231"/>
			<point x="595" y="231" type="curve" smooth="yes"/>
			<point x="638" y="231"/>
			<point x="669" y="197"/>
			<point x="665" y="154" type="curve" smooth="yes"/>
			<point x="661" y="111"/>
			<point x="624" y="77"/>
		</contour>
	</outline>
</glyph>
<glyph name="ampersand" format="2">
	<advance width="721"/>
	<unicode hex="0026"/>
	<outline>
		<contour>
			<point x="256" y="-16" type="curve" smooth="yes"/>
			<point x="456" y="-16"/>
			<point x="617" y="207"/>
			<point x="648" y="364" type="curve"/>
			<point x="510" y="364" type="line"/>
			<point x="487" y="246"/>
			<point x="396" y="97"/>
			<point x="256" y="97" type="curve" smooth="yes"/>
			<point x="186" y="97"/>
			<point x="146" y="139"/>
			<point x="158" y="198" type="curve" smooth="yes"/>
			<point x="194" y="385"/>
			<point x="540" y="326"/>
			<point x="582" y="542" type="curve" smooth="yes"/>
			<point x="599" y="630"/>
			<point x="520" y="716"/>
			<point x="370" y="716" type="curve" smooth="yes"/>
			<point x="280" y="716"/>
			<point x="174" y="670"/>
			<point x="149" y="542" type="curve" smooth="yes"/>
			<point x="133" y="454"/>
			<point x="194" y="378"/>
			<point x="244" y="315" type="curve" smooth="yes"/>
			<point x="496" y="0" type="line"/>
			<point x="652" y="0" type="line"/>
			<point x="358" y="374" type="line" smooth="yes"/>
			<point x="302" y="445"/>
			<point x="276" y="483"/>
			<point x="287" y="542" type="curve" smooth="yes"/>
			<point x="295" y="581"/>
			<point x="330" y="603"/>
			<point x="370" y="603" type="curve" smooth="yes"/>
			<point x="420" y="603"/>
			<point x="452" y="581"/>
			<point x="444" y="542" type="curve" smooth="yes"/>
			<point x="419" y="412"/>
			<point x="65" y="434"/>
			<point x="20" y="198" type="curve" smooth="yes"/>
			<point x="-3" y="80"/>
			<point x="96" y="-16"/>
		</contour>
	</outline>
</glyph>
<glyph name="quotesingle" format="2">
	<advance width="315"/>
	<unicode hex="0027"/>
	<outline>
		<contour>
			<point x="119" y="469" type="line"/>
			<point x="240" y="469" type="line"/>
			<point x="308" y="729" type="line"/>
			<point x="153" y="729" type="line"/>
		</contour>
	</outline>
</glyph>
<glyph name="parenleft" format="2">
	<advance width="386"/>
	<unicode hex="0028"/>
	<outline>
		<contour>
			<point x="132" y="-110" type="curve"/>
			<point x="286" y="-110" type="line"/>
			<point x="232" y="-33"/>
			<point x="168" y="96"/>
			<point x="208" y="303" type="curve" smooth="yes"/>
			<point x="248" y="510"/>
			<point x="362" y="639"/>
			<point x="446" y="716" type="curve"/>
			<point x="292" y="716" type="line"/>
			<point x="234" y="665"/>
			<point x="103" y="526"/>
			<point x="60" y="303" type="curve" smooth="yes"/>
			<point x="17" y="80"/>
			<point x="93" y="-59"/>
		</contour>
	</outline>
</glyph>
<glyph name="parenright" format="2">
	<advance width="387"/>
	<unicode hex="0029"/>
	<outline>
		<contour>
			<point x="-79" y="-110" type="curve"/>
			<point x="75" y="-110" type="line"/>
			<point x="132" y="-59"/>
			<point x="264" y="80"/>
			<point x="307" y="303" type="curve" smooth="yes"/>
			<point x="350" y="526"/>
			<point x="273" y="665"/>
			<point x="235" y="716" type="curve"/>
			<point x="81" y="716" type="line"/>
			<point x="135" y="639"/>
			<point x="199" y="510"/>
			<point x="159" y="303" type="curve" smooth="yes"/>
			<point x="119" y="96"/>
			<point x="5" y="-33"/>
		</contour>
	</outline>
</glyph>
<glyph name="asterisk" format="2">
	<advance width="500"/>
	<unicode hex="002A"/>
	<outline>
		<contour>
			<point x="349" y="353" type="line"/>
			<point x="425" y="418" type="line"/>
			<point x="285" y="537" type="line"/>
			<point x="197" y="700" type="line"/>
			<point x="122" y="637" type="line"/>
			<point x="260" y="517" type="line"/>
		</contour>
		<contour>
			<point x="130" y="353" type="line"/>
			<point x="281" y="515" type="line"/>
			<point x="467" y="635" type="line"/>
			<point x="416" y="699" type="line"/>
			<point x="264" y="536" type="line"/>
			<point x="79" y="416" type="line"/>
		</contour>
		<contour>
			<point x="189" y="326" type="line"/>
			<point x="279" y="326" type="line"/>
			<point x="288" y="526" type="line"/>
			<point x="357" y="726" type="line"/>
			<point x="267" y="726" type="line"/>
			<point x="258" y="526" type="line"/>
		</contour>
		<contour>
			<point x="65" y="482" type="line"/>
			<point x="270" y="511" type="line"/>
			<point x="464" y="481" type="line"/>
			<point x="482" y="571" type="line"/>
			<point x="276" y="541" type="line"/>
			<point x="82" y="571" type="line"/>
		</contour>
	</outline>
</glyph>
<glyph name="plus" format="2">
	<advance width="619"/>
	<unicode hex="002B"/>
	<outline>
		<contour>
			<point x="196" y="57" type="line"/>
			<point x="309" y="57" type="line"/>
			<point x="402" y="536" type="line"/>
			<point x="289" y="536" type="line"/>
		</contour>
		<contour>
			<point x="48" y="239" type="line"/>
			<point x="527" y="239" type="line"/>
			<point x="549" y="352" type="line"/>
			<point x="70" y="352" type="line"/>
		</contour>
	</outline>
</glyph>
<glyph name="comma" format="2">
	<advance width="291"/>
	<unicode hex="002C"/>
	<outline>
		<contour>
			<point x="-54" y="-157" type="line"/>
			<point x="66" y="-157"/>
			<point x="144" y="-120"/>
			<point x="167" y="0" type="curve"/>
			<point x="87" y="0" type="line"/>
			<point x="75" y="-60"/>
			<point x="43" y="-74"/>
			<point x="-37" y="-74" type="curve"/>
		</contour>
		<contour>
			<point x="-3" y="0" type="line"/>
			<point x="167" y="0" type="line"/>
			<point x="198" y="160" type="line"/>
			<point x="28" y="160" type="line"/>
		</contour>
	</outline>
</glyph>
<glyph name="period" format="2">
	<advance width="281"/>
	<unicode hex="002E"/>
	<outline>
		<contour>
			<point x="-13" y="0" type="line"/>
			<point x="157" y="0" type="line"/>
			<point x="188" y="160" type="line"/>
			<point x="18" y="160" type="line"/>
		</contour>
	</outline>
</glyph>
<glyph name="slash" format="2">
	<advance width="537"/>
	<unicode hex="002F"/>
	<outline>
		<contour>
			<point x="-50" y="-110" type="line"/>
			<point x="79" y="-110" type="line"/>
			<point x="568" y="716" type="line"/>
			<point x="439" y="716" type="line"/>
		</contour>
	</outline>
</glyph>
<glyph name="one" format="2">
	<advance width="599"/>
	<unicode hex="0031"/>
	<outline>
		<contour>
			<point x="182" y="0" type="line"/>
			<point x="330" y="0" type="line"/>
			<point x="466" y="700" type="line"/>
			<point x="318" y="700" type="line"/>
			<point x="289" y="550"/>
			<point x="243" y="500"/>
			<point x="163" y="500" type="curve" smooth="yes"/>
			<point x="99" y="500" type="line"/>
			<point x="77" y="387" type="line"/>
			<point x="141" y="387" type="line" smooth="yes"/>
			<point x="241" y="387"/>
			<point x="287" y="453"/>
			<point x="314" y="590" type="curve"/>
			<point x="297" y="590" type="line"/>
		</contour>
		<contour>
			<point x="2" y="0" type="line"/>
			<point x="510" y="0" type="line"/>
			<point x="532" y="113" type="line"/>
			<point x="24" y="113" type="line"/>
		</contour>
	</outline>
</glyph>
<glyph name="two" format="2">
	<advance width="652"/>
	<unicode hex="0032"/>
	<outline>
		<contour>
			<point x="-17" y="0" type="line"/>
			<point x="533" y="0" type="line"/>
			<point x="555" y="113" type="line"/>
			<point x="128" y="113" type="line"/>
			<point x="98" y="64" type="line"/>
			<point x="211" y="105"/>
			<point x="568" y="260"/>
			<point x="610" y="480" type="curve" smooth="yes"/>
			<point x="636" y="610"/>
			<point x="548" y="716"/>
			<point x="388" y="716" type="curve" smooth="yes"/>
			<point x="218" y="716"/>
			<point x="100" y="609"/>
			<point x="77" y="490" type="curve"/>
			<point x="223" y="480" type="line"/>
			<point x="239" y="560"/>
			<point x="296" y="603"/>
			<point x="366" y="603" type="curve" smooth="yes"/>
			<point x="436" y="603"/>
			<point x="478" y="560"/>
			<point x="462" y="480" type="curve" smooth="yes"/>
			<point x="431" y="320"/>
			<point x="121" y="170"/>
			<point x="5" y="113" type="curve"/>
		</contour>
	</outline>
</glyph>
<glyph name="three" format="2">
	<advance width="665"/>
	<unicode hex="0033"/>
	<outline>
		<contour>
			<point x="265" y="-16" type="curve" smooth="yes"/>
			<point x="445" y="-16"/>
			<point x="560" y="65"/>
			<point x="584" y="193" type="curve" smooth="yes"/>
			<point x="604" y="291"/>
			<point x="518" y="380"/>
			<point x="378" y="380" type="curve"/>
			<point x="371" y="347" type="line"/>
			<point x="481" y="347"/>
			<point x="598" y="394"/>
			<point x="622" y="522" type="curve" smooth="yes"/>
			<point x="644" y="630"/>
			<point x="547" y="716"/>
			<point x="387" y="716" type="curve" smooth="yes"/>
			<point x="217" y="716"/>
			<point x="115" y="620"/>
			<point x="94" y="510" type="curve"/>
			<point x="240" y="500" type="line"/>
			<point x="252" y="559"/>
			<point x="305" y="603"/>
			<point x="375" y="603" type="curve" smooth="yes"/>
			<point x="445" y="603"/>
			<point x="486" y="571"/>
			<point x="474" y="512" type="curve" smooth="yes"/>
			<point x="463" y="453"/>
			<point x="410" y="421"/>
			<point x="340" y="421" type="curve" smooth="yes"/>
			<point x="265" y="421" type="line"/>
			<point x="243" y="308" type="line"/>
			<point x="318" y="308" type="line" smooth="yes"/>
			<point x="388" y="308"/>
			<point x="454" y="281"/>
			<point x="438" y="203" type="curve" smooth="yes"/>
			<point x="425" y="133"/>
			<point x="357" y="97"/>
			<point x="277" y="97" type="curve" smooth="yes"/>
			<point x="207" y="97"/>
			<point x="144" y="129"/>
			<point x="163" y="229" type="curve"/>
			<point x="14" y="219" type="line"/>
			<point x="-13" y="82"/>
			<point x="95" y="-16"/>
		</contour>
	</outline>
</glyph>
<glyph name="four" format="2">
	<advance width="749"/>
	<unicode hex="0034"/>
	<outline>
		<contour>
			<point x="-5" y="173" type="line"/>
			<point x="679" y="173" type="line"/>
			<point x="701" y="286" type="line"/>
			<point x="77" y="286" type="line"/>
			<point x="45" y="229" type="line"/>
			<point x="340" y="314"/>
			<point x="399" y="523"/>
			<point x="433" y="700" type="curve"/>
			<point x="295" y="700" type="line"/>
			<point x="263" y="533"/>
			<point x="223" y="388"/>
			<point x="17" y="286" type="curve"/>
		</contour>
		<contour>
			<point x="387" y="0" type="line"/>
			<point x="525" y="0" type="line"/>
			<point x="661" y="700" type="line"/>
			<point x="523" y="700" type="line"/>
		</contour>
	</outline>
</glyph>
<glyph name="five" format="2">
	<advance width="646"/>
	<unicode hex="0035"/>
	<outline>
		<contour>
			<point x="265" y="-16" type="curve" smooth="yes"/>
			<point x="435" y="-16"/>
			<point x="552" y="71"/>
			<point x="580" y="218" type="curve" smooth="yes"/>
			<point x="609" y="368"/>
			<point x="529" y="468"/>
			<point x="389" y="468" type="curve" smooth="yes"/>
			<point x="229" y="468"/>
			<point x="185" y="368"/>
			<point x="166" y="318" type="curve"/>
			<point x="200" y="338" type="line"/>
			<point x="266" y="587" type="line"/>
			<point x="599" y="587" type="line"/>
			<point x="621" y="700" type="line"/>
			<point x="159" y="700" type="line"/>
			<point x="48" y="302" type="line"/>
			<point x="190" y="302" type="line"/>
			<point x="216" y="332"/>
			<point x="258" y="359"/>
			<point x="328" y="359" type="curve" smooth="yes"/>
			<point x="408" y="359"/>
			<point x="450" y="308"/>
			<point x="434" y="228" type="curve" smooth="yes"/>
			<point x="419" y="148"/>
			<point x="357" y="96"/>
			<point x="277" y="96" type="curve" smooth="yes"/>
			<point x="197" y="96"/>
			<point x="159" y="149"/>
			<point x="171" y="209" type="curve"/>
			<point x="20" y="199" type="line"/>
			<point x="0" y="101"/>
			<point x="85" y="-16"/>
		</contour>
	</outline>
</glyph>
<glyph name="six" format="2">
	<advance width="684"/>
	<unicode hex="0036"/>
	<outline>
		<contour>
			<point x="286" y="-16" type="curve" smooth="yes"/>
			<point x="436" y="-16"/>
			<point x="567" y="58"/>
			<point x="601" y="235" type="curve" smooth="yes"/>
			<point x="626" y="363"/>
			<point x="543" y="485"/>
			<point x="383" y="485" type="curve" smooth="yes"/>
			<point x="273" y="485"/>
			<point x="162" y="418"/>
			<point x="135" y="278" type="curve"/>
			<point x="171" y="308" type="line"/>
			<point x="193" y="527"/>
			<point x="316" y="603"/>
			<point x="396" y="603" type="curve" smooth="yes"/>
			<point x="486" y="603"/>
			<point x="510" y="553"/>
			<point x="516" y="505" type="curve"/>
			<point x="666" y="515" type="line"/>
			<point x="660" y="645"/>
			<point x="558" y="716"/>
			<point x="418" y="716" type="curve" smooth="yes"/>
			<point x="258" y="716"/>
			<point x="101" y="618"/>
			<point x="48" y="343" type="curve" smooth="yes"/>
			<point x="10" y="147"/>
			<point x="96" y="-16"/>
		</contour>
		<contour>
			<point x="298" y="97" type="curve" smooth="yes"/>
			<point x="208" y="97"/>
			<point x="180" y="165"/>
			<point x="194" y="235" type="curve" smooth="yes"/>
			<point x="207" y="305"/>
			<point x="261" y="372"/>
			<point x="351" y="372" type="curve" smooth="yes"/>
			<point x="441" y="372"/>
			<point x="466" y="305"/>
			<point x="453" y="235" type="curve" smooth="yes"/>
			<point x="439" y="165"/>
			<point x="388" y="97"/>
		</contour>
	</outline>
</glyph>
<glyph name="seven" format="2">
	<advance width="591"/>
	<unicode hex="0037"/>
	<outline>
		<contour>
			<point x="103" y="0" type="curve"/>
			<point x="241" y="0" type="line"/>
			<point x="301" y="310"/>
			<point x="351" y="464"/>
			<point x="606" y="587" type="curve"/>
			<point x="628" y="700" type="line"/>
			<point x="88" y="700" type="line"/>
			<point x="66" y="587" type="line"/>
			<point x="556" y="587" type="line"/>
			<point x="610" y="671" type="line"/>
			<point x="265" y="573"/>
			<point x="163" y="310"/>
		</contour>
	</outline>
</glyph>
<glyph name="eight" format="2">
	<advance width="669"/>
	<unicode hex="0038"/>
	<outline>
		<contour>
			<point x="271" y="-16" type="curve" smooth="yes"/>
			<point x="451" y="-16"/>
			<point x="571" y="55"/>
			<point x="596" y="183" type="curve" smooth="yes"/>
			<point x="616" y="291"/>
			<point x="528" y="380"/>
			<point x="408" y="380" type="curve"/>
			<point x="401" y="346" type="line"/>
			<point x="511" y="346"/>
			<point x="612" y="414"/>
			<point x="632" y="512" type="curve" smooth="yes"/>
			<point x="655" y="630"/>
			<point x="553" y="716"/>
			<point x="393" y="716" type="curve" smooth="yes"/>
			<point x="223" y="716"/>
			<point x="119" y="630"/>
			<point x="97" y="522" type="curve" smooth="yes"/>
			<point x="80" y="434"/>
			<point x="151" y="346"/>
			<point x="251" y="346" type="curve"/>
			<point x="258" y="380" type="line"/>
			<point x="148" y="380"/>
			<point x="34" y="320"/>
			<point x="11" y="203" type="curve" smooth="yes"/>
			<point x="-12" y="85"/>
			<point x="91" y="-16"/>
		</contour>
		<contour>
			<point x="283" y="97" type="curve" smooth="yes"/>
			<point x="203" y="97"/>
			<point x="144" y="134"/>
			<point x="157" y="203" type="curve" smooth="yes"/>
			<point x="173" y="281"/>
			<point x="244" y="308"/>
			<point x="324" y="308" type="curve" smooth="yes"/>
			<point x="404" y="308"/>
			<point x="463" y="272"/>
			<point x="449" y="203" type="curve" smooth="yes"/>
			<point x="434" y="124"/>
			<point x="363" y="97"/>
		</contour>
		<contour>
			<point x="346" y="421" type="curve" smooth="yes"/>
			<point x="276" y="421"/>
			<point x="232" y="452"/>
			<point x="243" y="512" type="curve" smooth="yes"/>
			<point x="257" y="581"/>
			<point x="321" y="603"/>
			<point x="381" y="603" type="curve" smooth="yes"/>
			<point x="451" y="603"/>
			<point x="495" y="572"/>
			<point x="483" y="512" type="curve" smooth="yes"/>
			<point x="470" y="443"/>
			<point x="406" y="421"/>
		</contour>
	</outline>
</glyph>
<glyph name="nine" format="2">
	<advance width="684"/>
	<unicode hex="0039"/>
	<outline>
		<contour>
			<point x="265" y="-16" type="curve" smooth="yes"/>
			<point x="425" y="-16"/>
			<point x="582" y="82"/>
			<point x="635" y="357" type="curve" smooth="yes"/>
			<point x="673" y="553"/>
			<point x="587" y="716"/>
			<point x="397" y="716" type="curve" smooth="yes"/>
			<point x="247" y="716"/>
			<point x="116" y="642"/>
			<point x="82" y="465" type="curve" smooth="yes"/>
			<point x="57" y="337"/>
			<point x="140" y="215"/>
			<point x="300" y="215" type="curve" smooth="yes"/>
			<point x="410" y="215"/>
			<point x="521" y="282"/>
			<point x="548" y="422" type="curve"/>
			<point x="512" y="392" type="line"/>
			<point x="490" y="173"/>
			<point x="367" y="97"/>
			<point x="287" y="97" type="curve" smooth="yes"/>
			<point x="197" y="97"/>
			<point x="173" y="147"/>
			<point x="167" y="195" type="curve"/>
			<point x="17" y="185" type="line"/>
			<point x="23" y="55"/>
			<point x="125" y="-16"/>
		</contour>
		<contour>
			<point x="332" y="328" type="curve" smooth="yes"/>
			<point x="242" y="328"/>
			<point x="217" y="395"/>
			<point x="230" y="465" type="curve" smooth="yes"/>
			<point x="244" y="535"/>
			<point x="295" y="603"/>
			<point x="385" y="603" type="curve" smooth="yes"/>
			<point x="475" y="603"/>
			<point x="503" y="535"/>
			<point x="489" y="465" type="curve" smooth="yes"/>
			<point x="476" y="395"/>
			<point x="422" y="328"/>
		</contour>
	</outline>
</glyph>
<glyph name="less" format="2">
	<advance width="619"/>
	<unicode hex="003C"/>
	<outline>
		<contour>
			<point x="475" y="-25" type="line"/>
			<point x="500" y="104" type="line"/>
			<point x="105" y="346" type="line"/>
			<point x="84" y="235" type="line"/>
			<point x="573" y="477" type="line"/>
			<point x="598" y="606" type="line"/>
			<point x="68" y="344" type="line"/>
			<point x="47" y="237" type="line"/>
		</contour>
	</outline>
</glyph>
<glyph name="equal" format="2">
	<advance width="620"/>
	<unicode hex="003D"/>
	<outline>
		<contour>
			<point x="71" y="356" type="line"/>
			<point x="550" y="356" type="line"/>
			<point x="572" y="469" type="line"/>
			<point x="93" y="469" type="line"/>
		</contour>
		<contour>
			<point x="26" y="123" type="line"/>
			<point x="505" y="123" type="line"/>
			<point x="527" y="236" type="line"/>
			<point x="48" y="236" type="line"/>
		</contour>
	</outline>
</glyph>
<glyph name="greater" format="2">
	<advance width="620"/>
	<unicode hex="003E"/>
	<outline>
		<contour>
			<point x="-3" y="-25" type="line"/>
			<point x="527" y="237" type="line"/>
			<point x="548" y="344" type="line"/>
			<point x="120" y="606" type="line"/>
			<point x="95" y="477" type="line"/>
			<point x="490" y="235" type="line"/>
			<point x="511" y="346" type="line"/>
			<point x="22" y="104" type="line"/>
		</contour>
	</outline>
</glyph>
<glyph name="question" format="2">
	<advance width="594"/>
	<unicode hex="003F"/>
	<outline>
		<contour>
			<point x="172" y="200" type="line"/>
			<point x="315" y="200" type="line"/>
			<point x="335" y="304" type="line"/>
			<point x="283" y="281" type="line"/>
			<point x="413" y="281"/>
			<point x="556" y="361"/>
			<point x="583" y="501" type="curve" smooth="yes"/>
			<point x="607" y="621"/>
			<point x="537" y="716"/>
			<point x="377" y="716" type="curve" smooth="yes"/>
			<point x="207" y="716"/>
			<point x="88" y="601"/>
			<point x="61" y="461" type="curve"/>
			<point x="203" y="451" type="line"/>
			<point x="226" y="571"/>
			<point x="295" y="603"/>
			<point x="355" y="603" type="curve" smooth="yes"/>
			<point x="415" y="603"/>
			<point x="449" y="571"/>
			<point x="435" y="501" type="curve" smooth="yes"/>
			<point x="418" y="411"/>
			<point x="333" y="361"/>
			<point x="203" y="361" type="curve"/>
		</contour>
		<contour>
			<point x="125" y="0" type="line"/>
			<point x="285" y="0" type="line"/>
			<point x="310" y="130" type="line"/>
			<point x="150" y="130" type="line"/>
		</contour>
	</outline>
</glyph>
<glyph name="at" format="2">
	<advance width="843"/>
	<unicode hex="0040"/>
	<outline>
		<contour>
			<point x="344" y="-103" type="curve" smooth="yes"/>
			<point x="454" y="-103"/>
			<point x="552" y="-50"/>
			<point x="614" y="0" type="curve"/>
			<point x="484" y="0" type="line"/>
			<point x="447" y="-16"/>
			<point x="404" y="-29"/>
			<point x="344" y="-29" type="curve" smooth="yes"/>
			<point x="164" y="-29"/>
			<point x="70" y="122"/>
			<point x="104" y="299" type="curve" smooth="yes"/>
			<point x="140" y="486"/>
			<point x="288" y="586"/>
			<point x="448" y="586" type="curve" smooth="yes"/>
			<point x="627" y="586"/>
			<point x="750" y="458"/>
			<point x="715" y="279" type="curve"/>
			<point x="789" y="279" type="line"/>
			<point x="829" y="485"/>
			<point x="678" y="660"/>
			<point x="448" y="660" type="curve" smooth="yes"/>
			<point x="268" y="660"/>
			<point x="78" y="544"/>
			<point x="30" y="299" type="curve" smooth="yes"/>
			<point x="-12" y="83"/>
			<point x="124" y="-103"/>
		</contour>
		<contour>
			<point x="370" y="183" type="curve" smooth="yes"/>
			<point x="337" y="183"/>
			<point x="327" y="196"/>
			<point x="331" y="215" type="curve" smooth="yes"/>
			<point x="335" y="234"/>
			<point x="351" y="246"/>
			<point x="391" y="251" type="curve" smooth="yes"/>
			<point x="452" y="258"/>
			<point x="496" y="260"/>
			<point x="512" y="358" type="curve"/>
			<point x="485" y="336" type="line"/>
			<point x="474" y="282" type="line" smooth="yes"/>
			<point x="460" y="211"/>
			<point x="418" y="183"/>
		</contour>
		<contour>
			<point x="595" y="80" type="curve" smooth="yes"/>
			<point x="685" y="80"/>
			<point x="764" y="149"/>
			<point x="789" y="279" type="curve"/>
			<point x="715" y="279" type="line"/>
			<point x="700" y="199"/>
			<point x="665" y="157"/>
			<point x="615" y="157" type="curve" smooth="yes"/>
			<point x="578" y="157"/>
			<point x="560" y="179"/>
			<point x="565" y="222" type="curve"/>
			<point x="583" y="314" type="line" smooth="yes"/>
			<point x="604" y="420"/>
			<point x="547" y="476"/>
			<point x="447" y="476" type="curve" smooth="yes"/>
			<point x="353" y="476"/>
			<point x="276" y="435"/>
			<point x="260" y="339" type="curve"/>
			<point x="361" y="332" type="line"/>
			<point x="368" y="375"/>
			<point x="396" y="389"/>
			<point x="438" y="389" type="curve" smooth="yes"/>
			<point x="472" y="389"/>
			<point x="488" y="378"/>
			<point x="488" y="361" type="curve" smooth="yes"/>
			<point x="490" y="336"/>
			<point x="467" y="326"/>
			<point x="426" y="324" type="curve" smooth="yes"/>
			<point x="341" y="319"/>
			<point x="244" y="304"/>
			<point x="226" y="217" type="curve" smooth="yes"/>
			<point x="209" y="128"/>
			<point x="276" y="96"/>
			<point x="326" y="96" type="curve" smooth="yes"/>
			<point x="405" y="96"/>
			<point x="452" y="146"/>
			<point x="472" y="205" type="curve"/>
			<point x="465" y="218" type="line"/>
			<point x="442" y="114"/>
			<point x="514" y="80"/>
		</contour>
	</outline>
</glyph>
<glyph name="A" format="2">
	<advance width="689"/>
	<unicode hex="0041"/>
	<outline>
		<contour>
			<point x="-59" y="0" type="line"/>
			<point x="86" y="0" type="line"/>
			<point x="446" y="678" type="line"/>
			<point x="381" y="678" type="line"/>
			<point x="475" y="0" type="line"/>
			<point x="610" y="0" type="line"/>
			<point x="512" y="700" type="line"/>
			<point x="311" y="700" type="line"/>
		</contour>
		<contour>
			<point x="134" y="206" type="line"/>
			<point x="507" y="206" type="line"/>
			<point x="529" y="319" type="line"/>
			<point x="156" y="319" type="line"/>
		</contour>
	</outline>
</glyph>
<glyph name="B" format="2">
	<advance width="635"/>
	<unicode hex="0042"/>
	<outline>
		<contour>
			<point x="39" y="0" type="line"/>
			<point x="266" y="0" type="line" smooth="yes"/>
			<point x="416" y="0"/>
			<point x="530" y="69"/>
			<point x="553" y="186" type="curve" smooth="yes"/>
			<point x="576" y="304"/>
			<point x="482" y="367"/>
			<point x="392" y="367" type="curve"/>
			<point x="392" y="352" type="line"/>
			<point x="452" y="352"/>
			<point x="552" y="382"/>
			<point x="574" y="500" type="curve" smooth="yes"/>
			<point x="599" y="628"/>
			<point x="502" y="700"/>
			<point x="342" y="700" type="curve" smooth="yes"/>
			<point x="155" y="700" type="line"/>
			<point x="133" y="587" type="line"/>
			<point x="320" y="587" type="line" smooth="yes"/>
			<point x="410" y="587"/>
			<point x="447" y="559"/>
			<point x="436" y="500" type="curve" smooth="yes"/>
			<point x="425" y="441"/>
			<point x="376" y="411"/>
			<point x="286" y="411" type="curve" smooth="yes"/>
			<point x="99" y="411" type="line"/>
			<point x="77" y="299" type="line"/>
			<point x="304" y="299" type="line" smooth="yes"/>
			<point x="384" y="299"/>
			<point x="433" y="276"/>
			<point x="419" y="206" type="curve" smooth="yes"/>
			<point x="405" y="136"/>
			<point x="348" y="113"/>
			<point x="268" y="113" type="curve" smooth="yes"/>
			<point x="61" y="113" type="line"/>
		</contour>
		<contour>
			<point x="6" y="0" type="line"/>
			<point x="139" y="0" type="line"/>
			<point x="275" y="700" type="line"/>
			<point x="142" y="700" type="line"/>
		</contour>
	</outline>
</glyph>
<glyph name="C" format="2">
	<advance width="774"/>
	<unicode hex="0043"/>
	<outline>
		<contour>
			<point x="342" y="-16" type="curve" smooth="yes"/>
			<point x="522" y="-16"/>
			<point x="666" y="107"/>
			<point x="703" y="273" type="curve"/>
			<point x="567" y="283" type="line"/>
			<point x="545" y="194"/>
			<point x="472" y="97"/>
			<point x="342" y="97" type="curve" smooth="yes"/>
			<point x="222" y="97"/>
			<point x="157" y="194"/>
			<point x="187" y="350" type="curve" smooth="yes"/>
			<point x="217" y="506"/>
			<point x="320" y="602"/>
			<point x="450" y="602" type="curve" smooth="yes"/>
			<point x="570" y="602"/>
			<point x="604" y="501"/>
			<point x="592" y="412" type="curve"/>
			<point x="732" y="422" type="line"/>
			<point x="755" y="560"/>
			<point x="670" y="716"/>
			<point x="450" y="716" type="curve" smooth="yes"/>
			<point x="260" y="716"/>
			<point x="96" y="590"/>
			<point x="49" y="350" type="curve" smooth="yes"/>
			<point x="5" y="124"/>
			<point x="122" y="-16"/>
		</contour>
	</outline>
</glyph>
<glyph name="D" format="2">
	<advance width="698"/>
	<unicode hex="0044"/>
	<outline>
		<contour>
			<point x="64" y="0" type="line"/>
			<point x="236" y="0" type="line" smooth="yes"/>
			<point x="434" y="0"/>
			<point x="601" y="90"/>
			<point x="652" y="350" type="curve" smooth="yes"/>
			<point x="703" y="610"/>
			<point x="570" y="700"/>
			<point x="372" y="700" type="curve" smooth="yes"/>
			<point x="200" y="700" type="line"/>
			<point x="178" y="587" type="line"/>
			<point x="350" y="587" type="line" smooth="yes"/>
			<point x="494" y="587"/>
			<point x="548" y="525"/>
			<point x="514" y="350" type="curve" smooth="yes"/>
			<point x="480" y="175"/>
			<point x="402" y="113"/>
			<point x="258" y="113" type="curve" smooth="yes"/>
			<point x="86" y="113" type="line"/>
		</contour>
		<contour>
			<point x="6" y="0" type="line"/>
			<point x="144" y="0" type="line"/>
			<point x="280" y="700" type="line"/>
			<point x="142" y="700" type="line"/>
		</contour>
	</outline>
</glyph>
<glyph name="E" format="2">
	<advance width="588"/>
	<unicode hex="0045"/>
	<outline>
		<contour>
			<point x="6" y="0" type="line"/>
			<point x="144" y="0" type="line"/>
			<point x="280" y="700" type="line"/>
			<point x="142" y="700" type="line"/>
		</contour>
		<contour>
			<point x="74" y="0" type="line"/>
			<point x="474" y="0" type="line"/>
			<point x="496" y="113" type="line"/>
			<point x="96" y="113" type="line"/>
		</contour>
		<contour>
			<point x="134" y="307" type="line"/>
			<point x="474" y="307" type="line"/>
			<point x="496" y="420" type="line"/>
			<point x="156" y="420" type="line"/>
		</contour>
		<contour>
			<point x="188" y="587" type="line"/>
			<point x="588" y="587" type="line"/>
			<point x="610" y="700" type="line"/>
			<point x="210" y="700" type="line"/>
		</contour>
	</outline>
</glyph>
<glyph name="F" format="2">
	<advance width="573"/>
	<unicode hex="0046"/>
	<outline>
		<contour>
			<point x="6" y="0" type="line"/>
			<point x="140" y="0" type="line"/>
			<point x="280" y="700" type="line"/>
			<point x="142" y="700" type="line"/>
		</contour>
		<contour>
			<point x="134" y="307" type="line"/>
			<point x="484" y="307" type="line"/>
			<point x="506" y="420" type="line"/>
			<point x="156" y="420" type="line"/>
		</contour>
		<contour>
			<point x="188" y="587" type="line"/>
			<point x="588" y="587" type="line"/>
			<point x="610" y="700" type="line"/>
			<point x="210" y="700" type="line"/>
		</contour>
	</outline>
</glyph>
<glyph name="G" format="2">
	<advance width="825"/>
	<unicode hex="0047"/>
	<outline>
		<contour>
			<point x="330" y="-16" type="curve" smooth="yes"/>
			<point x="510" y="-16"/>
			<point x="632" y="122"/>
			<point x="674" y="301" type="curve"/>
			<point x="653" y="291" type="line"/>
			<point x="562" y="0" type="line"/>
			<point x="696" y="0" type="line"/>
			<point x="765" y="354" type="line"/>
			<point x="377" y="354" type="line"/>
			<point x="355" y="241" type="line"/>
			<point x="593" y="241" type="line"/>
			<point x="565" y="162"/>
			<point x="472" y="97"/>
			<point x="352" y="97" type="curve" smooth="yes"/>
			<point x="232" y="97"/>
			<point x="157" y="194"/>
			<point x="187" y="350" type="curve" smooth="yes"/>
			<point x="217" y="506"/>
			<point x="330" y="602"/>
			<point x="450" y="602" type="curve" smooth="yes"/>
			<point x="570" y="602"/>
			<point x="628" y="514"/>
			<point x="616" y="425" type="curve"/>
			<point x="757" y="435" type="line"/>
			<point x="780" y="573"/>
			<point x="672" y="715"/>
			<point x="472" y="715" type="curve" smooth="yes"/>
			<point x="272" y="715"/>
			<point x="96" y="590"/>
			<point x="49" y="350" type="curve" smooth="yes"/>
			<point x="5" y="124"/>
			<point x="120" y="-16"/>
		</contour>
	</outline>
</glyph>
<glyph name="H" format="2">
	<advance width="706"/>
	<unicode hex="0048"/>
	<outline>
		<contour>
			<point x="424" y="0" type="line"/>
			<point x="562" y="0" type="line"/>
			<point x="698" y="700" type="line"/>
			<point x="560" y="700" type="line"/>
		</contour>
		<contour>
			<point x="6" y="0" type="line"/>
			<point x="144" y="0" type="line"/>
			<point x="280" y="700" type="line"/>
			<point x="142" y="700" type="line"/>
		</contour>
		<contour>
			<point x="134" y="307" type="line"/>
			<point x="554" y="307" type="line"/>
			<point x="576" y="420" type="line"/>
			<point x="156" y="420" type="line"/>
		</contour>
	</outline>
</glyph>
<glyph name="I" format="2">
	<advance width="288"/>
	<unicode hex="0049"/>
	<outline>
		<contour>
			<point x="6" y="0" type="line"/>
			<point x="144" y="0" type="line"/>
			<point x="280" y="700" type="line"/>
			<point x="142" y="700" type="line"/>
		</contour>
	</outline>
</glyph>
<glyph name="J" format="2">
	<advance width="596"/>
	<unicode hex="004A"/>
	<outline>
		<contour>
			<point x="227" y="-16" type="curve" smooth="yes"/>
			<point x="377" y="-16"/>
			<point x="468" y="55"/>
			<point x="504" y="242" type="curve" smooth="yes"/>
			<point x="593" y="700" type="line"/>
			<point x="455" y="700" type="line"/>
			<point x="366" y="242" type="line" smooth="yes"/>
			<point x="345" y="134"/>
			<point x="299" y="97"/>
			<point x="239" y="97" type="curve" smooth="yes"/>
			<point x="179" y="97"/>
			<point x="129" y="144"/>
			<point x="147" y="242" type="curve" smooth="yes"/>
			<point x="152" y="270" type="line"/>
			<point x="14" y="270" type="line"/>
			<point x="9" y="242" type="line" smooth="yes"/>
			<point x="-16" y="104"/>
			<point x="61" y="-16"/>
		</contour>
	</outline>
</glyph>
<glyph name="K" format="2">
	<advance width="662"/>
	<unicode hex="004B"/>
	<outline>
		<contour>
			<point x="148" y="199" type="line"/>
			<point x="695" y="700" type="line"/>
			<point x="522" y="700" type="line"/>
			<point x="94" y="313" type="line"/>
		</contour>
		<contour>
			<point x="6" y="0" type="line"/>
			<point x="144" y="0" type="line"/>
			<point x="280" y="700" type="line"/>
			<point x="142" y="700" type="line"/>
		</contour>
		<contour>
			<point x="428" y="0" type="line"/>
			<point x="583" y="0" type="line"/>
			<point x="359" y="451" type="line"/>
			<point x="231" y="399" type="line"/>
		</contour>
	</outline>
</glyph>
<glyph name="L" format="2">
	<advance width="548"/>
	<unicode hex="004C"/>
	<outline>
		<contour>
			<point x="6" y="0" type="line"/>
			<point x="144" y="0" type="line"/>
			<point x="280" y="700" type="line"/>
			<point x="142" y="700" type="line"/>
		</contour>
		<contour>
			<point x="69" y="0" type="line"/>
			<point x="469" y="0" type="line"/>
			<point x="491" y="113" type="line"/>
			<point x="91" y="113" type="line"/>
		</contour>
	</outline>
</glyph>
<glyph name="M" format="2">
	<advance width="888"/>
	<unicode hex="004D"/>
	<outline>
		<contour>
			<point x="6" y="0" type="line"/>
			<point x="139" y="0" type="line"/>
			<point x="250" y="572" type="line"/>
			<point x="209" y="572" type="line"/>
			<point x="319" y="0" type="line"/>
			<point x="426" y="0" type="line"/>
			<point x="758" y="572" type="line"/>
			<point x="712" y="572" type="line"/>
			<point x="601" y="0" type="line"/>
			<point x="744" y="0" type="line"/>
			<point x="880" y="700" type="line"/>
			<point x="695" y="700" type="line"/>
			<point x="368" y="131" type="line"/>
			<point x="422" y="131" type="line"/>
			<point x="316" y="700" type="line"/>
			<point x="142" y="700" type="line"/>
		</contour>
	</outline>
</glyph>
<glyph name="N" format="2">
	<advance width="746"/>
	<unicode hex="004E"/>
	<outline>
		<contour>
			<point x="448" y="0" type="line"/>
			<point x="591" y="0" type="line"/>
			<point x="286" y="700" type="line"/>
			<point x="143" y="700" type="line"/>
		</contour>
		<contour>
			<point x="6" y="0" type="line"/>
			<point x="140" y="0" type="line"/>
			<point x="276" y="700" type="line"/>
			<point x="142" y="700" type="line"/>
		</contour>
		<contour>
			<point x="458" y="0" type="line"/>
			<point x="602" y="0" type="line"/>
			<point x="738" y="700" type="line"/>
			<point x="594" y="700" type="line"/>
		</contour>
	</outline>
</glyph>
<glyph name="O" format="2">
	<advance width="804"/>
	<unicode hex="004F"/>
	<outline>
		<contour>
			<point x="330" y="-16" type="curve" smooth="yes"/>
			<point x="530" y="-16"/>
			<point x="705" y="105"/>
			<point x="753" y="350" type="curve" smooth="yes"/>
			<point x="791" y="546"/>
			<point x="662" y="716"/>
			<point x="472" y="716" type="curve" smooth="yes"/>
			<point x="272" y="716"/>
			<point x="97" y="595"/>
			<point x="49" y="350" type="curve" smooth="yes"/>
			<point x="11" y="154"/>
			<point x="140" y="-16"/>
		</contour>
		<contour>
			<point x="352" y="97" type="curve" smooth="yes"/>
			<point x="232" y="97"/>
			<point x="156" y="193"/>
			<point x="187" y="350" type="curve" smooth="yes"/>
			<point x="216" y="500"/>
			<point x="320" y="603"/>
			<point x="450" y="603" type="curve" smooth="yes"/>
			<point x="570" y="603"/>
			<point x="646" y="507"/>
			<point x="615" y="350" type="curve" smooth="yes"/>
			<point x="586" y="200"/>
			<point x="482" y="97"/>
		</contour>
	</outline>
</glyph>
<glyph name="P" format="2">
	<advance width="616"/>
	<unicode hex="0050"/>
	<outline>
		<contour>
			<point x="91" y="268" type="line"/>
			<point x="298" y="268" type="line" smooth="yes"/>
			<point x="458" y="268"/>
			<point x="581" y="327"/>
			<point x="611" y="484" type="curve" smooth="yes"/>
			<point x="636" y="612"/>
			<point x="542" y="700"/>
			<point x="382" y="700" type="curve" smooth="yes"/>
			<point x="175" y="700" type="line"/>
			<point x="153" y="587" type="line"/>
			<point x="360" y="587" type="line" smooth="yes"/>
			<point x="440" y="587"/>
			<point x="489" y="562"/>
			<point x="473" y="484" type="curve" smooth="yes"/>
			<point x="457" y="406"/>
			<point x="400" y="381"/>
			<point x="320" y="381" type="curve" smooth="yes"/>
			<point x="113" y="381" type="line"/>
		</contour>
		<contour>
			<point x="6" y="0" type="line"/>
			<point x="144" y="0" type="line"/>
			<point x="280" y="700" type="line"/>
			<point x="142" y="700" type="line"/>
		</contour>
	</outline>
</glyph>
<glyph name="Q" format="2">
	<advance width="811"/>
	<unicode hex="0051"/>
	<outline>
		<contour>
			<point x="565" y="-66" type="line"/>
			<point x="700" y="-66" type="line"/>
			<point x="466" y="366" type="line"/>
			<point x="331" y="366" type="line"/>
		</contour>
		<component base="O"/>
	</outline>
</glyph>
<glyph name="R" format="2">
	<advance width="652"/>
	<unicode hex="0052"/>
	<outline>
		<contour>
			<point x="6" y="0" type="line"/>
			<point x="144" y="0" type="line"/>
			<point x="196" y="268" type="line"/>
			<point x="298" y="268" type="line" smooth="yes"/>
			<point x="418" y="268"/>
			<point x="417" y="233"/>
			<point x="407" y="153" type="curve" smooth="yes"/>
			<point x="388" y="0" type="line"/>
			<point x="528" y="0" type="line"/>
			<point x="544" y="140" type="line" smooth="yes"/>
			<point x="562" y="299"/>
			<point x="524" y="324"/>
			<point x="354" y="324" type="curve"/>
			<point x="353" y="315" type="line"/>
			<point x="453" y="315"/>
			<point x="583" y="340"/>
			<point x="611" y="484" type="curve" smooth="yes"/>
			<point x="636" y="612"/>
			<point x="542" y="700"/>
			<point x="382" y="700" type="curve" smooth="yes"/>
			<point x="142" y="700" type="line"/>
		</contour>
		<contour>
			<point x="218" y="381" type="line"/>
			<point x="258" y="587" type="line"/>
			<point x="360" y="587" type="line" smooth="yes"/>
			<point x="440" y="587"/>
			<point x="489" y="562"/>
			<point x="473" y="484" type="curve" smooth="yes"/>
			<point x="457" y="406"/>
			<point x="400" y="381"/>
			<point x="320" y="381" type="curve" smooth="yes"/>
		</contour>
	</outline>
</glyph>
<glyph name="T" format="2">
	<advance width="659"/>
	<unicode hex="0054"/>
	<outline>
		<contour>
			<point x="192" y="0" type="line"/>
			<point x="330" y="0" type="line"/>
			<point x="452" y="627" type="line"/>
			<point x="314" y="627" type="line"/>
		</contour>
		<contour>
			<point x="56" y="587" type="line"/>
			<point x="694" y="587" type="line"/>
			<point x="716" y="700" type="line"/>
			<point x="78" y="700" type="line"/>
		</contour>
	</outline>
</glyph>
<glyph name="U" format="2">
	<advance width="695"/>
	<unicode hex="0055"/>
	<outline>
		<contour>
			<point x="277" y="-16" type="curve" smooth="yes"/>
			<point x="427" y="-16"/>
			<point x="565" y="46"/>
			<point x="609" y="272" type="curve" smooth="yes"/>
			<point x="692" y="700" type="line"/>
			<point x="553" y="700" type="line"/>
			<point x="470" y="272" type="line" smooth="yes"/>
			<point x="441" y="125"/>
			<point x="357" y="97"/>
			<point x="297" y="97" type="curve" smooth="yes"/>
			<point x="217" y="97"/>
			<point x="168" y="154"/>
			<point x="191" y="272" type="curve" smooth="yes"/>
			<point x="274" y="700" type="line"/>
			<point x="137" y="700" type="line"/>
			<point x="54" y="272" type="line" smooth="yes"/>
			<point x="22" y="105"/>
			<point x="127" y="-16"/>
		</contour>
	</outline>
</glyph>
<glyph name="V" format="2">
	<advance width="664"/>
	<unicode hex="0056"/>
	<outline>
		<contour>
			<point x="188" y="0" type="line"/>
			<point x="338" y="0" type="line"/>
			<point x="721" y="700" type="line"/>
			<point x="576" y="700" type="line"/>
			<point x="213" y="36" type="line"/>
			<point x="307" y="36" type="line"/>
			<point x="202" y="700" type="line"/>
			<point x="77" y="700" type="line"/>
		</contour>
	</outline>
</glyph>
<glyph name="W" format="2">
	<advance width="925"/>
	<unicode hex="0057"/>
	<outline>
		<contour>
			<point x="108" y="0" type="line"/>
			<point x="277" y="0" type="line"/>
			<point x="528" y="587" type="line"/>
			<point x="478" y="587" type="line"/>
			<point x="501" y="0" type="line"/>
			<point x="679" y="0" type="line"/>
			<point x="967" y="700" type="line"/>
			<point x="830" y="700" type="line"/>
			<point x="558" y="38" type="line"/>
			<point x="609" y="38" type="line"/>
			<point x="585" y="700" type="line"/>
			<point x="465" y="700" type="line"/>
			<point x="183" y="38" type="line"/>
			<point x="234" y="38" type="line"/>
			<point x="220" y="700" type="line"/>
			<point x="92" y="700" type="line"/>
		</contour>
	</outline>
</glyph>
<glyph name="X" format="2">
	<advance width="672"/>
	<unicode hex="0058"/>
	<outline>
		<contour>
			<point x="439" y="0" type="line"/>
			<point x="583" y="0" type="line"/>
			<point x="231" y="700" type="line"/>
			<point x="87" y="700" type="line"/>
		</contour>
		<contour>
			<point x="-59" y="0" type="line"/>
			<point x="105" y="0" type="line"/>
			<point x="729" y="700" type="line"/>
			<point x="565" y="700" type="line"/>
		</contour>
	</outline>
</glyph>
<glyph name="Y" format="2">
	<advance width="603"/>
	<unicode hex="0059"/>
	<outline>
		<contour>
			<point x="48" y="0" type="line"/>
			<point x="201" y="0" type="line"/>
			<point x="660" y="700" type="line"/>
			<point x="507" y="700" type="line"/>
		</contour>
		<contour>
			<point x="230" y="104" type="line"/>
			<point x="325" y="245" type="line"/>
			<point x="206" y="700" type="line"/>
			<point x="77" y="700" type="line"/>
		</contour>
	</outline>
</glyph>
<glyph name="Z" format="2">
	<advance width="611"/>
	<unicode hex="005A"/>
	<outline>
		<contour>
			<point x="14" y="113" type="line"/>
			<point x="164" y="113" type="line"/>
			<point x="596" y="587" type="line"/>
			<point x="446" y="587" type="line"/>
		</contour>
		<contour>
			<point x="-8" y="0" type="line"/>
			<point x="482" y="0" type="line"/>
			<point x="504" y="113" type="line"/>
			<point x="14" y="113" type="line"/>
		</contour>
		<contour>
			<point x="106" y="587" type="line"/>
			<point x="596" y="587" type="line"/>
			<point x="618" y="700" type="line"/>
			<point x="128" y="700" type="line"/>
		</contour>
	</outline>
</glyph>
<glyph name="bracketleft" format="2">
	<advance width="397"/>
	<unicode hex="005B"/>
	<outline>
		<contour>
			<point x="-9" y="-110" type="line"/>
			<point x="129" y="-110" type="line"/>
			<point x="289" y="716" type="line"/>
			<point x="151" y="716" type="line"/>
		</contour>
		<contour>
			<point x="59" y="-110" type="line"/>
			<point x="277" y="-110" type="line"/>
			<point x="299" y="4" type="line"/>
			<point x="81" y="4" type="line"/>
		</contour>
		<contour>
			<point x="197" y="603" type="line"/>
			<point x="415" y="603" type="line"/>
			<point x="437" y="716" type="line"/>
			<point x="219" y="716" type="line"/>
		</contour>
	</outline>
</glyph>
<glyph name="backslash" format="2">
	<advance width="564"/>
	<unicode hex="005C"/>
	<outline>
		<contour>
			<point x="320" y="-110" type="line"/>
			<point x="434" y="-110" type="line"/>
			<point x="225" y="716" type="line"/>
			<point x="111" y="716" type="line"/>
		</contour>
	</outline>
</glyph>
<glyph name="bracketright" format="2">
	<advance width="397"/>
	<unicode hex="005D"/>
	<outline>
		<contour>
			<point x="89" y="-110" type="line"/>
			<point x="227" y="-110" type="line"/>
			<point x="387" y="716" type="line"/>
			<point x="249" y="716" type="line"/>
		</contour>
		<contour>
			<point x="-59" y="-110" type="line"/>
			<point x="159" y="-110" type="line"/>
			<point x="181" y="4" type="line"/>
			<point x="-37" y="4" type="line"/>
		</contour>
		<contour>
			<point x="79" y="603" type="line"/>
			<point x="297" y="603" type="line"/>
			<point x="319" y="716" type="line"/>
			<point x="101" y="716" type="line"/>
		</contour>
	</outline>
</glyph>
<glyph name="underscore" format="2">
	<advance width="345"/>
	<unicode hex="005F"/>
	<outline>
		<contour>
			<point x="-94" y="-129" type="line"/>
			<point x="251" y="-129" type="line"/>
			<point x="273" y="-16" type="line"/>
			<point x="-72" y="-16" type="line"/>
		</contour>
	</outline>
</glyph>
<glyph name="grave" format="2">
	<advance width="489"/>
	<unicode hex="0060"/>
	<outline>
		<contour>
			<point x="393" y="580" type="line"/>
			<point x="349" y="720" type="line"/>
			<point x="211" y="720" type="line"/>
			<point x="303" y="580" type="line"/>
		</contour>
	</outline>
</glyph>
<glyph name="a" format="2">
	<advance width="567"/>
	<unicode hex="0061"/>
	<outline>
		<contour>
			<point x="138" y="-16" type="curve" smooth="yes"/>
			<point x="268" y="-16"/>
			<point x="334" y="80"/>
			<point x="353" y="180" type="curve"/>
			<point x="335" y="141" type="line"/>
			<point x="308" y="0" type="line"/>
			<point x="443" y="0" type="line"/>
			<point x="499" y="291" type="line" smooth="yes"/>
			<point x="531" y="458"/>
			<point x="440" y="516"/>
			<point x="310" y="516" type="curve" smooth="yes"/>
			<point x="180" y="516"/>
			<point x="75" y="460"/>
			<point x="51" y="332" type="curve"/>
			<point x="183" y="322" type="line"/>
			<point x="194" y="382"/>
			<point x="238" y="403"/>
			<point x="298" y="403" type="curve" smooth="yes"/>
			<point x="348" y="403"/>
			<point x="374" y="385"/>
			<point x="375" y="357" type="curve" smooth="yes"/>
			<point x="377" y="318"/>
			<point x="340" y="301"/>
			<point x="280" y="298" type="curve" smooth="yes"/>
			<point x="159" y="291"/>
			<point x="24" y="270"/>
			<point x="1" y="150" type="curve" smooth="yes"/>
			<point x="-22" y="29"/>
			<point x="68" y="-16"/>
		</contour>
		<contour>
			<point x="200" y="97" type="curve" smooth="yes"/>
			<point x="150" y="97"/>
			<point x="133" y="120"/>
			<point x="139" y="150" type="curve" smooth="yes"/>
			<point x="145" y="179"/>
			<point x="171" y="198"/>
			<point x="231" y="205" type="curve" smooth="yes"/>
			<point x="313" y="215"/>
			<point x="370" y="218"/>
			<point x="394" y="338" type="curve"/>
			<point x="370" y="318" type="line"/>
			<point x="355" y="243" type="line" smooth="yes"/>
			<point x="334" y="140"/>
			<point x="270" y="97"/>
		</contour>
	</outline>
</glyph>
<glyph name="b" format="2">
	<advance width="621"/>
	<unicode hex="0062"/>
	<outline>
		<contour>
			<point x="-4" y="0" type="line"/>
			<point x="131" y="0" type="line"/>
			<point x="267" y="700" type="line"/>
			<point x="132" y="700" type="line"/>
		</contour>
		<contour>
			<point x="302" y="-16" type="curve" smooth="yes"/>
			<point x="432" y="-16"/>
			<point x="537" y="103"/>
			<point x="566" y="250" type="curve" smooth="yes"/>
			<point x="594" y="397"/>
			<point x="525" y="516"/>
			<point x="395" y="516" type="curve" smooth="yes"/>
			<point x="255" y="516"/>
			<point x="194" y="408"/>
			<point x="172" y="290" type="curve" smooth="yes"/>
			<point x="157" y="210" type="line" smooth="yes"/>
			<point x="135" y="92"/>
			<point x="162" y="-16"/>
		</contour>
		<contour>
			<point x="274" y="97" type="curve" smooth="yes"/>
			<point x="214" y="97"/>
			<point x="158" y="140"/>
			<point x="180" y="250" type="curve" smooth="yes"/>
			<point x="201" y="360"/>
			<point x="273" y="403"/>
			<point x="333" y="403" type="curve" smooth="yes"/>
			<point x="393" y="403"/>
			<point x="449" y="360"/>
			<point x="428" y="250" type="curve" smooth="yes"/>
			<point x="406" y="140"/>
			<point x="334" y="97"/>
		</contour>
	</outline>
</glyph>
<glyph name="c" format="2">
	<advance width="577"/>
	<unicode hex="0063"/>
	<outline>
		<contour>
			<point x="244" y="-16" type="curve" smooth="yes"/>
			<point x="354" y="-16"/>
			<point x="469" y="49"/>
			<point x="511" y="193" type="curve"/>
			<point x="367" y="203" type="line"/>
			<point x="343" y="137"/>
			<point x="306" y="97"/>
			<point x="246" y="97" type="curve" smooth="yes"/>
			<point x="176" y="97"/>
			<point x="143" y="147"/>
			<point x="164" y="258" type="curve" smooth="yes"/>
			<point x="180" y="341"/>
			<point x="235" y="403"/>
			<point x="305" y="403" type="curve" smooth="yes"/>
			<point x="375" y="403"/>
			<point x="386" y="361"/>
			<point x="385" y="291" type="curve"/>
			<point x="532" y="301" type="line"/>
			<point x="543" y="430"/>
			<point x="457" y="516"/>
			<point x="307" y="516" type="curve" smooth="yes"/>
			<point x="177" y="516"/>
			<point x="50" y="431"/>
			<point x="20" y="277" type="curve" smooth="yes"/>
			<point x="-15" y="100"/>
			<point x="104" y="-16"/>
		</contour>
	</outline>
</glyph>
<glyph name="d" format="2">
	<advance width="622"/>
	<unicode hex="0064"/>
	<outline>
		<contour>
			<point x="353" y="0" type="line"/>
			<point x="488" y="0" type="line"/>
			<point x="624" y="700" type="line"/>
			<point x="489" y="700" type="line"/>
		</contour>
		<contour>
			<point x="186" y="-16" type="curve" smooth="yes"/>
			<point x="326" y="-16"/>
			<point x="387" y="92"/>
			<point x="409" y="210" type="curve" smooth="yes"/>
			<point x="424" y="290" type="line" smooth="yes"/>
			<point x="446" y="408"/>
			<point x="419" y="516"/>
			<point x="279" y="516" type="curve" smooth="yes"/>
			<point x="149" y="516"/>
			<point x="44" y="397"/>
			<point x="15" y="250" type="curve" smooth="yes"/>
			<point x="-13" y="103"/>
			<point x="56" y="-16"/>
		</contour>
		<contour>
			<point x="248" y="97" type="curve" smooth="yes"/>
			<point x="188" y="97"/>
			<point x="132" y="140"/>
			<point x="153" y="250" type="curve" smooth="yes"/>
			<point x="175" y="360"/>
			<point x="247" y="403"/>
			<point x="307" y="403" type="curve" smooth="yes"/>
			<point x="367" y="403"/>
			<point x="423" y="360"/>
			<point x="401" y="250" type="curve" smooth="yes"/>
			<point x="380" y="140"/>
			<point x="308" y="97"/>
		</contour>
	</outline>
</glyph>
<glyph name="e" format="2">
	<advance width="571"/>
	<unicode hex="0065"/>
	<outline>
		<contour>
			<point x="244" y="-16" type="curve" smooth="yes"/>
			<point x="364" y="-16"/>
			<point x="465" y="58"/>
			<point x="496" y="147" type="curve"/>
			<point x="361" y="157" type="line"/>
			<point x="345" y="129"/>
			<point x="316" y="97"/>
			<point x="246" y="97" type="curve" smooth="yes"/>
			<point x="181" y="97"/>
			<point x="132" y="140"/>
			<point x="146" y="210" type="curve"/>
			<point x="508" y="210" type="line"/>
			<point x="515" y="248" type="line" smooth="yes"/>
			<point x="542" y="396"/>
			<point x="438" y="516"/>
			<point x="298" y="516" type="curve" smooth="yes"/>
			<point x="158" y="516"/>
			<point x="47" y="415"/>
			<point x="20" y="278" type="curve" smooth="yes"/>
			<point x="-16" y="91"/>
			<point x="104" y="-16"/>
		</contour>
		<contour>
			<point x="165" y="308" type="line"/>
			<point x="176" y="367"/>
			<point x="236" y="403"/>
			<point x="286" y="403" type="curve" smooth="yes"/>
			<point x="356" y="403"/>
			<point x="399" y="367"/>
			<point x="388" y="308" type="curve"/>
		</contour>
	</outline>
</glyph>
<glyph name="f" format="2">
	<advance width="414"/>
	<unicode hex="0066"/>
	<outline>
		<contour>
			<point x="50" y="0" type="line"/>
			<point x="185" y="0" type="line"/>
			<point x="289" y="537" type="line" smooth="yes"/>
			<point x="297" y="577"/>
			<point x="311" y="597"/>
			<point x="351" y="597" type="curve" smooth="yes"/>
			<point x="451" y="597" type="line"/>
			<point x="473" y="710" type="line"/>
			<point x="338" y="710" type="line" smooth="yes"/>
			<point x="248" y="710"/>
			<point x="179" y="665"/>
			<point x="162" y="577" type="curve" smooth="yes"/>
		</contour>
		<contour>
			<point x="17" y="387" type="line"/>
			<point x="410" y="387" type="line"/>
			<point x="432" y="500" type="line"/>
			<point x="39" y="500" type="line"/>
		</contour>
	</outline>
</glyph>
<glyph name="g" format="2">
	<advance width="622"/>
	<unicode hex="0067"/>
	<outline>
		<contour>
			<point x="192" y="-216" type="curve" smooth="yes"/>
			<point x="372" y="-216"/>
			<point x="462" y="-137"/>
			<point x="492" y="20" type="curve" smooth="yes"/>
			<point x="585" y="500" type="line"/>
			<point x="450" y="500" type="line"/>
			<point x="357" y="20" type="line" smooth="yes"/>
			<point x="340" y="-68"/>
			<point x="294" y="-103"/>
			<point x="214" y="-103" type="curve" smooth="yes"/>
			<point x="154" y="-103"/>
			<point x="121" y="-75"/>
			<point x="121" y="-45" type="curve"/>
			<point x="-29" y="-55" type="line"/>
			<point x="-29" y="-115"/>
			<point x="32" y="-216"/>
		</contour>
		<contour>
			<point x="186" y="-16" type="curve" smooth="yes"/>
			<point x="326" y="-16"/>
			<point x="387" y="92"/>
			<point x="409" y="210" type="curve" smooth="yes"/>
			<point x="424" y="290" type="line" smooth="yes"/>
			<point x="446" y="408"/>
			<point x="419" y="516"/>
			<point x="279" y="516" type="curve" smooth="yes"/>
			<point x="149" y="516"/>
			<point x="44" y="397"/>
			<point x="15" y="250" type="curve" smooth="yes"/>
			<point x="-13" y="103"/>
			<point x="56" y="-16"/>
		</contour>
		<contour>
			<point x="248" y="97" type="curve" smooth="yes"/>
			<point x="188" y="97"/>
			<point x="132" y="140"/>
			<point x="153" y="250" type="curve" smooth="yes"/>
			<point x="175" y="360"/>
			<point x="247" y="403"/>
			<point x="307" y="403" type="curve" smooth="yes"/>
			<point x="367" y="403"/>
			<point x="423" y="360"/>
			<point x="401" y="250" type="curve" smooth="yes"/>
			<point x="380" y="140"/>
			<point x="308" y="97"/>
		</contour>
	</outline>
</glyph>
<glyph name="h" format="2">
	<advance width="587"/>
	<unicode hex="0068"/>
	<outline>
		<contour>
			<point x="324" y="0" type="line"/>
			<point x="459" y="0" type="line"/>
			<point x="521" y="319" type="line" smooth="yes"/>
			<point x="544" y="437"/>
			<point x="493" y="516"/>
			<point x="383" y="516" type="curve" smooth="yes"/>
			<point x="273" y="516"/>
			<point x="195" y="411"/>
			<point x="172" y="293" type="curve"/>
			<point x="178" y="243" type="line"/>
			<point x="200" y="354"/>
			<point x="260" y="403"/>
			<point x="320" y="403" type="curve" smooth="yes"/>
			<point x="360" y="403"/>
			<point x="396" y="372"/>
			<point x="383" y="303" type="curve" smooth="yes"/>
		</contour>
		<contour>
			<point x="-4" y="0" type="line"/>
			<point x="131" y="0" type="line"/>
			<point x="267" y="700" type="line"/>
			<point x="132" y="700" type="line"/>
		</contour>
	</outline>
</glyph>
<glyph name="k" format="2">
	<advance width="580"/>
	<unicode hex="006B"/>
	<outline>
		<contour>
			<point x="147" y="146" type="line"/>
			<point x="594" y="500" type="line"/>
			<point x="411" y="500" type="line"/>
			<point x="75" y="240" type="line"/>
		</contour>
		<contour>
			<point x="-4" y="0" type="line"/>
			<point x="131" y="0" type="line"/>
			<point x="267" y="700" type="line"/>
			<point x="132" y="700" type="line"/>
		</contour>
		<contour>
			<point x="340" y="0" type="line"/>
			<point x="495" y="0" type="line"/>
			<point x="337" y="362" type="line"/>
			<point x="219" y="290" type="line"/>
		</contour>
	</outline>
</glyph>
<glyph name="l" format="2">
	<advance width="265"/>
	<unicode hex="006C"/>
	<outline>
		<contour>
			<point x="-4" y="0" type="line"/>
			<point x="131" y="0" type="line"/>
			<point x="269" y="710" type="line"/>
			<point x="134" y="710" type="line"/>
		</contour>
	</outline>
</glyph>
<glyph name="m" format="2">
	<advance width="896"/>
	<unicode hex="006D"/>
	<outline>
		<contour>
			<point x="-3" y="0" type="line"/>
			<point x="132" y="0" type="line"/>
			<point x="229" y="500" type="line"/>
			<point x="94" y="500" type="line"/>
		</contour>
		<contour>
			<point x="315" y="0" type="line"/>
			<point x="450" y="0" type="line"/>
			<point x="512" y="319" type="line" smooth="yes"/>
			<point x="535" y="437"/>
			<point x="494" y="516"/>
			<point x="384" y="516" type="curve" smooth="yes"/>
			<point x="274" y="516"/>
			<point x="196" y="411"/>
			<point x="173" y="293" type="curve"/>
			<point x="179" y="243" type="line"/>
			<point x="201" y="354"/>
			<point x="261" y="403"/>
			<point x="311" y="403" type="curve" smooth="yes"/>
			<point x="361" y="403"/>
			<point x="387" y="372"/>
			<point x="374" y="303" type="curve" smooth="yes"/>
		</contour>
		<contour>
			<point x="633" y="0" type="line"/>
			<point x="768" y="0" type="line"/>
			<point x="830" y="319" type="line" smooth="yes"/>
			<point x="853" y="437"/>
			<point x="812" y="516"/>
			<point x="702" y="516" type="curve" smooth="yes"/>
			<point x="592" y="516"/>
			<point x="514" y="411"/>
			<point x="491" y="293" type="curve"/>
			<point x="497" y="243" type="line"/>
			<point x="519" y="354"/>
			<point x="579" y="403"/>
			<point x="629" y="403" type="curve" smooth="yes"/>
			<point x="679" y="403"/>
			<point x="705" y="372"/>
			<point x="692" y="303" type="curve" smooth="yes"/>
		</contour>
	</outline>
</glyph>
<glyph name="n" format="2">
	<advance width="588"/>
	<unicode hex="006E"/>
	<outline>
		<contour>
			<point x="325" y="0" type="line"/>
			<point x="460" y="0" type="line"/>
			<point x="522" y="319" type="line" smooth="yes"/>
			<point x="545" y="437"/>
			<point x="494" y="516"/>
			<point x="384" y="516" type="curve" smooth="yes"/>
			<point x="274" y="516"/>
			<point x="196" y="411"/>
			<point x="173" y="293" type="curve"/>
			<point x="179" y="243" type="line"/>
			<point x="201" y="354"/>
			<point x="261" y="403"/>
			<point x="321" y="403" type="curve" smooth="yes"/>
			<point x="361" y="403"/>
			<point x="397" y="372"/>
			<point x="384" y="303" type="curve" smooth="yes"/>
		</contour>
		<contour>
			<point x="-3" y="0" type="line"/>
			<point x="132" y="0" type="line"/>
			<point x="229" y="500" type="line"/>
			<point x="94" y="500" type="line"/>
		</contour>
	</outline>
</glyph>
<glyph name="o" format="2">
	<advance width="591"/>
	<unicode hex="006F"/>
	<outline>
		<contour>
			<point x="236" y="-16" type="curve" smooth="yes"/>
			<point x="366" y="-16"/>
			<point x="502" y="73"/>
			<point x="536" y="250" type="curve" smooth="yes"/>
			<point x="562" y="388"/>
			<point x="465" y="516"/>
			<point x="315" y="516" type="curve" smooth="yes"/>
			<point x="185" y="516"/>
			<point x="49" y="427"/>
			<point x="15" y="250" type="curve" smooth="yes"/>
			<point x="-12" y="113"/>
			<point x="86" y="-16"/>
		</contour>
		<contour>
			<point x="246" y="97" type="curve" smooth="yes"/>
			<point x="176" y="97"/>
			<point x="133" y="152"/>
			<point x="153" y="250" type="curve" smooth="yes"/>
			<point x="174" y="358"/>
			<point x="245" y="403"/>
			<point x="305" y="403" type="curve" smooth="yes"/>
			<point x="375" y="403"/>
			<point x="418" y="348"/>
			<point x="399" y="250" type="curve" smooth="yes"/>
			<point x="377" y="142"/>
			<point x="306" y="97"/>
		</contour>
	</outline>
</glyph>
<glyph name="q" format="2">
	<advance width="621"/>
	<unicode hex="0071"/>
	<outline>
		<contour>
			<point x="314" y="-200" type="line"/>
			<point x="449" y="-200" type="line"/>
			<point x="585" y="500" type="line"/>
			<point x="450" y="500" type="line"/>
		</contour>
		<contour>
			<point x="186" y="-16" type="curve" smooth="yes"/>
			<point x="326" y="-16"/>
			<point x="387" y="92"/>
			<point x="409" y="210" type="curve" smooth="yes"/>
			<point x="424" y="290" type="line" smooth="yes"/>
			<point x="446" y="408"/>
			<point x="419" y="516"/>
			<point x="279" y="516" type="curve" smooth="yes"/>
			<point x="149" y="516"/>
			<point x="44" y="397"/>
			<point x="15" y="250" type="curve" smooth="yes"/>
			<point x="-13" y="103"/>
			<point x="56" y="-16"/>
		</contour>
		<contour>
			<point x="248" y="97" type="curve" smooth="yes"/>
			<point x="188" y="97"/>
			<point x="132" y="140"/>
			<point x="153" y="250" type="curve" smooth="yes"/>
			<point x="175" y="360"/>
			<point x="247" y="403"/>
			<point x="307" y="403" type="curve" smooth="yes"/>
			<point x="367" y="403"/>
			<point x="423" y="360"/>
			<point x="401" y="250" type="curve" smooth="yes"/>
			<point x="380" y="140"/>
			<point x="308" y="97"/>
		</contour>
	</outline>
</glyph>
<glyph name="r" format="2">
	<advance width="418"/>
	<unicode hex="0072"/>
	<outline>
		<contour>
			<point x="2" y="0" type="line"/>
			<point x="137" y="0" type="line"/>
			<point x="177" y="208" type="line" smooth="yes"/>
			<point x="203" y="338"/>
			<point x="243" y="387"/>
			<point x="333" y="387" type="curve" smooth="yes"/>
			<point x="415" y="387" type="line"/>
			<point x="437" y="500" type="line"/>
			<point x="345" y="500" type="line" smooth="yes"/>
			<point x="245" y="500"/>
			<point x="192" y="375"/>
			<point x="167" y="245" type="curve"/>
			<point x="198" y="314" type="line"/>
			<point x="234" y="500" type="line"/>
			<point x="99" y="500" type="line"/>
		</contour>
	</outline>
</glyph>
<glyph name="s" format="2">
	<advance width="540"/>
	<unicode hex="0073"/>
	<outline>
		<contour>
			<point x="231" y="-16" type="curve" smooth="yes"/>
			<point x="361" y="-16"/>
			<point x="473" y="41"/>
			<point x="473" y="151" type="curve" smooth="yes"/>
			<point x="473" y="341"/>
			<point x="195" y="278"/>
			<point x="195" y="359" type="curve" smooth="yes"/>
			<point x="195" y="389"/>
			<point x="230" y="403"/>
			<point x="270" y="403" type="curve" smooth="yes"/>
			<point x="330" y="403"/>
			<point x="356" y="377"/>
			<point x="356" y="347" type="curve"/>
			<point x="492" y="357" type="line"/>
			<point x="492" y="457"/>
			<point x="390" y="516"/>
			<point x="270" y="516" type="curve" smooth="yes"/>
			<point x="150" y="516"/>
			<point x="57" y="449"/>
			<point x="57" y="359" type="curve" smooth="yes"/>
			<point x="57" y="179"/>
			<point x="335" y="241"/>
			<point x="335" y="151" type="curve" smooth="yes"/>
			<point x="335" y="121"/>
			<point x="301" y="97"/>
			<point x="231" y="97" type="curve" smooth="yes"/>
			<point x="171" y="97"/>
			<point x="129" y="126"/>
			<point x="129" y="176" type="curve"/>
			<point x="-6" y="166" type="line"/>
			<point x="-6" y="66"/>
			<point x="91" y="-16"/>
		</contour>
	</outline>
</glyph>
<glyph name="t" format="2">
	<advance width="419"/>
	<unicode hex="0074"/>
	<outline>
		<contour>
			<point x="215" y="0" type="curve" smooth="yes"/>
			<point x="330" y="0" type="line"/>
			<point x="352" y="113" type="line"/>
			<point x="262" y="113" type="line" smooth="yes"/>
			<point x="222" y="113"/>
			<point x="206" y="133"/>
			<point x="214" y="173" type="curve" smooth="yes"/>
			<point x="308" y="661" type="line"/>
			<point x="173" y="661" type="line"/>
			<point x="76" y="160" type="line" smooth="yes"/>
			<point x="55" y="50"/>
			<point x="105" y="0"/>
		</contour>
		<contour>
			<point x="12" y="387" type="line"/>
			<point x="405" y="387" type="line"/>
			<point x="427" y="500" type="line"/>
			<point x="34" y="500" type="line"/>
		</contour>
	</outline>
</glyph>
<glyph name="u" format="2">
	<advance width="584"/>
	<unicode hex="0075"/>
	<outline>
		<contour>
			<point x="160" y="-16" type="curve" smooth="yes"/>
			<point x="270" y="-16"/>
			<point x="348" y="89"/>
			<point x="371" y="207" type="curve"/>
			<point x="365" y="257" type="line"/>
			<point x="343" y="146"/>
			<point x="283" y="97"/>
			<point x="223" y="97" type="curve" smooth="yes"/>
			<point x="183" y="97"/>
			<point x="147" y="128"/>
			<point x="160" y="197" type="curve" smooth="yes"/>
			<point x="219" y="500" type="line"/>
			<point x="84" y="500" type="line"/>
			<point x="22" y="181" type="line" smooth="yes"/>
			<point x="-1" y="63"/>
			<point x="50" y="-16"/>
		</contour>
		<contour>
			<point x="315" y="0" type="line"/>
			<point x="450" y="0" type="line"/>
			<point x="547" y="500" type="line"/>
			<point x="412" y="500" type="line"/>
		</contour>
	</outline>
</glyph>
<glyph name="v" format="2">
	<advance width="559"/>
	<unicode hex="0076"/>
	<outline>
		<contour>
			<point x="149" y="0" type="line"/>
			<point x="293" y="0" type="line"/>
			<point x="583" y="500" type="line"/>
			<point x="439" y="500" type="line"/>
		</contour>
		<contour>
			<point x="119" y="0" type="line"/>
			<point x="252" y="0" type="line"/>
			<point x="167" y="500" type="line"/>
			<point x="34" y="500" type="line"/>
		</contour>
	</outline>
</glyph>
<glyph name="w" format="2">
	<advance width="783"/>
	<unicode hex="0077"/>
	<outline>
		<contour>
			<point x="74" y="0" type="line"/>
			<point x="222" y="0" type="line"/>
			<point x="400" y="352" type="line"/>
			<point x="374" y="352" type="line"/>
			<point x="415" y="0" type="line"/>
			<point x="573" y="0" type="line"/>
			<point x="792" y="500" type="line"/>
			<point x="654" y="500" type="line"/>
			<point x="502" y="152" type="line"/>
			<point x="516" y="153" type="line"/>
			<point x="475" y="500" type="line"/>
			<point x="356" y="500" type="line"/>
			<point x="181" y="153" type="line"/>
			<point x="195" y="152" type="line"/>
			<point x="177" y="500" type="line"/>
			<point x="49" y="500" type="line"/>
		</contour>
	</outline>
</glyph>
<glyph name="x" format="2">
	<advance width="546"/>
	<unicode hex="0078"/>
	<outline>
		<contour>
			<point x="315" y="0" type="line"/>
			<point x="467" y="0" type="line"/>
			<point x="200" y="500" type="line"/>
			<point x="48" y="500" type="line"/>
		</contour>
		<contour>
			<point x="-59" y="0" type="line"/>
			<point x="103" y="0" type="line"/>
			<point x="564" y="500" type="line"/>
			<point x="402" y="500" type="line"/>
		</contour>
	</outline>
</glyph>
<glyph name="y" format="2">
	<advance width="575"/>
	<unicode hex="0079"/>
	<outline>
		<contour>
			<point x="141" y="0" type="line"/>
			<point x="269" y="0" type="line"/>
			<point x="162" y="500" type="line"/>
			<point x="34" y="500" type="line"/>
		</contour>
		<contour>
			<point x="4" y="-200" type="line"/>
			<point x="154" y="-200" type="line"/>
			<point x="599" y="500" type="line"/>
			<point x="449" y="500" type="line"/>
		</contour>
	</outline>
</glyph>
<glyph name="z" format="2">
	<advance width="488"/>
	<unicode hex="007A"/>
	<outline>
		<contour>
			<point x="-22" y="108" type="line"/>
			<point x="142" y="108" type="line"/>
			<point x="470" y="392" type="line"/>
			<point x="307" y="392" type="line"/>
		</contour>
		<contour>
			<point x="-43" y="0" type="line"/>
			<point x="394" y="0" type="line"/>
			<point x="415" y="108" type="line"/>
			<point x="-22" y="108" type="line"/>
		</contour>
		<contour>
			<point x="33" y="392" type="line"/>
			<point x="470" y="392" type="line"/>
			<point x="491" y="500" type="line"/>
			<point x="54" y="500" type="line"/>
		</contour>
	</outline>
</glyph>
<glyph name="braceleft" format="2">
	<advance width="515"/>
	<unicode hex="007B"/>
	<outline>
		<contour>
			<point x="81" y="303" type="line"/>
			<point x="202" y="293" type="line"/>
			<point x="298" y="323"/>
			<point x="346" y="358"/>
			<point x="369" y="478" type="curve" smooth="yes"/>
			<point x="383" y="551" type="line" smooth="yes"/>
			<point x="391" y="591"/>
			<point x="405" y="603"/>
			<point x="445" y="603" type="curve" smooth="yes"/>
			<point x="523" y="603" type="line"/>
			<point x="545" y="716" type="line"/>
			<point x="467" y="716" type="line" smooth="yes"/>
			<point x="347" y="716"/>
			<point x="268" y="671"/>
			<point x="245" y="551" type="curve" smooth="yes"/>
			<point x="231" y="478" type="line" smooth="yes"/>
			<point x="214" y="388"/>
			<point x="143" y="366"/>
			<point x="93" y="366" type="curve"/>
		</contour>
		<contour>
			<point x="307" y="-110" type="curve" smooth="yes"/>
			<point x="385" y="-110" type="line"/>
			<point x="407" y="3" type="line"/>
			<point x="329" y="3" type="line" smooth="yes"/>
			<point x="289" y="3"/>
			<point x="279" y="15"/>
			<point x="287" y="55" type="curve" smooth="yes"/>
			<point x="299" y="118" type="line" smooth="yes"/>
			<point x="320" y="226"/>
			<point x="290" y="283"/>
			<point x="206" y="313" type="curve"/>
			<point x="85" y="323" type="line"/>
			<point x="73" y="260" type="line"/>
			<point x="123" y="260"/>
			<point x="178" y="207"/>
			<point x="163" y="128" type="curve" smooth="yes"/>
			<point x="149" y="55" type="line" smooth="yes"/>
			<point x="126" y="-65"/>
			<point x="187" y="-110"/>
		</contour>
	</outline>
</glyph>
<glyph name="bar" format="2">
	<advance width="324"/>
	<unicode hex="007C"/>
	<outline>
		<contour>
			<point x="1" y="-106" type="line"/>
			<point x="144" y="-106" type="line"/>
			<point x="317" y="780" type="line"/>
			<point x="174" y="780" type="line"/>
		</contour>
	</outline>
</glyph>
<glyph name="braceright" format="2">
	<advance width="515"/>
	<unicode hex="007D"/>
	<outline>
		<contour>
			<point x="290" y="293" type="curve"/>
			<point x="411" y="283" type="line"/>
			<point x="423" y="346" type="line"/>
			<point x="373" y="346"/>
			<point x="318" y="399"/>
			<point x="333" y="478" type="curve" smooth="yes"/>
			<point x="347" y="551" type="line" smooth="yes"/>
			<point x="370" y="671"/>
			<point x="309" y="716"/>
			<point x="189" y="716" type="curve" smooth="yes"/>
			<point x="111" y="716" type="line"/>
			<point x="89" y="603" type="line"/>
			<point x="167" y="603" type="line" smooth="yes"/>
			<point x="207" y="603"/>
			<point x="217" y="591"/>
			<point x="209" y="551" type="curve" smooth="yes"/>
			<point x="197" y="488" type="line" smooth="yes"/>
			<point x="176" y="380"/>
			<point x="206" y="323"/>
		</contour>
		<contour>
			<point x="-49" y="-110" type="line"/>
			<point x="29" y="-110" type="line" smooth="yes"/>
			<point x="149" y="-110"/>
			<point x="228" y="-65"/>
			<point x="251" y="55" type="curve" smooth="yes"/>
			<point x="265" y="128" type="line" smooth="yes"/>
			<point x="282" y="218"/>
			<point x="353" y="240"/>
			<point x="403" y="240" type="curve"/>
			<point x="415" y="303" type="line"/>
			<point x="294" y="313" type="line"/>
			<point x="198" y="283"/>
			<point x="150" y="248"/>
			<point x="127" y="128" type="curve" smooth="yes"/>
			<point x="113" y="55" type="line" smooth="yes"/>
			<point x="105" y="15"/>
			<point x="91" y="3"/>
			<point x="51" y="3" type="curve" smooth="yes"/>
			<point x="-27" y="3" type="line"/>
		</contour>
	</outline>
</glyph>
<glyph name="asciitilde" format="2">
	<advance width="521"/>
	<unicode hex="007E"/>
	<outline>
		<contour>
			<point x="134" y="208" type="line"/>
			<point x="142" y="248"/>
			<point x="163" y="265"/>
			<point x="183" y="265" type="curve" smooth="yes"/>
			<point x="233" y="265"/>
			<point x="222" y="208"/>
			<point x="312" y="208" type="curve" smooth="yes"/>
			<point x="382" y="208"/>
			<point x="453" y="260"/>
			<point x="472" y="360" type="curve"/>
			<point x="362" y="370" type="line"/>
			<point x="354" y="330"/>
			<point x="333" y="312"/>
			<point x="313" y="312" type="curve" smooth="yes"/>
			<point x="263" y="312"/>
			<point x="274" y="372"/>
			<point x="184" y="370" type="curve" smooth="yes"/>
			<point x="113" y="368"/>
			<point x="44" y="318"/>
			<point x="24" y="218" type="curve"/>
		</contour>
	</outline>
</glyph>
<glyph name="cent" format="2">
	<advance width="577"/>
	<unicode hex="00A2"/>
	<outline>
		<contour>
			<point x="262" y="76" type="curve" smooth="yes"/>
			<point x="372" y="76"/>
			<point x="487" y="141"/>
			<point x="529" y="285" type="curve"/>
			<point x="385" y="295" type="line"/>
			<point x="361" y="229"/>
			<point x="324" y="189"/>
			<point x="264" y="189" type="curve" smooth="yes"/>
			<point x="194" y="189"/>
			<point x="161" y="239"/>
			<point x="180" y="340" type="curve" smooth="yes"/>
			<point x="198" y="433"/>
			<point x="253" y="495"/>
			<point x="323" y="495" type="curve" smooth="yes"/>
			<point x="393" y="495"/>
			<point x="404" y="453"/>
			<point x="403" y="383" type="curve"/>
			<point x="550" y="393" type="line"/>
			<point x="561" y="522"/>
			<point x="475" y="608"/>
			<point x="325" y="608" type="curve" smooth="yes"/>
			<point x="195" y="608"/>
			<point x="68" y="523"/>
			<point x="36" y="359" type="curve" smooth="yes"/>
			<point x="3" y="192"/>
			<point x="122" y="76"/>
		</contour>
		<contour>
			<point x="166" y="-116" type="line"/>
			<point x="239" y="-116" type="line"/>
			<point x="417" y="800" type="line"/>
			<point x="344" y="800" type="line"/>
		</contour>
	</outline>
</glyph>
<glyph name="sterling" format="2">
	<advance width="689"/>
	<unicode hex="00A3"/>
	<outline>
		<contour>
			<point x="-33" y="0" type="line"/>
			<point x="539" y="0" type="line"/>
			<point x="561" y="113" type="line"/>
			<point x="32" y="113" type="line"/>
			<point x="39" y="40" type="line"/>
			<point x="371" y="196"/>
			<point x="231" y="353"/>
			<point x="260" y="503" type="curve" smooth="yes"/>
			<point x="272" y="567"/>
			<point x="339" y="603"/>
			<point x="409" y="603" type="curve" smooth="yes"/>
			<point x="479" y="603"/>
			<point x="523" y="560"/>
			<point x="505" y="470" type="curve"/>
			<point x="645" y="480" type="line"/>
			<point x="666" y="588"/>
			<point x="601" y="716"/>
			<point x="431" y="716" type="curve" smooth="yes"/>
			<point x="271" y="716"/>
			<point x="148" y="640"/>
			<point x="122" y="503" type="curve" smooth="yes"/>
			<point x="85" y="313"/>
			<point x="206" y="240"/>
			<point x="-11" y="113" type="curve"/>
		</contour>
		<contour>
			<point x="-2" y="287" type="line"/>
			<point x="437" y="287" type="line"/>
			<point x="453" y="370" type="line"/>
			<point x="14" y="370" type="line"/>
		</contour>
	</outline>
</glyph>
<glyph name="currency" format="2">
	<advance width="683"/>
	<unicode hex="00A4"/>
	<outline>
		<contour>
			<point x="288" y="78" type="curve" smooth="yes"/>
			<point x="408" y="77"/>
			<point x="524" y="174"/>
			<point x="546" y="294" type="curve" smooth="yes"/>
			<point x="570" y="414"/>
			<point x="492" y="511"/>
			<point x="372" y="510" type="curve" smooth="yes"/>
			<point x="252" y="511"/>
			<point x="136" y="414"/>
			<point x="114" y="294" type="curve" smooth="yes"/>
			<point x="90" y="174"/>
			<point x="168" y="77"/>
		</contour>
		<contour>
			<point x="85" y="23" type="line"/>
			<point x="220" y="133" type="line"/>
			<point x="181" y="237" type="line"/>
			<point x="22" y="103" type="line"/>
		</contour>
		<contour>
			<point x="469" y="23" type="line"/>
			<point x="564" y="103" type="line"/>
			<point x="471" y="219" type="line"/>
			<point x="366" y="151" type="line"/>
		</contour>
		<contour>
			<point x="310" y="190" type="curve" smooth="yes"/>
			<point x="253" y="190"/>
			<point x="215" y="237"/>
			<point x="226" y="294" type="curve" smooth="yes"/>
			<point x="237" y="351"/>
			<point x="293" y="398"/>
			<point x="350" y="398" type="curve" smooth="yes"/>
			<point x="407" y="398"/>
			<point x="445" y="351"/>
			<point x="434" y="294" type="curve" smooth="yes"/>
			<point x="423" y="237"/>
			<point x="367" y="190"/>
		</contour>
		<contour>
			<point x="192" y="367" type="line"/>
			<point x="292" y="441" type="line"/>
			<point x="192" y="565" type="line"/>
			<point x="96" y="486" type="line"/>
		</contour>
		<contour>
			<point x="497" y="368" type="line"/>
			<point x="638" y="486" type="line"/>
			<point x="574" y="565" type="line"/>
			<point x="431" y="446" type="line"/>
		</contour>
	</outline>
</glyph>
<glyph name="yen" format="2">
	<advance width="696"/>
	<unicode hex="00A5"/>
	<outline>
		<contour>
			<point x="380" y="257" type="line"/>
			<point x="753" y="700" type="line"/>
			<point x="601" y="700" type="line"/>
			<point x="278" y="319" type="line"/>
		</contour>
		<contour>
			<point x="84" y="280" type="line"/>
			<point x="582" y="280" type="line"/>
			<point x="597" y="353" type="line"/>
			<point x="99" y="353" type="line"/>
		</contour>
		<contour>
			<point x="55" y="127" type="line"/>
			<point x="553" y="127" type="line"/>
			<point x="567" y="200" type="line"/>
			<point x="69" y="200" type="line"/>
		</contour>
		<contour>
			<point x="210" y="0" type="line"/>
			<point x="348" y="0" type="line"/>
			<point x="413" y="337" type="line"/>
			<point x="275" y="337" type="line"/>
		</contour>
		<contour>
			<point x="278" y="257" type="line"/>
			<point x="404" y="319" type="line"/>
			<point x="229" y="700" type="line"/>
			<point x="77" y="700" type="line"/>
		</contour>
	</outline>
</glyph>
<glyph name="brokenbar" format="2">
	<advance width="324"/>
	<unicode hex="00A6"/>
	<outline>
		<contour>
			<point x="98" y="392" type="line"/>
			<point x="241" y="392" type="line"/>
			<point x="317" y="780" type="line"/>
			<point x="174" y="780" type="line"/>
		</contour>
		<contour>
			<point x="3" y="-96" type="line"/>
			<point x="146" y="-96" type="line"/>
			<point x="222" y="292" type="line"/>
			<point x="79" y="292" type="line"/>
		</contour>
	</outline>
</glyph>
<glyph name="section" format="2">
	<advance width="530"/>
	<unicode hex="00A7"/>
	<outline>
		<contour>
			<point x="280" y="192" type="line"/>
			<point x="330" y="192"/>
			<point x="461" y="208"/>
			<point x="483" y="318" type="curve" smooth="yes"/>
			<point x="510" y="458"/>
			<point x="221" y="458"/>
			<point x="238" y="548" type="curve" smooth="yes"/>
			<point x="244" y="578"/>
			<point x="269" y="603"/>
			<point x="309" y="603" type="curve" smooth="yes"/>
			<point x="349" y="603"/>
			<point x="371" y="559"/>
			<point x="364" y="524" type="curve"/>
			<point x="514" y="534" type="line"/>
			<point x="532" y="628"/>
			<point x="461" y="716"/>
			<point x="331" y="716" type="curve" smooth="yes"/>
			<point x="201" y="716"/>
			<point x="108" y="638"/>
			<point x="90" y="548" type="curve" smooth="yes"/>
			<point x="52" y="348"/>
			<point x="352" y="408"/>
			<point x="331" y="298" type="curve" smooth="yes"/>
			<point x="321" y="248"/>
			<point x="262" y="245"/>
			<point x="212" y="245" type="curve"/>
		</contour>
		<contour>
			<point x="184" y="-84" type="curve" smooth="yes"/>
			<point x="314" y="-84"/>
			<point x="407" y="-6"/>
			<point x="424" y="84" type="curve" smooth="yes"/>
			<point x="463" y="284"/>
			<point x="163" y="224"/>
			<point x="184" y="334" type="curve" smooth="yes"/>
			<point x="194" y="384"/>
			<point x="253" y="387"/>
			<point x="303" y="387" type="curve"/>
			<point x="234" y="440" type="line"/>
			<point x="184" y="440"/>
			<point x="53" y="424"/>
			<point x="32" y="314" type="curve" smooth="yes"/>
			<point x="5" y="174"/>
			<point x="294" y="174"/>
			<point x="276" y="84" type="curve" smooth="yes"/>
			<point x="270" y="54"/>
			<point x="246" y="29"/>
			<point x="206" y="29" type="curve" smooth="yes"/>
			<point x="166" y="29"/>
			<point x="144" y="73"/>
			<point x="151" y="108" type="curve"/>
			<point x="1" y="98" type="line"/>
			<point x="-17" y="4"/>
			<point x="54" y="-84"/>
		</contour>
	</outline>
</glyph>
<glyph name="dieresis" format="2">
	<advance width="601"/>
	<unicode hex="00A8"/>
	<outline>
		<contour>
			<point x="373" y="570" type="line"/>
			<point x="503" y="570" type="line"/>
			<point x="526" y="690" type="line"/>
			<point x="396" y="690" type="line"/>
		</contour>
		<contour>
			<point x="183" y="570" type="line"/>
			<point x="313" y="570" type="line"/>
			<point x="336" y="690" type="line"/>
			<point x="206" y="690" type="line"/>
		</contour>
	</outline>
</glyph>
<glyph name="copyright" format="2">
	<advance width="815"/>
	<unicode hex="00A9"/>
	<outline>
		<contour>
			<point x="381" y="147" type="curve" smooth="yes"/>
			<point x="474" y="147"/>
			<point x="563" y="198"/>
			<point x="593" y="301" type="curve"/>
			<point x="477" y="301" type="line"/>
			<point x="459" y="268"/>
			<point x="434" y="239"/>
			<point x="390" y="239" type="curve" smooth="yes"/>
			<point x="339" y="239"/>
			<point x="316" y="274"/>
			<point x="331" y="348" type="curve" smooth="yes"/>
			<point x="344" y="416"/>
			<point x="383" y="461"/>
			<point x="434" y="461" type="curve" smooth="yes"/>
			<point x="484" y="461"/>
			<point x="491" y="431"/>
			<point x="490" y="394" type="curve"/>
			<point x="608" y="394" type="line"/>
			<point x="618" y="485"/>
			<point x="551" y="554"/>
			<point x="443" y="554" type="curve" smooth="yes"/>
			<point x="336" y="554"/>
			<point x="239" y="489"/>
			<point x="215" y="364" type="curve" smooth="yes"/>
			<point x="190" y="236"/>
			<point x="281" y="147"/>
		</contour>
		<component base="whiteCircle" xOffset="-30"/>
	</outline>
</glyph>
<glyph name="logicalnot" format="2">
	<advance width="682"/>
	<unicode hex="00AC"/>
	<outline>
		<contour>
			<point x="71" y="250" type="line"/>
			<point x="572" y="250" type="line"/>
			<point x="592" y="356" type="line"/>
			<point x="91" y="356" type="line"/>
		</contour>
		<contour>
			<point x="428" y="56" type="line"/>
			<point x="534" y="56" type="line"/>
			<point x="579" y="290" type="line"/>
			<point x="473" y="290" type="line"/>
		</contour>
	</outline>
</glyph>
<glyph name="registered" format="2">
	<advance width="510"/>
	<unicode hex="00AE"/>
	<outline>
		<contour>
			<point x="243" y="286" type="curve" smooth="yes"/>
			<point x="363" y="286"/>
			<point x="476" y="381"/>
			<point x="499" y="501" type="curve" smooth="yes"/>
			<point x="523" y="621"/>
			<point x="446" y="716"/>
			<point x="326" y="716" type="curve" smooth="yes"/>
			<point x="207" y="716"/>
			<point x="93" y="621"/>
			<point x="69" y="501" type="curve" smooth="yes"/>
			<point x="46" y="381"/>
			<point x="124" y="286"/>
		</contour>
		<contour>
			<point x="251" y="327" type="curve" smooth="yes"/>
			<point x="153" y="327"/>
			<point x="91" y="403"/>
			<point x="110" y="501" type="curve" smooth="yes"/>
			<point x="130" y="600"/>
			<point x="220" y="675"/>
			<point x="318" y="675" type="curve" smooth="yes"/>
			<point x="418" y="675"/>
			<point x="478" y="600"/>
			<point x="458" y="501" type="curve" smooth="yes"/>
			<point x="439" y="403"/>
			<point x="351" y="327"/>
		</contour>
		<contour>
			<point x="184" y="393" type="line"/>
			<point x="235" y="393" type="line"/>
			<point x="251" y="471" type="line"/>
			<point x="277" y="471" type="line" smooth="yes"/>
			<point x="308" y="471"/>
			<point x="309" y="466"/>
			<point x="305" y="442" type="curve" smooth="yes"/>
			<point x="298" y="393" type="line"/>
			<point x="350" y="393" type="line"/>
			<point x="356" y="438" type="line" smooth="yes"/>
			<point x="363" y="493"/>
			<point x="350" y="493"/>
			<point x="289" y="493" type="curve"/>
			<point x="288" y="491" type="line"/>
			<point x="319" y="490"/>
			<point x="366" y="491"/>
			<point x="376" y="541" type="curve" smooth="yes"/>
			<point x="385" y="586"/>
			<point x="354" y="611"/>
			<point x="304" y="611" type="curve" smooth="yes"/>
			<point x="227" y="611" type="line"/>
		</contour>
		<contour>
			<point x="259" y="515" type="line"/>
			<point x="269" y="567" type="line"/>
			<point x="295" y="567" type="line" smooth="yes"/>
			<point x="318" y="567"/>
			<point x="329" y="559"/>
			<point x="325" y="541" type="curve" smooth="yes"/>
			<point x="322" y="523"/>
			<point x="308" y="515"/>
			<point x="285" y="515" type="curve" smooth="yes"/>
		</contour>
	</outline>
</glyph>
<glyph name="macron" format="2">
	<advance width="632"/>
	<unicode hex="00AF"/>
	<outline>
		<contour>
			<point x="182" y="570" type="line"/>
			<point x="534" y="570" type="line"/>
			<point x="554" y="673" type="line"/>
			<point x="202" y="673" type="line"/>
		</contour>
	</outline>
</glyph>
<glyph name="degree" format="2">
	<advance width="402"/>
	<unicode hex="00B0"/>
	<outline>
		<contour>
			<point x="227" y="392" type="curve"/>
			<point x="319" y="392"/>
			<point x="403" y="470"/>
			<point x="412" y="562" type="curve"/>
			<point x="420" y="654"/>
			<point x="348" y="732"/>
			<point x="256" y="732" type="curve"/>
			<point x="164" y="732"/>
			<point x="80" y="654"/>
			<point x="72" y="562" type="curve"/>
			<point x="63" y="470"/>
			<point x="135" y="392"/>
		</contour>
		<contour>
			<point x="236" y="500" type="curve"/>
			<point x="198" y="500"/>
			<point x="176" y="524"/>
			<point x="180" y="562" type="curve"/>
			<point x="183" y="600"/>
			<point x="209" y="624"/>
			<point x="247" y="624" type="curve"/>
			<point x="285" y="624"/>
			<point x="307" y="600"/>
			<point x="304" y="562" type="curve"/>
			<point x="300" y="524"/>
			<point x="274" y="500"/>
		</contour>
	</outline>
</glyph>
<glyph name="plusminus" format="2">
	<advance width="620"/>
	<unicode hex="00B1"/>
	<outline>
		<contour>
			<point x="218" y="170" type="line"/>
			<point x="331" y="170" type="line"/>
			<point x="424" y="649" type="line"/>
			<point x="311" y="649" type="line"/>
		</contour>
		<contour>
			<point x="2" y="-1" type="line"/>
			<point x="481" y="-1" type="line"/>
			<point x="503" y="112" type="line"/>
			<point x="24" y="112" type="line"/>
		</contour>
		<contour>
			<point x="70" y="352" type="line"/>
			<point x="549" y="352" type="line"/>
			<point x="571" y="465" type="line"/>
			<point x="92" y="465" type="line"/>
		</contour>
	</outline>
</glyph>
<glyph name="acute" format="2">
	<advance width="459"/>
	<unicode hex="00B4"/>
	<outline>
		<contour>
			<point x="184" y="580" type="line"/>
			<point x="274" y="580" type="line"/>
			<point x="390" y="720" type="line"/>
			<point x="252" y="720" type="line"/>
		</contour>
	</outline>
</glyph>
<glyph name="paragraph" format="2">
	<advance width="759"/>
	<unicode hex="00B6"/>
	<outline>
		<contour>
			<point x="294" y="268" type="curve" smooth="yes"/>
			<point x="378" y="268" type="line"/>
			<point x="400" y="381" type="line"/>
			<point x="316" y="381" type="line" smooth="yes"/>
			<point x="236" y="381"/>
			<point x="187" y="406"/>
			<point x="203" y="484" type="curve" smooth="yes"/>
			<point x="219" y="562"/>
			<point x="276" y="587"/>
			<point x="356" y="587" type="curve" smooth="yes"/>
			<point x="754" y="587" type="line"/>
			<point x="776" y="700" type="line"/>
			<point x="378" y="700" type="line" smooth="yes"/>
			<point x="218" y="700"/>
			<point x="95" y="641"/>
			<point x="65" y="484" type="curve" smooth="yes"/>
			<point x="40" y="356"/>
			<point x="134" y="268"/>
		</contour>
		<contour>
			<point x="250" y="-70" type="line"/>
			<point x="368" y="-70" type="line"/>
			<point x="518" y="700" type="line"/>
			<point x="400" y="700" type="line"/>
		</contour>
		<contour>
			<point x="428" y="-70" type="line"/>
			<point x="546" y="-70" type="line"/>
			<point x="696" y="700" type="line"/>
			<point x="578" y="700" type="line"/>
		</contour>
	</outline>
</glyph>
<glyph name="periodcentered" format="2">
	<advance width="281"/>
	<unicode hex="00B7"/>
	<outline>
		<contour>
			<point x="55" y="275" type="line"/>
			<point x="195" y="275" type="line"/>
			<point x="225" y="425" type="line"/>
			<point x="85" y="425" type="line"/>
		</contour>
	</outline>
</glyph>
<glyph name="cedilla" format="2">
	<advance width="498"/>
	<unicode hex="00B8"/>
	<outline>
		<contour>
			<point x="138" y="-216" type="curve" smooth="yes"/>
			<point x="198" y="-216"/>
			<point x="254" y="-187"/>
			<point x="265" y="-127" type="curve" smooth="yes"/>
			<point x="277" y="-67"/>
			<point x="242" y="-39"/>
			<point x="192" y="-39" type="curve" smooth="yes"/>
			<point x="154" y="-39"/>
			<point x="114" y="-79"/>
			<point x="111" y="-94" type="curve"/>
			<point x="137" y="-103" type="line"/>
			<point x="141" y="-99"/>
			<point x="152" y="-94"/>
			<point x="162" y="-94" type="curve" smooth="yes"/>
			<point x="182" y="-94"/>
			<point x="193" y="-107"/>
			<point x="190" y="-122" type="curve" smooth="yes"/>
			<point x="187" y="-142"/>
			<point x="169" y="-151"/>
			<point x="149" y="-151" type="curve" smooth="yes"/>
			<point x="129" y="-151"/>
			<point x="118" y="-137"/>
			<point x="120" y="-127" type="curve"/>
			<point x="45" y="-137" type="line"/>
			<point x="37" y="-182"/>
			<point x="78" y="-216"/>
		</contour>
		<contour>
			<point x="137" y="-103" type="line"/>
			<point x="223" y="25" type="line"/>
			<point x="161" y="25" type="line"/>
			<point x="81" y="-84" type="line"/>
		</contour>
	</outline>
</glyph>
<glyph name="AE" format="2">
	<advance width="871"/>
	<unicode hex="00C6"/>
	<outline>
		<contour>
			<point x="461" y="587" type="line"/>
			<point x="871" y="587" type="line"/>
			<point x="893" y="700" type="line"/>
			<point x="483" y="700" type="line"/>
		</contour>
		<component base="A"/>
		<contour>
			<point x="498" y="0" type="line"/>
			<point x="757" y="0" type="line"/>
			<point x="779" y="113" type="line"/>
			<point x="520" y="113" type="line"/>
		</contour>
		<contour>
			<point x="487" y="307" type="line"/>
			<point x="757" y="307" type="line"/>
			<point x="779" y="420" type="line"/>
			<point x="509" y="420" type="line"/>
		</contour>
	</outline>
</glyph>
<glyph name="Eth" format="2">
	<advance width="693"/>
	<unicode hex="00D0"/>
	<outline>
		<contour>
			<point x="-4" y="305" type="line"/>
			<point x="316" y="305" type="line"/>
			<point x="334" y="395" type="line"/>
			<point x="14" y="395" type="line"/>
		</contour>
		<component base="D" xOffset="-5"/>
	</outline>
</glyph>
<glyph name="Oslash" format="2">
	<advance width="766"/>
	<unicode hex="00D8"/>
	<outline>
		<contour>
			<point x="-81" y="-66" type="line"/>
			<point x="38" y="-66" type="line"/>
			<point x="846" y="765" type="line"/>
			<point x="727" y="765" type="line"/>
		</contour>
		<component base="O" xOffset="-19"/>
	</outline>
</glyph>
<glyph name="Thorn" format="2">
	<advance width="636"/>
	<unicode hex="00DE"/>
	<outline>
		<contour>
			<point x="65" y="134" type="line"/>
			<point x="272" y="134" type="line" smooth="yes"/>
			<point x="432" y="134"/>
			<point x="555" y="193"/>
			<point x="585" y="350" type="curve" smooth="yes"/>
			<point x="610" y="478"/>
			<point x="516" y="566"/>
			<point x="356" y="566" type="curve" smooth="yes"/>
			<point x="149" y="566" type="line"/>
			<point x="127" y="453" type="line"/>
			<point x="334" y="453" type="line" smooth="yes"/>
			<point x="414" y="453"/>
			<point x="463" y="428"/>
			<point x="447" y="350" type="curve" smooth="yes"/>
			<point x="431" y="272"/>
			<point x="374" y="247"/>
			<point x="294" y="247" type="curve" smooth="yes"/>
			<point x="87" y="247" type="line"/>
		</contour>
		<contour>
			<point x="6" y="0" type="line"/>
			<point x="144" y="0" type="line"/>
			<point x="280" y="700" type="line"/>
			<point x="142" y="700" type="line"/>
		</contour>
	</outline>
</glyph>
<glyph name="germandbls" format="2">
	<advance width="616"/>
	<unicode hex="00DF"/>
	<outline>
		<contour>
			<point x="211" y="0" type="line"/>
			<point x="261" y="0" type="line" smooth="yes"/>
			<point x="421" y="0"/>
			<point x="525" y="61"/>
			<point x="550" y="191" type="curve" smooth="yes"/>
			<point x="575" y="319"/>
			<point x="501" y="377"/>
			<point x="371" y="377" type="curve"/>
			<point x="368" y="361" type="line"/>
			<point x="478" y="361"/>
			<point x="561" y="423"/>
			<point x="581" y="523" type="curve" smooth="yes"/>
			<point x="600" y="621"/>
			<point x="530" y="716"/>
			<point x="380" y="716" type="curve" smooth="yes"/>
			<point x="240" y="716"/>
			<point x="121" y="640"/>
			<point x="90" y="480" type="curve"/>
			<point x="225" y="480" type="line"/>
			<point x="241" y="560"/>
			<point x="293" y="603"/>
			<point x="363" y="603" type="curve" smooth="yes"/>
			<point x="423" y="603"/>
			<point x="450" y="563"/>
			<point x="441" y="513" type="curve" smooth="yes"/>
			<point x="431" y="463"/>
			<point x="393" y="422"/>
			<point x="313" y="422" type="curve" smooth="yes"/>
			<point x="293" y="422" type="line"/>
			<point x="270" y="306" type="line"/>
			<point x="330" y="306" type="line" smooth="yes"/>
			<point x="390" y="306"/>
			<point x="430" y="281"/>
			<point x="416" y="211" type="curve" smooth="yes"/>
			<point x="402" y="141"/>
			<point x="354" y="116"/>
			<point x="294" y="116" type="curve" smooth="yes"/>
			<point x="234" y="116" type="line"/>
		</contour>
		<contour>
			<point x="-3" y="0" type="line"/>
			<point x="132" y="0" type="line"/>
			<point x="225" y="480" type="line"/>
			<point x="90" y="480" type="line"/>
		</contour>
	</outline>
</glyph>
<glyph name="ae" format="2">
	<advance width="913"/>
	<unicode hex="00E6"/>
	<outline>
		<contour>
			<point x="586" y="-16" type="curve" smooth="yes"/>
			<point x="706" y="-16"/>
			<point x="807" y="58"/>
			<point x="838" y="147" type="curve"/>
			<point x="703" y="157" type="line"/>
			<point x="687" y="129"/>
			<point x="658" y="97"/>
			<point x="588" y="97" type="curve" smooth="yes"/>
			<point x="523" y="97"/>
			<point x="474" y="140"/>
			<point x="488" y="210" type="curve"/>
			<point x="850" y="210" type="line"/>
			<point x="857" y="248" type="line" smooth="yes"/>
			<point x="886" y="405"/>
			<point x="770" y="516"/>
			<point x="640" y="516" type="curve" smooth="yes"/>
			<point x="490" y="516"/>
			<point x="389" y="415"/>
			<point x="360" y="268" type="curve" smooth="yes"/>
			<point x="326" y="91"/>
			<point x="446" y="-16"/>
		</contour>
		<contour>
			<point x="200" y="97" type="curve" smooth="yes"/>
			<point x="150" y="97"/>
			<point x="133" y="120"/>
			<point x="139" y="150" type="curve" smooth="yes"/>
			<point x="145" y="179"/>
			<point x="171" y="198"/>
			<point x="231" y="205" type="curve" smooth="yes"/>
			<point x="313" y="215"/>
			<point x="370" y="218"/>
			<point x="394" y="338" type="curve"/>
			<point x="370" y="318" type="line"/>
			<point x="355" y="243" type="line" smooth="yes"/>
			<point x="334" y="140"/>
			<point x="270" y="97"/>
		</contour>
		<contour>
			<point x="158" y="-16" type="curve" smooth="yes"/>
			<point x="288" y="-16"/>
			<point x="402" y="65"/>
			<point x="443" y="240" type="curve"/>
			<point x="499" y="291" type="line"/>
			<point x="527" y="438"/>
			<point x="450" y="516"/>
			<point x="310" y="516" type="curve" smooth="yes"/>
			<point x="180" y="516"/>
			<point x="75" y="460"/>
			<point x="51" y="332" type="curve"/>
			<point x="183" y="322" type="line"/>
			<point x="194" y="382"/>
			<point x="238" y="403"/>
			<point x="298" y="403" type="curve" smooth="yes"/>
			<point x="348" y="403"/>
			<point x="374" y="385"/>
			<point x="375" y="357" type="curve" smooth="yes"/>
			<point x="377" y="318"/>
			<point x="340" y="301"/>
			<point x="280" y="298" type="curve" smooth="yes"/>
			<point x="159" y="291"/>
			<point x="24" y="270"/>
			<point x="1" y="150" type="curve" smooth="yes"/>
			<point x="-22" y="29"/>
			<point x="68" y="-16"/>
		</contour>
		<contour>
			<point x="507" y="308" type="line"/>
			<point x="518" y="367"/>
			<point x="578" y="403"/>
			<point x="628" y="403" type="curve" smooth="yes"/>
			<point x="698" y="403"/>
			<point x="741" y="367"/>
			<point x="730" y="308" type="curve"/>
		</contour>
	</outline>
</glyph>
<glyph name="eth" format="2">
	<advance width="610"/>
	<unicode hex="00F0"/>
	<outline>
		<contour>
			<point x="241" y="-16" type="curve" smooth="yes"/>
			<point x="381" y="-15"/>
			<point x="507" y="74"/>
			<point x="546" y="280" type="curve" smooth="yes"/>
			<point x="609" y="600"/>
			<point x="438" y="715"/>
			<point x="238" y="715" type="curve"/>
			<point x="217" y="605" type="line"/>
			<point x="387" y="605"/>
			<point x="481" y="529"/>
			<point x="442" y="329" type="curve"/>
			<point x="462" y="276" type="line"/>
			<point x="475" y="385"/>
			<point x="395" y="465"/>
			<point x="285" y="465" type="curve" smooth="yes"/>
			<point x="150" y="465"/>
			<point x="37" y="366"/>
			<point x="12" y="234" type="curve" smooth="yes"/>
			<point x="-13" y="106"/>
			<point x="81" y="-17"/>
		</contour>
		<contour>
			<point x="247" y="98" type="curve" smooth="yes"/>
			<point x="179" y="98"/>
			<point x="135" y="156"/>
			<point x="149" y="226" type="curve" smooth="yes"/>
			<point x="162" y="295"/>
			<point x="213" y="351"/>
			<point x="295" y="351" type="curve" smooth="yes"/>
			<point x="363" y="351"/>
			<point x="410" y="295"/>
			<point x="396" y="226" type="curve" smooth="yes"/>
			<point x="383" y="156"/>
			<point x="329" y="98"/>
		</contour>
		<contour>
			<point x="239" y="483" type="line"/>
			<point x="585" y="631" type="line"/>
			<point x="569" y="685" type="line"/>
			<point x="223" y="537" type="line"/>
		</contour>
	</outline>
</glyph>
<glyph name="divide" format="2">
	<advance width="619"/>
	<unicode hex="00F7"/>
	<outline>
		<contour>
			<point x="48" y="239" type="line"/>
			<point x="527" y="239" type="line"/>
			<point x="549" y="352" type="line"/>
			<point x="70" y="352" type="line"/>
		</contour>
		<contour>
			<point x="250" y="39" type="curve" smooth="yes"/>
			<point x="288" y="39"/>
			<point x="326" y="71"/>
			<point x="333" y="109" type="curve" smooth="yes"/>
			<point x="341" y="147"/>
			<point x="315" y="179"/>
			<point x="277" y="179" type="curve" smooth="yes"/>
			<point x="239" y="179"/>
			<point x="201" y="147"/>
			<point x="193" y="109" type="curve" smooth="yes"/>
			<point x="186" y="71"/>
			<point x="212" y="39"/>
		</contour>
		<contour>
			<point x="322" y="412" type="curve" smooth="yes"/>
			<point x="360" y="412"/>
			<point x="398" y="444"/>
			<point x="406" y="482" type="curve" smooth="yes"/>
			<point x="413" y="520"/>
			<point x="387" y="552"/>
			<point x="349" y="552" type="curve" smooth="yes"/>
			<point x="311" y="552"/>
			<point x="273" y="520"/>
			<point x="266" y="482" type="curve" smooth="yes"/>
			<point x="258" y="444"/>
			<point x="284" y="412"/>
		</contour>
	</outline>
</glyph>
<glyph name="oslash" format="2">
	<advance width="569"/>
	<unicode hex="00F8"/>
	<outline>
		<contour>
			<point x="-81" y="-66" type="line"/>
			<point x="18" y="-66" type="line"/>
			<point x="605" y="566" type="line"/>
			<point x="506" y="566" type="line"/>
		</contour>
		<component base="o" xOffset="-14"/>
	</outline>
</glyph>
<glyph name="thorn" format="2">
	<advance width="622"/>
	<unicode hex="00FE"/>
	<outline>
		<contour>
			<point x="-42" y="-200" type="line"/>
			<point x="93" y="-200" type="line"/>
			<point x="268" y="700" type="line"/>
			<point x="133" y="700" type="line"/>
		</contour>
		<contour>
			<point x="303" y="-16" type="curve" smooth="yes"/>
			<point x="433" y="-16"/>
			<point x="538" y="103"/>
			<point x="567" y="250" type="curve" smooth="yes"/>
			<point x="595" y="397"/>
			<point x="526" y="516"/>
			<point x="396" y="516" type="curve" smooth="yes"/>
			<point x="256" y="516"/>
			<point x="195" y="408"/>
			<point x="173" y="290" type="curve" smooth="yes"/>
			<point x="158" y="210" type="line" smooth="yes"/>
			<point x="136" y="92"/>
			<point x="163" y="-16"/>
		</contour>
		<contour>
			<point x="275" y="97" type="curve" smooth="yes"/>
			<point x="215" y="97"/>
			<point x="159" y="140"/>
			<point x="181" y="250" type="curve" smooth="yes"/>
			<point x="202" y="360"/>
			<point x="274" y="403"/>
			<point x="334" y="403" type="curve" smooth="yes"/>
			<point x="394" y="403"/>
			<point x="450" y="360"/>
			<point x="429" y="250" type="curve" smooth="yes"/>
			<point x="407" y="140"/>
			<point x="335" y="97"/>
		</contour>
	</outline>
</glyph>
<glyph name="Dcroat" format="2">
	<advance width="713"/>
	<unicode hex="0110"/>
	<outline>
		<contour>
			<point x="-4" y="305" type="line"/>
			<point x="316" y="305" type="line"/>
			<point x="334" y="395" type="line"/>
			<point x="14" y="395" type="line"/>
		</contour>
		<component base="D" xOffset="15"/>
	</outline>
</glyph>
<glyph name="dcroat" format="2">
	<advance width="626"/>
	<unicode hex="0111"/>
	<outline>
		<contour>
			<point x="305" y="568" type="line"/>
			<point x="693" y="568" type="line"/>
			<point x="705" y="630" type="line"/>
			<point x="317" y="630" type="line"/>
		</contour>
		<component base="d"/>
	</outline>
</glyph>
<glyph name="Hbar" format="2">
	<advance width="676"/>
	<unicode hex="0126"/>
	<outline>
		<contour>
			<point x="42" y="520" type="line"/>
			<point x="698" y="520" type="line"/>
			<point x="714" y="600" type="line"/>
			<point x="58" y="600" type="line"/>
		</contour>
		<component base="H" xOffset="-16"/>
	</outline>
</glyph>
<glyph name="hbar" format="2">
	<advance width="592"/>
	<unicode hex="0127"/>
	<outline>
		<contour>
			<point x="17" y="568" type="line"/>
			<point x="405" y="568" type="line"/>
			<point x="417" y="630" type="line"/>
			<point x="29" y="630" type="line"/>
		</contour>
		<component base="h" xOffset="5"/>
	</outline>
</glyph>
<glyph name="ibreve" format="2">
	<advance width="198"/>
	<unicode hex="012D"/>
	<outline>
		<contour>
			<point x="143" y="580" type="curve" smooth="yes"/>
			<point x="261" y="580"/>
			<point x="305" y="672"/>
			<point x="320" y="750" type="curve"/>
			<point x="207" y="750" type="line"/>
			<point x="198" y="707"/>
			<point x="188" y="684"/>
			<point x="163" y="684" type="curve" smooth="yes"/>
			<point x="138" y="684"/>
			<point x="136" y="707"/>
			<point x="145" y="750" type="curve"/>
			<point x="32" y="750" type="line"/>
			<point x="17" y="673"/>
			<point x="24" y="580"/>
		</contour>
		<component base="idotless" xOffset="-34"/>
	</outline>
</glyph>
<glyph name="Lslash" format="2">
	<advance width="553"/>
	<unicode hex="0141"/>
	<outline>
		<contour>
			<point x="-30" y="225" type="line"/>
			<point x="358" y="373" type="line"/>
			<point x="378" y="475" type="line"/>
			<point x="-10" y="327" type="line"/>
		</contour>
		<component base="L" xOffset="5"/>
	</outline>
</glyph>
<glyph name="lslash" format="2">
	<advance width="351"/>
	<unicode hex="0142"/>
	<outline>
		<component base="l" xOffset="43"/>
		<contour>
			<point x="13" y="237" type="line"/>
			<point x="319" y="369" type="line"/>
			<point x="339" y="473" type="line"/>
			<point x="33" y="341" type="line"/>
		</contour>
	</outline>
</glyph>
<glyph name="Eng" format="2">
	<advance width="746"/>
	<unicode hex="014A"/>
	<outline>
		<contour>
			<point x="278" y="-200" type="line"/>
			<point x="413" y="-200" type="line" smooth="yes"/>
			<point x="503" y="-200"/>
			<point x="572" y="-155"/>
			<point x="589" y="-67" type="curve" smooth="yes"/>
			<point x="602" y="0" type="line"/>
			<point x="467" y="0" type="line"/>
			<point x="462" y="-27" type="line" smooth="yes"/>
			<point x="454" y="-67"/>
			<point x="440" y="-87"/>
			<point x="400" y="-87" type="curve" smooth="yes"/>
			<point x="300" y="-87" type="line"/>
		</contour>
		<component base="N"/>
	</outline>
</glyph>
<glyph name="eng" format="2">
	<advance width="594"/>
	<unicode hex="014B"/>
	<outline>
		<contour>
			<point x="136" y="-200" type="line"/>
			<point x="271" y="-200" type="line" smooth="yes"/>
			<point x="361" y="-200"/>
			<point x="430" y="-155"/>
			<point x="447" y="-67" type="curve" smooth="yes"/>
			<point x="460" y="0" type="line"/>
			<point x="325" y="0" type="line"/>
			<point x="320" y="-27" type="line" smooth="yes"/>
			<point x="312" y="-67"/>
			<point x="298" y="-87"/>
			<point x="258" y="-87" type="curve" smooth="yes"/>
			<point x="158" y="-87" type="line"/>
		</contour>
		<component base="n"/>
	</outline>
</glyph>
<glyph name="Tbar" format="2">
	<advance width="659"/>
	<unicode hex="0166"/>
	<outline>
		<contour>
			<point x="140" y="305" type="line"/>
			<point x="500" y="305" type="line"/>
			<point x="518" y="395" type="line"/>
			<point x="158" y="395" type="line"/>
		</contour>
		<component base="T"/>
	</outline>
</glyph>
<glyph name="tbar" format="2">
	<advance width="419"/>
	<unicode hex="0167"/>
	<outline>
		<contour>
			<point x="-20" y="220" type="line"/>
			<point x="373" y="220" type="line"/>
			<point x="390" y="310" type="line"/>
			<point x="-3" y="310" type="line"/>
		</contour>
		<component base="t"/>
	</outline>
</glyph>
<glyph name="florin" format="2">
	<advance width="488"/>
	<unicode hex="0192"/>
	<outline>
		<contour>
			<point x="-111" y="-216" type="line"/>
			<point x="9" y="-216" type="line" smooth="yes"/>
			<point x="119" y="-216"/>
			<point x="163" y="-168"/>
			<point x="200" y="-44" type="curve" smooth="yes"/>
			<point x="382" y="556" type="line" smooth="yes"/>
			<point x="391" y="586"/>
			<point x="405" y="597"/>
			<point x="435" y="597" type="curve" smooth="yes"/>
			<point x="515" y="597" type="line"/>
			<point x="537" y="710" type="line"/>
			<point x="417" y="710" type="line" smooth="yes"/>
			<point x="307" y="710"/>
			<point x="263" y="662"/>
			<point x="226" y="538" type="curve" smooth="yes"/>
			<point x="44" y="-62" type="line" smooth="yes"/>
			<point x="35" y="-92"/>
			<point x="21" y="-103"/>
			<point x="-9" y="-103" type="curve" smooth="yes"/>
			<point x="-89" y="-103" type="line"/>
		</contour>
		<contour>
			<point x="68" y="327" type="line"/>
			<point x="426" y="327" type="line"/>
			<point x="447" y="440" type="line"/>
			<point x="89" y="440" type="line"/>
		</contour>
	</outline>
</glyph>
<glyph name="jdotless" format="2">
	<advance width="301"/>
	<unicode hex="0237"/>
	<outline>
		<contour>
			<point x="-157" y="-200" type="line"/>
			<point x="-22" y="-200" type="line" smooth="yes"/>
			<point x="68" y="-200"/>
			<point x="137" y="-155"/>
			<point x="154" y="-67" type="curve" smooth="yes"/>
			<point x="264" y="500" type="line"/>
			<point x="129" y="500" type="line"/>
			<point x="27" y="-27" type="line" smooth="yes"/>
			<point x="19" y="-67"/>
			<point x="5" y="-87"/>
			<point x="-35" y="-87" type="curve" smooth="yes"/>
			<point x="-135" y="-87" type="line"/>
		</contour>
	</outline>
</glyph>
<glyph name="circumflex" format="2">
	<advance width="648"/>
	<unicode hex="02C6"/>
	<outline>
		<contour>
			<point x="184" y="580" type="line"/>
			<point x="312" y="580" type="line"/>
			<point x="391" y="680" type="line"/>
			<point x="432" y="580" type="line"/>
			<point x="552" y="580" type="line"/>
			<point x="497" y="720" type="line"/>
			<point x="293" y="720" type="line"/>
		</contour>
	</outline>
</glyph>
<glyph name="caron" format="2">
	<advance width="648"/>
	<unicode hex="02C7"/>
	<outline>
		<contour>
			<point x="268" y="590" type="line"/>
			<point x="472" y="590" type="line"/>
			<point x="581" y="730" type="line"/>
			<point x="453" y="730" type="line"/>
			<point x="373" y="630" type="line"/>
			<point x="333" y="730" type="line"/>
			<point x="213" y="730" type="line"/>
		</contour>
	</outline>
</glyph>
<glyph name="breve" format="2">
	<advance width="620"/>
	<unicode hex="02D8"/>
	<outline>
		<contour>
			<point x="364" y="580" type="curve" smooth="yes"/>
			<point x="456" y="580"/>
			<point x="537" y="650"/>
			<point x="557" y="750" type="curve"/>
			<point x="462" y="750" type="line"/>
			<point x="453" y="705"/>
			<point x="412" y="675"/>
			<point x="372" y="675" type="curve" smooth="yes"/>
			<point x="332" y="675"/>
			<point x="311" y="705"/>
			<point x="312" y="750" type="curve"/>
			<point x="217" y="750" type="line"/>
			<point x="197" y="650"/>
			<point x="269" y="580"/>
		</contour>
	</outline>
</glyph>
<glyph name="dotaccent" format="2">
	<advance width="440"/>
	<unicode hex="02D9"/>
	<outline>
		<contour>
			<point x="182" y="570" type="line"/>
			<point x="342" y="570" type="line"/>
			<point x="367" y="700" type="line"/>
			<point x="207" y="700" type="line"/>
		</contour>
	</outline>
</glyph>
<glyph name="ring" format="2">
	<advance width="519"/>
	<unicode hex="02DA"/>
	<outline>
		<contour>
			<point x="314" y="572" type="curve" smooth="yes"/>
			<point x="378" y="572"/>
			<point x="438" y="627"/>
			<point x="444" y="691" type="curve" smooth="yes"/>
			<point x="449" y="755"/>
			<point x="399" y="810"/>
			<point x="335" y="810" type="curve" smooth="yes"/>
			<point x="271" y="810"/>
			<point x="211" y="755"/>
			<point x="206" y="691" type="curve" smooth="yes"/>
			<point x="200" y="627"/>
			<point x="250" y="572"/>
		</contour>
		<contour>
			<point x="321" y="648" type="curve" smooth="yes"/>
			<point x="296" y="648"/>
			<point x="280" y="666"/>
			<point x="282" y="691" type="curve" smooth="yes"/>
			<point x="284" y="716"/>
			<point x="304" y="734"/>
			<point x="329" y="734" type="curve" smooth="yes"/>
			<point x="354" y="734"/>
			<point x="370" y="716"/>
			<point x="368" y="691" type="curve" smooth="yes"/>
			<point x="366" y="666"/>
			<point x="346" y="648"/>
		</contour>
	</outline>
</glyph>
<glyph name="ogonek" format="2">
	<advance width="497"/>
	<unicode hex="02DB"/>
	<outline>
		<contour>
			<point x="135" y="-178" type="curve" smooth="yes"/>
			<point x="210" y="-178"/>
			<point x="264" y="-123"/>
			<point x="274" y="-73" type="curve"/>
			<point x="199" y="-63" type="line"/>
			<point x="197" y="-73"/>
			<point x="182" y="-93"/>
			<point x="162" y="-93" type="curve" smooth="yes"/>
			<point x="152" y="-93"/>
			<point x="139" y="-89"/>
			<point x="143" y="-69" type="curve" smooth="yes"/>
			<point x="148" y="-39"/>
			<point x="199" y="-13"/>
			<point x="240" y="0" type="curve"/>
			<point x="155" y="0" type="line"/>
			<point x="95" y="-18"/>
			<point x="59" y="-59"/>
			<point x="52" y="-99" type="curve" smooth="yes"/>
			<point x="42" y="-148"/>
			<point x="76" y="-178"/>
		</contour>
	</outline>
</glyph>
<glyph name="tilde" format="2">
	<advance width="699"/>
	<unicode hex="02DC"/>
	<outline>
		<contour>
			<point x="296" y="580" type="line"/>
			<point x="303" y="620"/>
			<point x="325" y="637"/>
			<point x="345" y="637" type="curve" smooth="yes"/>
			<point x="395" y="637"/>
			<point x="384" y="580"/>
			<point x="474" y="580" type="curve" smooth="yes"/>
			<point x="544" y="580"/>
			<point x="614" y="632"/>
			<point x="633" y="732" type="curve"/>
			<point x="523" y="742" type="line"/>
			<point x="515" y="702"/>
			<point x="494" y="684"/>
			<point x="474" y="684" type="curve" smooth="yes"/>
			<point x="424" y="684"/>
			<point x="436" y="744"/>
			<point x="345" y="742" type="curve" smooth="yes"/>
			<point x="275" y="740"/>
			<point x="205" y="690"/>
			<point x="186" y="590" type="curve"/>
		</contour>
	</outline>
</glyph>
<glyph name="commaaccentcomb" format="2">
	<advance width="440"/>
	<unicode hex="0326"/>
	<outline>
		<contour>
			<point x="16" y="-287" type="line"/>
			<point x="116" y="-287"/>
			<point x="182" y="-250"/>
			<point x="200" y="-160" type="curve"/>
			<point x="130" y="-160" type="line"/>
			<point x="122" y="-200"/>
			<point x="90" y="-214"/>
			<point x="30" y="-214" type="curve"/>
		</contour>
		<contour>
			<point x="50" y="-160" type="line"/>
			<point x="200" y="-160" type="line"/>
			<point x="219" y="-60" type="line"/>
			<point x="69" y="-60" type="line"/>
		</contour>
	</outline>
</glyph>
<glyph name="Delta" format="2">
	<advance width="794"/>
	<unicode hex="0394"/>
	<outline>
		<contour>
			<point x="11" y="0" type="line"/>
			<point x="645" y="0" type="line"/>
			<point x="534" y="700" type="line"/>
			<point x="404" y="700" type="line"/>
		</contour>
		<contour>
			<point x="179" y="70" type="line"/>
			<point x="522" y="679" type="line"/>
			<point x="417" y="679" type="line"/>
			<point x="515" y="70" type="line"/>
			<point x="554" y="113" type="line"/>
			<point x="147" y="113" type="line"/>
		</contour>
	</outline>
</glyph>
<glyph name="Omega" format="2">
	<advance width="831"/>
	<unicode hex="03A9"/>
	<outline>
		<contour>
			<point x="-28" y="0" type="line"/>
			<point x="292" y="0" type="line"/>
			<point x="312" y="104" type="line"/>
			<point x="203" y="183"/>
			<point x="189" y="294"/>
			<point x="209" y="394" type="curve" smooth="yes"/>
			<point x="232" y="514"/>
			<point x="328" y="623"/>
			<point x="468" y="623" type="curve" smooth="yes"/>
			<point x="608" y="623"/>
			<point x="662" y="514"/>
			<point x="639" y="394" type="curve" smooth="yes"/>
			<point x="619" y="294"/>
			<point x="564" y="183"/>
			<point x="422" y="104" type="curve"/>
			<point x="402" y="0" type="line"/>
			<point x="722" y="0" type="line"/>
			<point x="744" y="114" type="line"/>
			<point x="504" y="114" type="line"/>
			<point x="496" y="70" type="line"/>
			<point x="652" y="141"/>
			<point x="759" y="254"/>
			<point x="788" y="404" type="curve" smooth="yes"/>
			<point x="823" y="584"/>
			<point x="710" y="736"/>
			<point x="490" y="736" type="curve" smooth="yes"/>
			<point x="270" y="736"/>
			<point x="97" y="584"/>
			<point x="62" y="404" type="curve" smooth="yes"/>
			<point x="33" y="254"/>
			<point x="96" y="141"/>
			<point x="226" y="70" type="curve"/>
			<point x="234" y="114" type="line"/>
			<point x="-6" y="114" type="line"/>
		</contour>
	</outline>
</glyph>
<glyph name="mu" format="2">
	<advance width="594"/>
	<unicode hex="03BC"/>
	<outline>
		<contour>
			<point x="170" y="-16" type="curve" smooth="yes"/>
			<point x="280" y="-16"/>
			<point x="358" y="89"/>
			<point x="381" y="207" type="curve"/>
			<point x="375" y="257" type="line"/>
			<point x="353" y="146"/>
			<point x="293" y="97"/>
			<point x="233" y="97" type="curve" smooth="yes"/>
			<point x="193" y="97"/>
			<point x="157" y="128"/>
			<point x="170" y="197" type="curve" smooth="yes"/>
			<point x="229" y="500" type="line"/>
			<point x="94" y="500" type="line"/>
			<point x="32" y="181" type="line" smooth="yes"/>
			<point x="9" y="63"/>
			<point x="60" y="-16"/>
		</contour>
		<contour>
			<point x="-42" y="-200" type="line"/>
			<point x="93" y="-200" type="line"/>
			<point x="170" y="197" type="line"/>
			<point x="32" y="181" type="line"/>
		</contour>
		<contour>
			<point x="325" y="0" type="line"/>
			<point x="460" y="0" type="line"/>
			<point x="557" y="500" type="line"/>
			<point x="422" y="500" type="line"/>
		</contour>
	</outline>
</glyph>
<glyph name="pi" format="2">
	<advance width="741"/>
	<unicode hex="03C0"/>
	<outline>
		<contour>
			<point x="542" y="0" type="curve" smooth="yes"/>
			<point x="607" y="0" type="line"/>
			<point x="629" y="113" type="line"/>
			<point x="589" y="113" type="line" smooth="yes"/>
			<point x="549" y="113"/>
			<point x="533" y="133"/>
			<point x="541" y="173" type="curve" smooth="yes"/>
			<point x="604" y="500" type="line"/>
			<point x="469" y="500" type="line"/>
			<point x="403" y="160" type="line" smooth="yes"/>
			<point x="382" y="50"/>
			<point x="432" y="0"/>
		</contour>
		<contour>
			<point x="97" y="0" type="line"/>
			<point x="232" y="0" type="line"/>
			<point x="329" y="500" type="line"/>
			<point x="194" y="500" type="line"/>
		</contour>
		<contour>
			<point x="74" y="397" type="line"/>
			<point x="684" y="397" type="line"/>
			<point x="704" y="500" type="line"/>
			<point x="94" y="500" type="line"/>
		</contour>
	</outline>
</glyph>
<glyph name="Germandbls" format="2">
	<advance width="729"/>
	<unicode hex="1E9E"/>
	<outline>
		<contour>
			<point x="234" y="0" type="line"/>
			<point x="364" y="0" type="line" smooth="yes"/>
			<point x="524" y="0"/>
			<point x="619" y="64"/>
			<point x="643" y="192" type="curve" smooth="yes"/>
			<point x="666" y="310"/>
			<point x="573" y="407"/>
			<point x="433" y="407" type="curve"/>
			<point x="381" y="321" type="line"/>
			<point x="618" y="536" type="line" smooth="yes"/>
			<point x="700" y="610"/>
			<point x="672" y="700"/>
			<point x="582" y="700" type="curve" smooth="yes"/>
			<point x="172" y="700" type="line"/>
			<point x="150" y="587" type="line"/>
			<point x="520" y="587" type="line"/>
			<point x="323" y="406" type="line"/>
			<point x="303" y="306" type="line"/>
			<point x="383" y="306" type="line" smooth="yes"/>
			<point x="463" y="306"/>
			<point x="523" y="281"/>
			<point x="509" y="212" type="curve" smooth="yes"/>
			<point x="494" y="133"/>
			<point x="437" y="118"/>
			<point x="347" y="118" type="curve" smooth="yes"/>
			<point x="257" y="118" type="line"/>
		</contour>
		<contour>
			<point x="6" y="0" type="line"/>
			<point x="144" y="0" type="line"/>
			<point x="280" y="700" type="line"/>
			<point x="142" y="700" type="line"/>
		</contour>
	</outline>
</glyph>
<glyph name="endash" format="2">
	<advance width="665"/>
	<unicode hex="2013"/>
	<outline>
		<contour>
			<point x="48" y="239" type="line"/>
			<point x="573" y="239" type="line"/>
			<point x="595" y="352" type="line"/>
			<point x="70" y="352" type="line"/>
		</contour>
	</outline>
</glyph>
<glyph name="emdash" format="2">
	<advance width="865"/>
	<unicode hex="2014"/>
	<outline>
		<contour>
			<point x="48" y="239" type="line"/>
			<point x="773" y="239" type="line"/>
			<point x="795" y="352" type="line"/>
			<point x="70" y="352" type="line"/>
		</contour>
	</outline>
</glyph>
<glyph name="dagger" format="2">
	<advance width="423"/>
	<unicode hex="2020"/>
	<outline>
		<contour>
			<point x="133" y="216" type="line"/>
			<point x="236" y="216" type="line"/>
			<point x="333" y="716" type="line"/>
			<point x="230" y="716" type="line"/>
		</contour>
		<contour>
			<point x="61" y="513" type="line"/>
			<point x="424" y="513" type="line"/>
			<point x="440" y="596" type="line"/>
			<point x="77" y="596" type="line"/>
		</contour>
	</outline>
</glyph>
<glyph name="daggerdbl" format="2">
	<advance width="424"/>
	<unicode hex="2021"/>
	<outline>
		<contour>
			<point x="134" y="216" type="line"/>
			<point x="237" y="216" type="line"/>
			<point x="334" y="716" type="line"/>
			<point x="231" y="716" type="line"/>
		</contour>
		<contour>
			<point x="25" y="326" type="line"/>
			<point x="388" y="326" type="line"/>
			<point x="404" y="409" type="line"/>
			<point x="41" y="409" type="line"/>
		</contour>
		<contour>
			<point x="64" y="523" type="line"/>
			<point x="427" y="523" type="line"/>
			<point x="443" y="606" type="line"/>
			<point x="80" y="606" type="line"/>
		</contour>
	</outline>
</glyph>
<glyph name="bullet" format="2">
	<advance width="371"/>
	<unicode hex="2022"/>
	<outline>
		<contour>
			<point x="184" y="225" type="curve" smooth="yes"/>
			<point x="252" y="225"/>
			<point x="314" y="282"/>
			<point x="320" y="350" type="curve" smooth="yes"/>
			<point x="326" y="418"/>
			<point x="274" y="475"/>
			<point x="206" y="475" type="curve" smooth="yes"/>
			<point x="138" y="475"/>
			<point x="76" y="418"/>
			<point x="70" y="350" type="curve" smooth="yes"/>
			<point x="64" y="282"/>
			<point x="116" y="225"/>
		</contour>
	</outline>
</glyph>
<glyph name="guilsinglleft" format="2">
	<advance width="319"/>
	<unicode hex="2039"/>
	<outline>
		<contour>
			<point x="101" y="70" type="line"/>
			<point x="234" y="70" type="line"/>
			<point x="137" y="309" type="line"/>
			<point x="122" y="231" type="line"/>
			<point x="311" y="470" type="line"/>
			<point x="178" y="470" type="line"/>
			<point x="19" y="270" type="line"/>
		</contour>
	</outline>
</glyph>
<glyph name="guilsinglright" format="2">
	<advance width="318"/>
	<unicode hex="203A"/>
	<outline>
		<contour>
			<point x="-24" y="70" type="line"/>
			<point x="109" y="70" type="line"/>
			<point x="267" y="270" type="line"/>
			<point x="186" y="470" type="line"/>
			<point x="53" y="470" type="line"/>
			<point x="150" y="231" type="line"/>
			<point x="165" y="309" type="line"/>
		</contour>
	</outline>
</glyph>
<glyph name="fraction" format="2">
	<advance width="191"/>
	<unicode hex="2044"/>
	<outline>
		<contour>
			<point x="-249" y="0" type="line"/>
			<point x="-151" y="0" type="line"/>
			<point x="488" y="700" type="line"/>
			<point x="390" y="700" type="line"/>
		</contour>
	</outline>
</glyph>
<glyph name="won" format="2">
	<advance width="937"/>
	<unicode hex="20A9"/>
	<outline>
		<contour>
			<point x="109" y="0" type="line"/>
			<point x="278" y="0" type="line"/>
			<point x="529" y="587" type="line"/>
			<point x="499" y="587" type="line"/>
			<point x="522" y="0" type="line"/>
			<point x="691" y="0" type="line"/>
			<point x="979" y="700" type="line"/>
			<point x="861" y="700" type="line"/>
			<point x="589" y="38" type="line"/>
			<point x="620" y="38" type="line"/>
			<point x="596" y="700" type="line"/>
			<point x="476" y="700" type="line"/>
			<point x="194" y="38" type="line"/>
			<point x="225" y="38" type="line"/>
			<point x="211" y="700" type="line"/>
			<point x="93" y="700" type="line"/>
		</contour>
		<contour>
			<point x="-3" y="204" type="line"/>
			<point x="883" y="204" type="line"/>
			<point x="897" y="277" type="line"/>
			<point x="11" y="277" type="line"/>
		</contour>
		<contour>
			<point x="28" y="367" type="line"/>
			<point x="914" y="367" type="line"/>
			<point x="928" y="440" type="line"/>
			<point x="42" y="440" type="line"/>
		</contour>
	</outline>
</glyph>
<glyph name="euro" format="2">
	<advance width="835"/>
	<unicode hex="20AC"/>
	<outline>
		<contour>
			<point x="391" y="-16" type="curve" smooth="yes"/>
			<point x="581" y="-16"/>
			<point x="727" y="107"/>
			<point x="764" y="273" type="curve"/>
			<point x="628" y="283" type="line"/>
			<point x="606" y="194"/>
			<point x="533" y="97"/>
			<point x="403" y="97" type="curve" smooth="yes"/>
			<point x="283" y="97"/>
			<point x="218" y="194"/>
			<point x="248" y="350" type="curve" smooth="yes"/>
			<point x="278" y="506"/>
			<point x="381" y="602"/>
			<point x="511" y="602" type="curve" smooth="yes"/>
			<point x="631" y="602"/>
			<point x="665" y="501"/>
			<point x="653" y="412" type="curve"/>
			<point x="793" y="422" type="line"/>
			<point x="816" y="560"/>
			<point x="733" y="716"/>
			<point x="523" y="716" type="curve" smooth="yes"/>
			<point x="323" y="716"/>
			<point x="157" y="590"/>
			<point x="110" y="350" type="curve" smooth="yes"/>
			<point x="66" y="124"/>
			<point x="181" y="-16"/>
		</contour>
		<contour>
			<point x="18" y="239" type="line"/>
			<point x="467" y="239" type="line"/>
			<point x="482" y="312" type="line"/>
			<point x="33" y="312" type="line"/>
		</contour>
		<contour>
			<point x="46" y="382" type="line"/>
			<point x="495" y="382" type="line"/>
			<point x="509" y="455" type="line"/>
			<point x="60" y="455" type="line"/>
		</contour>
	</outline>
</glyph>
<glyph name="rupeeIndian" format="2">
	<advance width="637"/>
	<unicode hex="20B9"/>
	<outline>
		<contour>
			<point x="224" y="0" type="line"/>
			<point x="380" y="0" type="line"/>
			<point x="194" y="355" type="line"/>
			<point x="84" y="289" type="line"/>
			<point x="223" y="289" type="line" smooth="yes"/>
			<point x="287" y="289"/>
			<point x="494" y="314"/>
			<point x="531" y="504" type="curve" smooth="yes"/>
			<point x="568" y="696"/>
			<point x="367" y="700"/>
			<point x="303" y="700" type="curve" smooth="yes"/>
			<point x="138" y="700" type="line"/>
			<point x="116" y="587" type="line"/>
			<point x="261" y="587" type="line" smooth="yes"/>
			<point x="359" y="587"/>
			<point x="397" y="576"/>
			<point x="381" y="494" type="curve" smooth="yes"/>
			<point x="365" y="412"/>
			<point x="319" y="382"/>
			<point x="221" y="382" type="curve" smooth="yes"/>
			<point x="76" y="382" type="line"/>
			<point x="62" y="307" type="line"/>
		</contour>
		<contour>
			<point x="91" y="457" type="line"/>
			<point x="607" y="457" type="line"/>
			<point x="621" y="530" type="line"/>
			<point x="105" y="530" type="line"/>
		</contour>
		<contour>
			<point x="151" y="587" type="line"/>
			<point x="632" y="587" type="line"/>
			<point x="654" y="700" type="line"/>
			<point x="173" y="700" type="line"/>
		</contour>
	</outline>
</glyph>
<glyph name="liraTurkish" format="2">
	<advance width="697"/>
	<unicode hex="20BA"/>
	<outline>
		<contour>
			<point x="64" y="0" type="line"/>
			<point x="332" y="0" type="line" smooth="yes"/>
			<point x="492" y="0"/>
			<point x="622" y="126"/>
			<point x="650" y="266" type="curve"/>
			<point x="508" y="276" type="line"/>
			<point x="488" y="176"/>
			<point x="434" y="113"/>
			<point x="354" y="113" type="curve" smooth="yes"/>
			<point x="224" y="113" type="line"/>
			<point x="338" y="700" type="line"/>
			<point x="200" y="700" type="line"/>
		</contour>
		<contour>
			<point x="27" y="234" type="line"/>
			<point x="490" y="354" type="line"/>
			<point x="504" y="427" type="line"/>
			<point x="42" y="307" type="line"/>
		</contour>
		<contour>
			<point x="55" y="377" type="line"/>
			<point x="518" y="497" type="line"/>
			<point x="532" y="570" type="line"/>
			<point x="69" y="450" type="line"/>
		</contour>
	</outline>
</glyph>
<glyph name="literSign" format="2">
	<advance width="682"/>
	<unicode hex="2113"/>
	<outline>
		<contour>
			<point x="279" y="-16" type="curve" smooth="yes"/>
			<point x="399" y="-16"/>
			<point x="482" y="79"/>
			<point x="498" y="159" type="curve"/>
			<point x="383" y="174" type="line"/>
			<point x="373" y="124"/>
			<point x="332" y="101"/>
			<point x="292" y="101" type="curve" smooth="yes"/>
			<point x="192" y="101"/>
			<point x="227" y="278"/>
			<point x="281" y="415" type="curve" smooth="yes"/>
			<point x="331" y="542"/>
			<point x="403" y="598"/>
			<point x="463" y="598" type="curve" smooth="yes"/>
			<point x="523" y="598"/>
			<point x="527" y="538"/>
			<point x="481" y="464" type="curve" smooth="yes"/>
			<point x="401" y="335"/>
			<point x="252" y="260"/>
			<point x="32" y="260" type="curve"/>
			<point x="9" y="142" type="line"/>
			<point x="279" y="142"/>
			<point x="478" y="263"/>
			<point x="575" y="420" type="curve" smooth="yes"/>
			<point x="671" y="577"/>
			<point x="636" y="716"/>
			<point x="486" y="716" type="curve" smooth="yes"/>
			<point x="366" y="716"/>
			<point x="242" y="619"/>
			<point x="164" y="423" type="curve" smooth="yes"/>
			<point x="111" y="286"/>
			<point x="49" y="-16"/>
		</contour>
	</outline>
</glyph>
<glyph name="numero" format="2">
	<advance width="1256"/>
	<unicode hex="2116"/>
	<outline>
		<contour>
			<point x="949" y="178" type="curve" smooth="yes"/>
			<point x="1072" y="178"/>
			<point x="1177" y="275"/>
			<point x="1188" y="398" type="curve" smooth="yes"/>
			<point x="1199" y="521"/>
			<point x="1110" y="618"/>
			<point x="987" y="618" type="curve" smooth="yes"/>
			<point x="865" y="618"/>
			<point x="759" y="521"/>
			<point x="748" y="398" type="curve" smooth="yes"/>
			<point x="737" y="275"/>
			<point x="827" y="178"/>
		</contour>
		<component base="N"/>
		<contour>
			<point x="709" y="0" type="line"/>
			<point x="1084" y="0" type="line"/>
			<point x="1106" y="113" type="line"/>
			<point x="731" y="113" type="line"/>
		</contour>
		<contour>
			<point x="959" y="291" type="curve" smooth="yes"/>
			<point x="897" y="291"/>
			<point x="856" y="336"/>
			<point x="861" y="398" type="curve" smooth="yes"/>
			<point x="867" y="461"/>
			<point x="916" y="505"/>
			<point x="978" y="505" type="curve" smooth="yes"/>
			<point x="1042" y="505"/>
			<point x="1081" y="461"/>
			<point x="1075" y="398" type="curve" smooth="yes"/>
			<point x="1070" y="336"/>
			<point x="1023" y="291"/>
		</contour>
	</outline>
</glyph>
<glyph name="published" format="2">
	<advance width="510"/>
	<unicode hex="2117"/>
	<outline>
		<contour>
			<point x="243" y="286" type="curve" smooth="yes"/>
			<point x="363" y="286"/>
			<point x="476" y="381"/>
			<point x="499" y="501" type="curve" smooth="yes"/>
			<point x="523" y="621"/>
			<point x="446" y="716"/>
			<point x="326" y="716" type="curve" smooth="yes"/>
			<point x="207" y="716"/>
			<point x="93" y="621"/>
			<point x="69" y="501" type="curve" smooth="yes"/>
			<point x="46" y="381"/>
			<point x="124" y="286"/>
		</contour>
		<contour>
			<point x="199" y="393" type="line"/>
			<point x="250" y="393" type="line"/>
			<point x="293" y="611" type="line"/>
			<point x="242" y="611" type="line"/>
		</contour>
		<contour>
			<point x="251" y="327" type="curve" smooth="yes"/>
			<point x="153" y="327"/>
			<point x="91" y="403"/>
			<point x="110" y="501" type="curve" smooth="yes"/>
			<point x="130" y="600"/>
			<point x="220" y="675"/>
			<point x="318" y="675" type="curve" smooth="yes"/>
			<point x="418" y="675"/>
			<point x="478" y="600"/>
			<point x="458" y="501" type="curve" smooth="yes"/>
			<point x="439" y="403"/>
			<point x="351" y="327"/>
		</contour>
		<contour>
			<point x="225" y="471" type="line"/>
			<point x="292" y="471" type="line" smooth="yes"/>
			<point x="342" y="471"/>
			<point x="382" y="496"/>
			<point x="391" y="541" type="curve" smooth="yes"/>
			<point x="400" y="586"/>
			<point x="369" y="611"/>
			<point x="319" y="611" type="curve" smooth="yes"/>
			<point x="252" y="611" type="line"/>
			<point x="243" y="567" type="line"/>
			<point x="310" y="567" type="line" smooth="yes"/>
			<point x="333" y="567"/>
			<point x="344" y="562"/>
			<point x="340" y="541" type="curve" smooth="yes"/>
			<point x="336" y="520"/>
			<point x="323" y="515"/>
			<point x="300" y="515" type="curve" smooth="yes"/>
			<point x="233" y="515" type="line"/>
		</contour>
	</outline>
</glyph>
<glyph name="trademark" format="2">
	<advance width="796"/>
	<unicode hex="2122"/>
	<outline>
		<contour>
			<point x="365" y="336" type="line"/>
			<point x="438" y="336" type="line"/>
			<point x="493" y="620" type="line"/>
			<point x="461" y="613" type="line"/>
			<point x="510" y="336" type="line"/>
			<point x="577" y="336" type="line"/>
			<point x="734" y="613" type="line"/>
			<point x="704" y="620" type="line"/>
			<point x="649" y="336" type="line"/>
			<point x="722" y="336" type="line"/>
			<point x="793" y="700" type="line"/>
			<point x="712" y="700" type="line"/>
			<point x="526" y="373" type="line"/>
			<point x="576" y="373" type="line"/>
			<point x="517" y="700" type="line"/>
			<point x="436" y="700" type="line"/>
		</contour>
		<contour>
			<point x="114" y="336" type="line"/>
			<point x="187" y="336" type="line"/>
			<point x="251" y="665" type="line"/>
			<point x="178" y="665" type="line"/>
		</contour>
		<contour>
			<point x="54" y="632" type="line"/>
			<point x="363" y="632" type="line"/>
			<point x="376" y="700" type="line"/>
			<point x="67" y="700" type="line"/>
		</contour>
	</outline>
</glyph>
<glyph name="leftArrow" format="2">
	<advance width="893"/>
	<unicode hex="2190"/>
	<outline>
		<contour>
			<point x="210" y="28" type="curve"/>
			<point x="348" y="28" type="line"/>
			<point x="380" y="188"/>
			<point x="305" y="266"/>
			<point x="145" y="266" type="curve"/>
			<point x="159" y="340" type="line"/>
			<point x="319" y="340"/>
			<point x="424" y="418"/>
			<point x="455" y="578" type="curve"/>
			<point x="317" y="578" type="line"/>
			<point x="275" y="358"/>
			<point x="143" y="369"/>
			<point x="83" y="369" type="curve"/>
			<point x="57" y="237" type="line"/>
			<point x="117" y="237"/>
			<point x="253" y="248"/>
		</contour>
		<contour>
			<point x="92" y="250" type="line"/>
			<point x="793" y="250" type="line"/>
			<point x="813" y="356" type="line"/>
			<point x="112" y="356" type="line"/>
		</contour>
	</outline>
</glyph>
<glyph name="upArrow" format="2">
	<advance width="711"/>
	<unicode hex="2191"/>
	<outline>
		<contour>
			<point x="74" y="317" type="line"/>
			<point x="234" y="317"/>
			<point x="329" y="407"/>
			<point x="360" y="567" type="curve"/>
			<point x="434" y="567" type="line"/>
			<point x="403" y="407"/>
			<point x="464" y="317"/>
			<point x="624" y="317" type="curve"/>
			<point x="650" y="455" type="line"/>
			<point x="430" y="455"/>
			<point x="467" y="589"/>
			<point x="479" y="649" type="curve"/>
			<point x="347" y="649" type="line"/>
			<point x="335" y="589"/>
			<point x="320" y="455"/>
			<point x="100" y="455" type="curve"/>
		</contour>
		<contour>
			<point x="227" y="-34" type="line"/>
			<point x="333" y="-34" type="line"/>
			<point x="460" y="617" type="line"/>
			<point x="354" y="617" type="line"/>
		</contour>
	</outline>
</glyph>
<glyph name="rightArrow" format="2">
	<advance width="894"/>
	<unicode hex="2192"/>
	<outline>
		<contour>
			<point x="418" y="28" type="curve"/>
			<point x="556" y="28" type="line"/>
			<point x="599" y="248"/>
			<point x="731" y="237"/>
			<point x="791" y="237" type="curve"/>
			<point x="817" y="369" type="line"/>
			<point x="757" y="369"/>
			<point x="621" y="358"/>
			<point x="663" y="578" type="curve"/>
			<point x="525" y="578" type="line"/>
			<point x="494" y="418"/>
			<point x="569" y="340"/>
			<point x="729" y="340" type="curve"/>
			<point x="715" y="266" type="line"/>
			<point x="555" y="266"/>
			<point x="450" y="188"/>
		</contour>
		<contour>
			<point x="61" y="250" type="line"/>
			<point x="762" y="250" type="line"/>
			<point x="782" y="356" type="line"/>
			<point x="81" y="356" type="line"/>
		</contour>
	</outline>
</glyph>
<glyph name="downArrow" format="2">
	<advance width="711"/>
	<unicode hex="2193"/>
	<outline>
		<contour>
			<point x="212" y="-44" type="curve"/>
			<point x="344" y="-44" type="line"/>
			<point x="356" y="16"/>
			<point x="371" y="150"/>
			<point x="591" y="150" type="curve"/>
			<point x="618" y="288" type="line"/>
			<point x="458" y="288"/>
			<point x="362" y="198"/>
			<point x="331" y="38" type="curve"/>
			<point x="257" y="38" type="line"/>
			<point x="288" y="198"/>
			<point x="228" y="288"/>
			<point x="68" y="288" type="curve"/>
			<point x="41" y="150" type="line"/>
			<point x="261" y="150"/>
			<point x="224" y="16"/>
		</contour>
		<contour>
			<point x="232" y="-12" type="line"/>
			<point x="338" y="-12" type="line"/>
			<point x="464" y="639" type="line"/>
			<point x="358" y="639" type="line"/>
		</contour>
	</outline>
</glyph>
<glyph name="leftRightArrow" format="2">
	<advance width="1025"/>
	<unicode hex="2194"/>
	<outline>
		<contour>
			<point x="549" y="28" type="curve"/>
			<point x="687" y="28" type="line"/>
			<point x="730" y="248"/>
			<point x="862" y="237"/>
			<point x="922" y="237" type="curve"/>
			<point x="948" y="369" type="line"/>
			<point x="888" y="369"/>
			<point x="752" y="358"/>
			<point x="794" y="578" type="curve"/>
			<point x="656" y="578" type="line"/>
			<point x="625" y="418"/>
			<point x="700" y="340"/>
			<point x="860" y="340" type="curve"/>
			<point x="846" y="266" type="line"/>
			<point x="686" y="266"/>
			<point x="581" y="188"/>
		</contour>
		<contour>
			<point x="210" y="28" type="curve"/>
			<point x="348" y="28" type="line"/>
			<point x="380" y="188"/>
			<point x="305" y="266"/>
			<point x="145" y="266" type="curve"/>
			<point x="159" y="340" type="line"/>
			<point x="319" y="340"/>
			<point x="424" y="418"/>
			<point x="455" y="578" type="curve"/>
			<point x="317" y="578" type="line"/>
			<point x="275" y="358"/>
			<point x="143" y="369"/>
			<point x="83" y="369" type="curve"/>
			<point x="57" y="237" type="line"/>
			<point x="117" y="237"/>
			<point x="253" y="248"/>
		</contour>
		<contour>
			<point x="92" y="250" type="line"/>
			<point x="893" y="250" type="line"/>
			<point x="913" y="356" type="line"/>
			<point x="112" y="356" type="line"/>
		</contour>
	</outline>
</glyph>
<glyph name="upDownArrow" format="2">
	<advance width="711"/>
	<unicode hex="2195"/>
	<outline>
		<contour>
			<point x="82" y="362" type="line"/>
			<point x="242" y="362"/>
			<point x="338" y="452"/>
			<point x="369" y="612" type="curve"/>
			<point x="443" y="612" type="line"/>
			<point x="412" y="452"/>
			<point x="472" y="362"/>
			<point x="632" y="362" type="curve"/>
			<point x="659" y="500" type="line"/>
			<point x="439" y="500"/>
			<point x="476" y="634"/>
			<point x="488" y="694" type="curve"/>
			<point x="356" y="694" type="line"/>
			<point x="344" y="634"/>
			<point x="329" y="500"/>
			<point x="109" y="500" type="curve"/>
		</contour>
		<contour>
			<point x="205" y="-81" type="curve"/>
			<point x="337" y="-81" type="line"/>
			<point x="349" y="-21"/>
			<point x="364" y="113"/>
			<point x="584" y="113" type="curve"/>
			<point x="611" y="251" type="line"/>
			<point x="451" y="251"/>
			<point x="355" y="161"/>
			<point x="324" y="1" type="curve"/>
			<point x="250" y="1" type="line"/>
			<point x="281" y="161"/>
			<point x="221" y="251"/>
			<point x="61" y="251" type="curve"/>
			<point x="34" y="113" type="line"/>
			<point x="254" y="113"/>
			<point x="217" y="-21"/>
		</contour>
		<contour>
			<point x="227" y="-34" type="line"/>
			<point x="333" y="-34" type="line"/>
			<point x="464" y="637" type="line"/>
			<point x="358" y="637" type="line"/>
		</contour>
	</outline>
</glyph>
<glyph name="northWestArrow" format="2">
	<advance width="737"/>
	<unicode hex="2196"/>
	<outline>
		<contour>
			<point x="518" y="28" type="line"/>
			<point x="608" y="103" type="line"/>
			<point x="237" y="563" type="line"/>
			<point x="148" y="488" type="line"/>
		</contour>
		<contour>
			<point x="131" y="119" type="line"/>
			<point x="266" y="232"/>
			<point x="281" y="351"/>
			<point x="190" y="464" type="curve"/>
			<point x="252" y="516" type="line"/>
			<point x="343" y="403"/>
			<point x="461" y="395"/>
			<point x="596" y="508" type="curve"/>
			<point x="517" y="605" type="line"/>
			<point x="331" y="450"/>
			<point x="264" y="552"/>
			<point x="230" y="595" type="curve"/>
			<point x="118" y="501" type="line"/>
			<point x="153" y="459"/>
			<point x="238" y="372"/>
			<point x="53" y="216" type="curve"/>
		</contour>
	</outline>
</glyph>
<glyph name="northEastArrow" format="2">
	<advance width="737"/>
	<unicode hex="2197"/>
	<outline>
		<contour>
			<point x="91" y="28" type="line"/>
			<point x="641" y="488" type="line"/>
			<point x="580" y="563" type="line"/>
			<point x="31" y="103" type="line"/>
		</contour>
		<contour>
			<point x="514" y="119" type="curve"/>
			<point x="630" y="216" type="line"/>
			<point x="505" y="372"/>
			<point x="624" y="459"/>
			<point x="675" y="501" type="curve"/>
			<point x="601" y="595" type="line"/>
			<point x="549" y="552"/>
			<point x="442" y="450"/>
			<point x="318" y="605" type="curve"/>
			<point x="201" y="508" type="line"/>
			<point x="292" y="395"/>
			<point x="412" y="403"/>
			<point x="547" y="516" type="curve"/>
			<point x="589" y="464" type="line"/>
			<point x="454" y="351"/>
			<point x="423" y="232"/>
		</contour>
	</outline>
</glyph>
<glyph name="southEastArrow" format="2">
	<advance width="737"/>
	<unicode hex="2198"/>
	<outline>
		<contour>
			<point x="483" y="57" type="line"/>
			<point x="573" y="132" type="line"/>
			<point x="202" y="592" type="line"/>
			<point x="112" y="517" type="line"/>
		</contour>
		<contour>
			<point x="204" y="15" type="line"/>
			<point x="389" y="170"/>
			<point x="456" y="68"/>
			<point x="491" y="25" type="curve"/>
			<point x="602" y="119" type="line"/>
			<point x="567" y="161"/>
			<point x="482" y="248"/>
			<point x="667" y="404" type="curve"/>
			<point x="589" y="501" type="line"/>
			<point x="454" y="388"/>
			<point x="439" y="269"/>
			<point x="530" y="156" type="curve"/>
			<point x="468" y="104" type="line"/>
			<point x="377" y="217"/>
			<point x="260" y="225"/>
			<point x="125" y="112" type="curve"/>
		</contour>
	</outline>
</glyph>
<glyph name="southWestArrow" format="2">
	<advance width="737"/>
	<unicode hex="2199"/>
	<outline>
		<contour>
			<point x="140" y="57" type="line"/>
			<point x="689" y="517" type="line"/>
			<point x="629" y="592" type="line"/>
			<point x="80" y="132" type="line"/>
		</contour>
		<contour>
			<point x="403" y="15" type="curve"/>
			<point x="520" y="112" type="line"/>
			<point x="429" y="225"/>
			<point x="308" y="217"/>
			<point x="173" y="104" type="curve"/>
			<point x="131" y="156" type="line"/>
			<point x="266" y="269"/>
			<point x="297" y="388"/>
			<point x="206" y="501" type="curve"/>
			<point x="90" y="404" type="line"/>
			<point x="215" y="248"/>
			<point x="96" y="161"/>
			<point x="45" y="119" type="curve"/>
			<point x="120" y="25" type="line"/>
			<point x="171" y="68"/>
			<point x="278" y="170"/>
		</contour>
	</outline>
</glyph>
<glyph name="leftHookArrow" format="2">
	<advance width="1071"/>
	<unicode hex="21A9"/>
	<outline>
		<contour>
			<point x="90" y="250" type="line"/>
			<point x="731" y="250" type="line" smooth="yes"/>
			<point x="865" y="250"/>
			<point x="992" y="357"/>
			<point x="1018" y="490" type="curve" smooth="yes"/>
			<point x="1044" y="623"/>
			<point x="958" y="730"/>
			<point x="824" y="730" type="curve" smooth="yes"/>
			<point x="634" y="730" type="line"/>
			<point x="613" y="624" type="line"/>
			<point x="803" y="624" type="line" smooth="yes"/>
			<point x="881" y="624"/>
			<point x="927" y="567"/>
			<point x="912" y="490" type="curve" smooth="yes"/>
			<point x="897" y="413"/>
			<point x="829" y="356"/>
			<point x="751" y="356" type="curve" smooth="yes"/>
			<point x="110" y="356" type="line"/>
		</contour>
		<contour>
			<point x="210" y="28" type="curve"/>
			<point x="348" y="28" type="line"/>
			<point x="380" y="188"/>
			<point x="305" y="266"/>
			<point x="145" y="266" type="curve"/>
			<point x="159" y="340" type="line"/>
			<point x="319" y="340"/>
			<point x="424" y="418"/>
			<point x="455" y="578" type="curve"/>
			<point x="317" y="578" type="line"/>
			<point x="275" y="358"/>
			<point x="143" y="369"/>
			<point x="83" y="369" type="curve"/>
			<point x="57" y="237" type="line"/>
			<point x="117" y="237"/>
			<point x="253" y="248"/>
		</contour>
	</outline>
</glyph>
<glyph name="rightHookArrow" format="2">
	<advance width="1073"/>
	<unicode hex="21AA"/>
	<outline>
		<contour>
			<point x="302" y="250" type="curve" smooth="yes"/>
			<point x="943" y="250" type="line"/>
			<point x="963" y="356" type="line"/>
			<point x="322" y="356" type="line" smooth="yes"/>
			<point x="244" y="356"/>
			<point x="198" y="413"/>
			<point x="213" y="490" type="curve" smooth="yes"/>
			<point x="228" y="567"/>
			<point x="296" y="624"/>
			<point x="374" y="624" type="curve" smooth="yes"/>
			<point x="564" y="624" type="line"/>
			<point x="585" y="730" type="line"/>
			<point x="395" y="730" type="line" smooth="yes"/>
			<point x="261" y="730"/>
			<point x="133" y="623"/>
			<point x="107" y="490" type="curve" smooth="yes"/>
			<point x="81" y="357"/>
			<point x="168" y="250"/>
		</contour>
		<contour>
			<point x="597" y="28" type="curve"/>
			<point x="735" y="28" type="line"/>
			<point x="778" y="248"/>
			<point x="910" y="237"/>
			<point x="970" y="237" type="curve"/>
			<point x="996" y="369" type="line"/>
			<point x="936" y="369"/>
			<point x="800" y="358"/>
			<point x="842" y="578" type="curve"/>
			<point x="704" y="578" type="line"/>
			<point x="673" y="418"/>
			<point x="748" y="340"/>
			<point x="908" y="340" type="curve"/>
			<point x="894" y="266" type="line"/>
			<point x="734" y="266"/>
			<point x="629" y="188"/>
		</contour>
	</outline>
</glyph>
<glyph name="upTipRightArrow" format="2">
	<advance width="804"/>
	<unicode hex="21B1"/>
	<outline>
		<contour>
			<point x="328" y="28" type="curve"/>
			<point x="466" y="28" type="line"/>
			<point x="509" y="248"/>
			<point x="641" y="237"/>
			<point x="701" y="237" type="curve"/>
			<point x="727" y="369" type="line"/>
			<point x="667" y="369"/>
			<point x="531" y="358"/>
			<point x="573" y="578" type="curve"/>
			<point x="435" y="578" type="line"/>
			<point x="404" y="418"/>
			<point x="479" y="340"/>
			<point x="639" y="340" type="curve"/>
			<point x="625" y="266" type="line"/>
			<point x="465" y="266"/>
			<point x="360" y="188"/>
		</contour>
		<contour>
			<point x="-6" y="-94" type="line"/>
			<point x="100" y="-94" type="line"/>
			<point x="170" y="270" type="line"/>
			<point x="64" y="270" type="line"/>
		</contour>
		<contour>
			<point x="61" y="250" type="line"/>
			<point x="672" y="250" type="line"/>
			<point x="692" y="356" type="line"/>
			<point x="81" y="356" type="line"/>
		</contour>
	</outline>
</glyph>
<glyph name="partialdiff" format="2">
	<advance width="705"/>
	<unicode hex="2202"/>
	<outline>
		<contour>
			<point x="284" y="-16" type="curve" smooth="yes"/>
			<point x="434" y="-15"/>
			<point x="563" y="80"/>
			<point x="601" y="280" type="curve" smooth="yes"/>
			<point x="654" y="551"/>
			<point x="492" y="715"/>
			<point x="332" y="715" type="curve"/>
			<point x="332" y="605" type="line"/>
			<point x="451" y="605"/>
			<point x="516" y="477"/>
			<point x="503" y="359" type="curve"/>
			<point x="515" y="367" type="line"/>
			<point x="498" y="425"/>
			<point x="455" y="465"/>
			<point x="377" y="465" type="curve" smooth="yes"/>
			<point x="222" y="465"/>
			<point x="92" y="366"/>
			<point x="65" y="224" type="curve" smooth="yes"/>
			<point x="36" y="77"/>
			<point x="134" y="-17"/>
		</contour>
		<contour>
			<point x="306" y="97" type="curve" smooth="yes"/>
			<point x="234" y="97"/>
			<point x="198" y="148"/>
			<point x="213" y="226" type="curve" smooth="yes"/>
			<point x="228" y="304"/>
			<point x="282" y="352"/>
			<point x="355" y="352" type="curve" smooth="yes"/>
			<point x="428" y="352"/>
			<point x="467" y="304"/>
			<point x="452" y="226" type="curve" smooth="yes"/>
			<point x="437" y="148"/>
			<point x="379" y="97"/>
		</contour>
	</outline>
</glyph>
<glyph name="emptyset" format="2">
	<advance width="916"/>
	<unicode hex="2205"/>
	<outline>
		<contour>
			<point x="148" y="0" type="line"/>
			<point x="808" y="654" type="line"/>
			<point x="766" y="700" type="line"/>
			<point x="106" y="46" type="line"/>
		</contour>
		<contour>
			<point x="425" y="-16" type="curve"/>
			<point x="627" y="-16"/>
			<point x="805" y="148"/>
			<point x="823" y="350" type="curve"/>
			<point x="841" y="552"/>
			<point x="691" y="716"/>
			<point x="489" y="716" type="curve"/>
			<point x="287" y="716"/>
			<point x="109" y="552"/>
			<point x="91" y="350" type="curve"/>
			<point x="73" y="148"/>
			<point x="223" y="-16"/>
		</contour>
		<contour>
			<point x="433" y="76" type="curve"/>
			<point x="281" y="76"/>
			<point x="170" y="198"/>
			<point x="183" y="350" type="curve"/>
			<point x="196" y="501"/>
			<point x="329" y="623"/>
			<point x="481" y="623" type="curve"/>
			<point x="632" y="623"/>
			<point x="743" y="501"/>
			<point x="730" y="350" type="curve"/>
			<point x="717" y="198"/>
			<point x="584" y="76"/>
		</contour>
	</outline>
</glyph>
<glyph name="increment" format="2">
	<advance width="814"/>
	<unicode hex="2206"/>
	<outline>
		<contour>
			<point x="21" y="0" type="line"/>
			<point x="655" y="0" type="line"/>
			<point x="544" y="700" type="line"/>
			<point x="414" y="700" type="line"/>
		</contour>
		<contour>
			<point x="183" y="70" type="line"/>
			<point x="526" y="679" type="line"/>
			<point x="431" y="679" type="line"/>
			<point x="529" y="70" type="line"/>
			<point x="564" y="113" type="line"/>
			<point x="157" y="113" type="line"/>
		</contour>
	</outline>
</glyph>
<glyph name="product" format="2">
	<advance width="727"/>
	<unicode hex="220F"/>
	<outline>
		<contour>
			<point x="408" y="-216" type="line"/>
			<point x="526" y="-216" type="line"/>
			<point x="704" y="700" type="line"/>
			<point x="586" y="700" type="line"/>
		</contour>
		<contour>
			<point x="-20" y="-216" type="line"/>
			<point x="98" y="-216" type="line"/>
			<point x="276" y="700" type="line"/>
			<point x="158" y="700" type="line"/>
		</contour>
		<contour>
			<point x="136" y="587" type="line"/>
			<point x="682" y="587" type="line"/>
			<point x="704" y="700" type="line"/>
			<point x="158" y="700" type="line"/>
		</contour>
	</outline>
</glyph>
<glyph name="summation" format="2">
	<advance width="703"/>
	<unicode hex="2211"/>
	<outline>
		<contour>
			<point x="-20" y="-216" type="line"/>
			<point x="502" y="-216" type="line"/>
			<point x="524" y="-103" type="line"/>
			<point x="79" y="-103" type="line"/>
			<point x="65" y="-199" type="line"/>
			<point x="468" y="242" type="line"/>
			<point x="227" y="683" type="line"/>
			<point x="213" y="587" type="line"/>
			<point x="658" y="587" type="line"/>
			<point x="680" y="700" type="line"/>
			<point x="158" y="700" type="line"/>
			<point x="139" y="601" type="line"/>
			<point x="356" y="194" type="line"/>
			<point x="374" y="289" type="line"/>
			<point x="-1" y="-117" type="line"/>
		</contour>
	</outline>
</glyph>
<glyph name="minus" format="2">
	<advance width="619"/>
	<unicode hex="2212"/>
	<outline>
		<contour>
			<point x="48" y="239" type="line"/>
			<point x="527" y="239" type="line"/>
			<point x="549" y="352" type="line"/>
			<point x="70" y="352" type="line"/>
		</contour>
	</outline>
</glyph>
<glyph name="radical" format="2">
	<advance width="677"/>
	<unicode hex="221A"/>
	<outline>
		<contour>
			<point x="150" y="-216" type="line"/>
			<point x="283" y="-216" type="line"/>
			<point x="704" y="700" type="line"/>
			<point x="584" y="700" type="line"/>
			<point x="189" y="-157" type="line"/>
			<point x="263" y="-157" type="line"/>
			<point x="222" y="298" type="line"/>
			<point x="29" y="298" type="line"/>
			<point x="8" y="190" type="line"/>
			<point x="156" y="190" type="line"/>
			<point x="107" y="243" type="line"/>
		</contour>
	</outline>
</glyph>
<glyph name="infinity" format="2">
	<advance width="929"/>
	<unicode hex="221E"/>
	<outline>
		<contour>
			<point x="616" y="55" type="curve" smooth="yes"/>
			<point x="715" y="55"/>
			<point x="828" y="121"/>
			<point x="840" y="261" type="curve" smooth="yes"/>
			<point x="852" y="401"/>
			<point x="751" y="467"/>
			<point x="652" y="467" type="curve" smooth="yes"/>
			<point x="432" y="467"/>
			<point x="402" y="168"/>
			<point x="262" y="168" type="curve" smooth="yes"/>
			<point x="202" y="168"/>
			<point x="168" y="211"/>
			<point x="172" y="261" type="curve" smooth="yes"/>
			<point x="177" y="311"/>
			<point x="218" y="354"/>
			<point x="278" y="354" type="curve" smooth="yes"/>
			<point x="418" y="354"/>
			<point x="386" y="55"/>
		</contour>
		<contour>
			<point x="242" y="55" type="curve" smooth="yes"/>
			<point x="462" y="55"/>
			<point x="492" y="354"/>
			<point x="632" y="354" type="curve" smooth="yes"/>
			<point x="692" y="354"/>
			<point x="727" y="311"/>
			<point x="722" y="261" type="curve" smooth="yes"/>
			<point x="718" y="211"/>
			<point x="676" y="168"/>
			<point x="616" y="168" type="curve" smooth="yes"/>
			<point x="476" y="168"/>
			<point x="508" y="467"/>
			<point x="278" y="467" type="curve" smooth="yes"/>
			<point x="179" y="467"/>
			<point x="66" y="401"/>
			<point x="54" y="261" type="curve" smooth="yes"/>
			<point x="42" y="121"/>
			<point x="143" y="55"/>
		</contour>
	</outline>
</glyph>
<glyph name="integral" format="2">
	<advance width="648"/>
	<unicode hex="222B"/>
	<outline>
		<contour>
			<point x="-21" y="-216" type="line"/>
			<point x="99" y="-216" type="line" smooth="yes"/>
			<point x="209" y="-216"/>
			<point x="253" y="-168"/>
			<point x="290" y="-44" type="curve" smooth="yes"/>
			<point x="472" y="556" type="line" smooth="yes"/>
			<point x="481" y="586"/>
			<point x="495" y="597"/>
			<point x="525" y="597" type="curve" smooth="yes"/>
			<point x="605" y="597" type="line"/>
			<point x="627" y="710" type="line"/>
			<point x="507" y="710" type="line" smooth="yes"/>
			<point x="397" y="710"/>
			<point x="353" y="662"/>
			<point x="316" y="538" type="curve" smooth="yes"/>
			<point x="134" y="-62" type="line" smooth="yes"/>
			<point x="125" y="-92"/>
			<point x="111" y="-103"/>
			<point x="81" y="-103" type="curve" smooth="yes"/>
			<point x="1" y="-103" type="line"/>
		</contour>
	</outline>
</glyph>
<glyph name="approxequal" format="2">
	<advance width="620"/>
	<unicode hex="2248"/>
	<outline>
		<contour>
			<point x="62" y="311" type="line"/>
			<point x="115" y="355"/>
			<point x="144" y="379"/>
			<point x="216" y="379" type="curve" smooth="yes"/>
			<point x="285" y="379"/>
			<point x="312" y="319"/>
			<point x="403" y="319" type="curve" smooth="yes"/>
			<point x="492" y="319"/>
			<point x="534" y="355"/>
			<point x="553" y="371" type="curve"/>
			<point x="578" y="500" type="line"/>
			<point x="526" y="456"/>
			<point x="497" y="432"/>
			<point x="425" y="432" type="curve" smooth="yes"/>
			<point x="356" y="432"/>
			<point x="329" y="492"/>
			<point x="238" y="492" type="curve" smooth="yes"/>
			<point x="149" y="492"/>
			<point x="107" y="456"/>
			<point x="87" y="440" type="curve"/>
		</contour>
		<contour>
			<point x="17" y="78" type="line"/>
			<point x="70" y="122"/>
			<point x="98" y="146"/>
			<point x="170" y="146" type="curve" smooth="yes"/>
			<point x="239" y="146"/>
			<point x="267" y="86"/>
			<point x="358" y="86" type="curve" smooth="yes"/>
			<point x="447" y="86"/>
			<point x="489" y="122"/>
			<point x="508" y="138" type="curve"/>
			<point x="533" y="267" type="line"/>
			<point x="480" y="223"/>
			<point x="452" y="199"/>
			<point x="380" y="199" type="curve" smooth="yes"/>
			<point x="311" y="199"/>
			<point x="283" y="259"/>
			<point x="192" y="259" type="curve" smooth="yes"/>
			<point x="103" y="259"/>
			<point x="61" y="223"/>
			<point x="42" y="207" type="curve"/>
		</contour>
	</outline>
</glyph>
<glyph name="notequal" format="2">
	<advance width="620"/>
	<unicode hex="2260"/>
	<outline>
		<contour>
			<point x="71" y="2" type="line"/>
			<point x="179" y="2" type="line"/>
			<point x="527" y="599" type="line"/>
			<point x="419" y="599" type="line"/>
		</contour>
		<contour>
			<point x="26" y="123" type="line"/>
			<point x="505" y="123" type="line"/>
			<point x="527" y="236" type="line"/>
			<point x="48" y="236" type="line"/>
		</contour>
		<contour>
			<point x="71" y="356" type="line"/>
			<point x="550" y="356" type="line"/>
			<point x="572" y="469" type="line"/>
			<point x="93" y="469" type="line"/>
		</contour>
	</outline>
</glyph>
<glyph name="lessequal" format="2">
	<advance width="620"/>
	<unicode hex="2264"/>
	<outline>
		<contour>
			<point x="511" y="157" type="line"/>
			<point x="536" y="283" type="line"/>
			<point x="153" y="443" type="line"/>
			<point x="136" y="353" type="line"/>
			<point x="580" y="512" type="line"/>
			<point x="605" y="638" type="line"/>
			<point x="90" y="453" type="line"/>
			<point x="68" y="342" type="line"/>
		</contour>
		<contour>
			<point x="481" y="-1" type="line"/>
			<point x="503" y="112" type="line"/>
			<point x="24" y="112" type="line"/>
			<point x="2" y="-1" type="line"/>
		</contour>
	</outline>
</glyph>
<glyph name="greaterequal" format="2">
	<advance width="620"/>
	<unicode hex="2265"/>
	<outline>
		<contour>
			<point x="32" y="157" type="line"/>
			<point x="547" y="342" type="line"/>
			<point x="569" y="453" type="line"/>
			<point x="126" y="638" type="line"/>
			<point x="101" y="512" type="line"/>
			<point x="485" y="353" type="line"/>
			<point x="502" y="443" type="line"/>
			<point x="57" y="283" type="line"/>
		</contour>
		<contour>
			<point x="2" y="-1" type="line"/>
			<point x="481" y="-1" type="line"/>
			<point x="503" y="112" type="line"/>
			<point x="24" y="112" type="line"/>
		</contour>
	</outline>
</glyph>
<glyph name="one.circled" format="2">
	<advance width="875"/>
	<unicode hex="2460"/>
	<outline>
		<contour>
			<point x="378" y="210" type="line"/>
			<point x="460" y="210" type="line"/>
			<point x="520" y="521" type="line"/>
			<point x="438" y="521" type="line"/>
			<point x="424" y="449"/>
			<point x="410" y="431"/>
			<point x="357" y="431" type="curve" smooth="yes"/>
			<point x="330" y="431" type="line"/>
			<point x="317" y="364" type="line"/>
			<point x="344" y="364" type="line" smooth="yes"/>
			<point x="414" y="364"/>
			<point x="427" y="411"/>
			<point x="442" y="491" type="curve"/>
			<point x="429" y="471" type="line"/>
		</contour>
		<contour>
			<point x="283" y="190" type="line"/>
			<point x="547" y="190" type="line"/>
			<point x="560" y="257" type="line"/>
			<point x="296" y="257" type="line"/>
		</contour>
		<component base="whiteCircle"/>
	</outline>
</glyph>
<glyph name="two.circled" format="2">
	<advance width="875"/>
	<unicode hex="2461"/>
	<outline>
		<contour>
			<point x="274" y="190" type="line"/>
			<point x="537" y="190" type="line"/>
			<point x="550" y="257" type="line"/>
			<point x="342" y="257" type="line"/>
			<point x="305" y="220" type="line"/>
			<point x="386" y="240"/>
			<point x="554" y="314"/>
			<point x="573" y="414" type="curve" smooth="yes"/>
			<point x="585" y="474"/>
			<point x="548" y="528"/>
			<point x="468" y="528" type="curve" smooth="yes"/>
			<point x="388" y="528"/>
			<point x="328" y="470"/>
			<point x="317" y="410" type="curve"/>
			<point x="398" y="405" type="line"/>
			<point x="405" y="445"/>
			<point x="425" y="461"/>
			<point x="455" y="461" type="curve" smooth="yes"/>
			<point x="485" y="461"/>
			<point x="497" y="444"/>
			<point x="491" y="414" type="curve" smooth="yes"/>
			<point x="478" y="345"/>
			<point x="334" y="280"/>
			<point x="287" y="257" type="curve"/>
		</contour>
		<component base="whiteCircle"/>
	</outline>
</glyph>
<glyph name="three.circled" format="2">
	<advance width="875"/>
	<unicode hex="2462"/>
	<outline>
		<contour>
			<point x="403" y="182" type="curve" smooth="yes"/>
			<point x="488" y="182"/>
			<point x="550" y="224"/>
			<point x="561" y="284" type="curve" smooth="yes"/>
			<point x="575" y="354"/>
			<point x="503" y="376"/>
			<point x="453" y="376" type="curve"/>
			<point x="447" y="346" type="line"/>
			<point x="497" y="346"/>
			<point x="566" y="372"/>
			<point x="578" y="432" type="curve" smooth="yes"/>
			<point x="590" y="492"/>
			<point x="541" y="528"/>
			<point x="471" y="528" type="curve" smooth="yes"/>
			<point x="396" y="528"/>
			<point x="334" y="480"/>
			<point x="323" y="420" type="curve"/>
			<point x="405" y="415" type="line"/>
			<point x="411" y="450"/>
			<point x="436" y="461"/>
			<point x="458" y="461" type="curve" smooth="yes"/>
			<point x="477" y="461"/>
			<point x="500" y="451"/>
			<point x="495" y="428" type="curve" smooth="yes"/>
			<point x="491" y="405"/>
			<point x="474" y="395"/>
			<point x="445" y="395" type="curve" smooth="yes"/>
			<point x="413" y="395" type="line"/>
			<point x="400" y="328" type="line"/>
			<point x="432" y="328" type="line" smooth="yes"/>
			<point x="462" y="328"/>
			<point x="485" y="319"/>
			<point x="479" y="289" type="curve" smooth="yes"/>
			<point x="474" y="262"/>
			<point x="450" y="249"/>
			<point x="416" y="249" type="curve" smooth="yes"/>
			<point x="380" y="249"/>
			<point x="365" y="268"/>
			<point x="373" y="308" type="curve"/>
			<point x="289" y="303" type="line"/>
			<point x="275" y="233"/>
			<point x="315" y="182"/>
		</contour>
		<component base="whiteCircle"/>
	</outline>
</glyph>
<glyph name="four.circled" format="2">
	<advance width="875"/>
	<unicode hex="2463"/>
	<outline>
		<contour>
			<point x="248" y="267" type="line"/>
			<point x="572" y="267" type="line"/>
			<point x="585" y="334" type="line"/>
			<point x="290" y="334" type="line"/>
			<point x="269" y="293" type="line"/>
			<point x="423" y="343"/>
			<point x="439" y="441"/>
			<point x="454" y="521" type="curve"/>
			<point x="376" y="521" type="line"/>
			<point x="361" y="441"/>
			<point x="349" y="373"/>
			<point x="261" y="334" type="curve"/>
		</contour>
		<component base="whiteCircle"/>
		<contour>
			<point x="425" y="190" type="line"/>
			<point x="503" y="190" type="line"/>
			<point x="567" y="521" type="line"/>
			<point x="489" y="521" type="line"/>
		</contour>
	</outline>
</glyph>
<glyph name="five.circled" format="2">
	<advance width="875"/>
	<unicode hex="2464"/>
	<outline>
		<contour>
			<point x="403" y="182" type="curve" smooth="yes"/>
			<point x="483" y="182"/>
			<point x="547" y="233"/>
			<point x="560" y="300" type="curve" smooth="yes"/>
			<point x="573" y="367"/>
			<point x="529" y="416"/>
			<point x="469" y="416" type="curve" smooth="yes"/>
			<point x="399" y="416"/>
			<point x="369" y="373"/>
			<point x="364" y="343" type="curve"/>
			<point x="386" y="345" type="line"/>
			<point x="415" y="453" type="line"/>
			<point x="566" y="453" type="line"/>
			<point x="579" y="520" type="line"/>
			<point x="355" y="520" type="line"/>
			<point x="302" y="330" type="line"/>
			<point x="379" y="330" type="line"/>
			<point x="387" y="338"/>
			<point x="406" y="351"/>
			<point x="436" y="351" type="curve" smooth="yes"/>
			<point x="466" y="351"/>
			<point x="483" y="330"/>
			<point x="477" y="300" type="curve" smooth="yes"/>
			<point x="471" y="270"/>
			<point x="446" y="248"/>
			<point x="416" y="248" type="curve" smooth="yes"/>
			<point x="386" y="248"/>
			<point x="371" y="272"/>
			<point x="375" y="292" type="curve"/>
			<point x="291" y="287" type="line"/>
			<point x="279" y="227"/>
			<point x="319" y="182"/>
		</contour>
		<component base="whiteCircle"/>
	</outline>
</glyph>
<glyph name="six.circled" format="2">
	<advance width="875"/>
	<unicode hex="2465"/>
	<outline>
		<contour>
			<point x="400" y="182" type="curve" smooth="yes"/>
			<point x="470" y="182"/>
			<point x="540" y="223"/>
			<point x="556" y="303" type="curve" smooth="yes"/>
			<point x="571" y="383"/>
			<point x="517" y="424"/>
			<point x="467" y="424" type="curve" smooth="yes"/>
			<point x="400" y="424"/>
			<point x="354" y="385"/>
			<point x="340" y="315" type="curve"/>
			<point x="362" y="333" type="line"/>
			<point x="371" y="432"/>
			<point x="419" y="461"/>
			<point x="459" y="461" type="curve" smooth="yes"/>
			<point x="494" y="461"/>
			<point x="505" y="442"/>
			<point x="507" y="437" type="curve"/>
			<point x="590" y="442" type="line"/>
			<point x="588" y="500"/>
			<point x="532" y="528"/>
			<point x="472" y="528" type="curve" smooth="yes"/>
			<point x="392" y="528"/>
			<point x="315" y="472"/>
			<point x="291" y="352" type="curve" smooth="yes"/>
			<point x="278" y="282"/>
			<point x="290" y="182"/>
		</contour>
		<contour>
			<point x="413" y="249" type="curve" smooth="yes"/>
			<point x="378" y="249"/>
			<point x="367" y="274"/>
			<point x="373" y="303" type="curve" smooth="yes"/>
			<point x="379" y="333"/>
			<point x="399" y="357"/>
			<point x="434" y="357" type="curve" smooth="yes"/>
			<point x="469" y="357"/>
			<point x="480" y="333"/>
			<point x="474" y="303" type="curve" smooth="yes"/>
			<point x="468" y="274"/>
			<point x="448" y="249"/>
		</contour>
		<component base="whiteCircle"/>
	</outline>
</glyph>
<glyph name="seven.circled" format="2">
	<advance width="875"/>
	<unicode hex="2466"/>
	<outline>
		<contour>
			<point x="345" y="190" type="curve"/>
			<point x="424" y="190" type="line"/>
			<point x="451" y="336"/>
			<point x="471" y="402"/>
			<point x="588" y="457" type="curve"/>
			<point x="601" y="521" type="line"/>
			<point x="342" y="521" type="line"/>
			<point x="329" y="454" type="line"/>
			<point x="562" y="454" type="line"/>
			<point x="583" y="481" type="line"/>
			<point x="419" y="459"/>
			<point x="373" y="338"/>
		</contour>
		<component base="whiteCircle"/>
	</outline>
</glyph>
<glyph name="eight.circled" format="2">
	<advance width="875"/>
	<unicode hex="2467"/>
	<outline>
		<contour>
			<point x="403" y="182" type="curve" smooth="yes"/>
			<point x="488" y="182"/>
			<point x="552" y="225"/>
			<point x="563" y="284" type="curve" smooth="yes"/>
			<point x="574" y="340"/>
			<point x="525" y="376"/>
			<point x="465" y="376" type="curve"/>
			<point x="459" y="345" type="line"/>
			<point x="509" y="345"/>
			<point x="571" y="381"/>
			<point x="581" y="432" type="curve" smooth="yes"/>
			<point x="590" y="481"/>
			<point x="556" y="528"/>
			<point x="471" y="528" type="curve" smooth="yes"/>
			<point x="386" y="528"/>
			<point x="332" y="481"/>
			<point x="323" y="432" type="curve" smooth="yes"/>
			<point x="314" y="385"/>
			<point x="361" y="345"/>
			<point x="411" y="345" type="curve"/>
			<point x="417" y="376" type="line"/>
			<point x="357" y="376"/>
			<point x="294" y="340"/>
			<point x="283" y="284" type="curve" smooth="yes"/>
			<point x="272" y="225"/>
			<point x="318" y="182"/>
		</contour>
		<contour>
			<point x="416" y="249" type="curve" smooth="yes"/>
			<point x="382" y="249"/>
			<point x="361" y="262"/>
			<point x="366" y="289" type="curve" smooth="yes"/>
			<point x="371" y="315"/>
			<point x="398" y="328"/>
			<point x="432" y="328" type="curve" smooth="yes"/>
			<point x="466" y="328"/>
			<point x="487" y="315"/>
			<point x="482" y="289" type="curve" smooth="yes"/>
			<point x="477" y="262"/>
			<point x="450" y="249"/>
		</contour>
		<component base="whiteCircle"/>
		<contour>
			<point x="445" y="395" type="curve" smooth="yes"/>
			<point x="420" y="395"/>
			<point x="401" y="406"/>
			<point x="405" y="428" type="curve" smooth="yes"/>
			<point x="409" y="450"/>
			<point x="433" y="461"/>
			<point x="458" y="461" type="curve" smooth="yes"/>
			<point x="483" y="461"/>
			<point x="501" y="450"/>
			<point x="497" y="428" type="curve" smooth="yes"/>
			<point x="493" y="406"/>
			<point x="470" y="395"/>
		</contour>
	</outline>
</glyph>
<glyph name="nine.circled" format="2">
	<advance width="875"/>
	<unicode hex="2468"/>
	<outline>
		<contour>
			<point x="415" y="182" type="curve" smooth="yes"/>
			<point x="495" y="182"/>
			<point x="561" y="250"/>
			<point x="583" y="358" type="curve" smooth="yes"/>
			<point x="596" y="428"/>
			<point x="574" y="528"/>
			<point x="474" y="528" type="curve" smooth="yes"/>
			<point x="404" y="528"/>
			<point x="334" y="487"/>
			<point x="318" y="407" type="curve" smooth="yes"/>
			<point x="303" y="327"/>
			<point x="357" y="286"/>
			<point x="407" y="286" type="curve" smooth="yes"/>
			<point x="474" y="286"/>
			<point x="515" y="325"/>
			<point x="529" y="395" type="curve"/>
			<point x="512" y="377" type="line"/>
			<point x="503" y="278"/>
			<point x="455" y="249"/>
			<point x="415" y="249" type="curve" smooth="yes"/>
			<point x="385" y="249"/>
			<point x="379" y="268"/>
			<point x="377" y="278" type="curve"/>
			<point x="294" y="273" type="line"/>
			<point x="306" y="210"/>
			<point x="355" y="182"/>
		</contour>
		<component base="whiteCircle"/>
		<contour>
			<point x="440" y="353" type="curve" smooth="yes"/>
			<point x="405" y="353"/>
			<point x="394" y="377"/>
			<point x="400" y="407" type="curve" smooth="yes"/>
			<point x="406" y="436"/>
			<point x="426" y="461"/>
			<point x="461" y="461" type="curve" smooth="yes"/>
			<point x="496" y="461"/>
			<point x="507" y="436"/>
			<point x="501" y="407" type="curve" smooth="yes"/>
			<point x="495" y="377"/>
			<point x="475" y="353"/>
		</contour>
	</outline>
</glyph>
<glyph name="zero.circled" format="2">
	<advance width="875"/>
	<unicode hex="24EA"/>
	<outline>
		<contour>
			<point x="403" y="182" type="curve" smooth="yes"/>
			<point x="498" y="182"/>
			<point x="564" y="252"/>
			<point x="584" y="355" type="curve" smooth="yes"/>
			<point x="604" y="458"/>
			<point x="566" y="528"/>
			<point x="471" y="528" type="curve" smooth="yes"/>
			<point x="376" y="528"/>
			<point x="310" y="458"/>
			<point x="290" y="355" type="curve" smooth="yes"/>
			<point x="270" y="252"/>
			<point x="308" y="182"/>
		</contour>
		<component base="whiteCircle"/>
		<contour>
			<point x="416" y="249" type="curve" smooth="yes"/>
			<point x="372" y="249"/>
			<point x="361" y="294"/>
			<point x="373" y="355" type="curve" smooth="yes"/>
			<point x="385" y="416"/>
			<point x="414" y="461"/>
			<point x="458" y="461" type="curve" smooth="yes"/>
			<point x="502" y="461"/>
			<point x="513" y="416"/>
			<point x="501" y="355" type="curve" smooth="yes"/>
			<point x="489" y="294"/>
			<point x="460" y="249"/>
		</contour>
	</outline>
</glyph>
<glyph name="zero.blackCircled" format="2">
	<advance width="875"/>
	<unicode hex="24FF"/>
	<outline>
		<contour>
			<point x="406" y="-16" type="curve" smooth="yes"/>
			<point x="606" y="-16"/>
			<point x="803" y="130"/>
			<point x="803" y="390" type="curve" smooth="yes"/>
			<point x="803" y="560"/>
			<point x="680" y="716"/>
			<point x="470" y="716" type="curve" smooth="yes"/>
			<point x="270" y="716"/>
			<point x="71" y="570"/>
			<point x="71" y="310" type="curve" smooth="yes"/>
			<point x="71" y="140"/>
			<point x="196" y="-16"/>
		</contour>
		<contour>
			<point x="387" y="182" type="curve" smooth="yes"/>
			<point x="292" y="182"/>
			<point x="254" y="252"/>
			<point x="274" y="355" type="curve" smooth="yes"/>
			<point x="294" y="458"/>
			<point x="360" y="528"/>
			<point x="455" y="528" type="curve" smooth="yes"/>
			<point x="550" y="528"/>
			<point x="588" y="458"/>
			<point x="568" y="355" type="curve" smooth="yes"/>
			<point x="548" y="252"/>
			<point x="482" y="182"/>
		</contour>
		<contour>
			<point x="400" y="249" type="curve" smooth="yes"/>
			<point x="444" y="249"/>
			<point x="473" y="294"/>
			<point x="485" y="355" type="curve" smooth="yes"/>
			<point x="497" y="416"/>
			<point x="486" y="461"/>
			<point x="442" y="461" type="curve" smooth="yes"/>
			<point x="398" y="461"/>
			<point x="369" y="416"/>
			<point x="357" y="355" type="curve" smooth="yes"/>
			<point x="345" y="294"/>
			<point x="356" y="249"/>
		</contour>
	</outline>
</glyph>
<glyph name="lozenge" format="2">
	<advance width="644"/>
	<unicode hex="25CA"/>
	<outline>
		<contour>
			<point x="193" y="0" type="line"/>
			<point x="302" y="0" type="line"/>
			<point x="573" y="350" type="line"/>
			<point x="438" y="700" type="line"/>
			<point x="329" y="700" type="line"/>
			<point x="69" y="350" type="line"/>
		</contour>
		<contour>
			<point x="231" y="66" type="line"/>
			<point x="292" y="66" type="line"/>
			<point x="173" y="403" type="line"/>
			<point x="153" y="297" type="line"/>
			<point x="406" y="640" type="line"/>
			<point x="339" y="640" type="line"/>
			<point x="468" y="304" type="line"/>
			<point x="486" y="396" type="line"/>
		</contour>
	</outline>
</glyph>
<glyph name="whiteCircle" format="2">
	<advance width="875"/>
	<unicode hex="25CB"/>
	<outline>
		<contour>
			<point x="406" y="-16" type="curve" smooth="yes"/>
			<point x="606" y="-16"/>
			<point x="803" y="130"/>
			<point x="803" y="390" type="curve" smooth="yes"/>
			<point x="803" y="560"/>
			<point x="680" y="716"/>
			<point x="470" y="716" type="curve" smooth="yes"/>
			<point x="270" y="716"/>
			<point x="71" y="570"/>
			<point x="71" y="310" type="curve" smooth="yes"/>
			<point x="71" y="140"/>
			<point x="196" y="-16"/>
		</contour>
		<contour>
			<point x="406" y="39" type="curve"/>
			<point x="224" y="39"/>
			<point x="126" y="178"/>
			<point x="126" y="311" type="curve" smooth="yes"/>
			<point x="126" y="540"/>
			<point x="299" y="662"/>
			<point x="470" y="662" type="curve"/>
			<point x="661" y="662"/>
			<point x="749" y="522"/>
			<point x="749" y="389" type="curve" smooth="yes"/>
			<point x="749" y="160"/>
			<point x="587" y="39"/>
		</contour>
	</outline>
</glyph>
<glyph name="blackCircle" format="2">
	<advance width="875"/>
	<unicode hex="25CF"/>
	<outline>
		<contour>
			<point x="406" y="-16" type="curve" smooth="yes"/>
			<point x="606" y="-16"/>
			<point x="803" y="130"/>
			<point x="803" y="390" type="curve" smooth="yes"/>
			<point x="803" y="560"/>
			<point x="680" y="716"/>
			<point x="470" y="716" type="curve" smooth="yes"/>
			<point x="270" y="716"/>
			<point x="71" y="570"/>
			<point x="71" y="310" type="curve" smooth="yes"/>
			<point x="71" y="140"/>
			<point x="196" y="-16"/>
		</contour>
	</outline>
</glyph>
<glyph name="one.blackCircled" format="2">
	<advance width="875"/>
	<unicode hex="2776"/>
	<outline>
		<contour>
			<point x="406" y="-16" type="curve" smooth="yes"/>
			<point x="606" y="-16"/>
			<point x="803" y="130"/>
			<point x="803" y="390" type="curve" smooth="yes"/>
			<point x="803" y="560"/>
			<point x="680" y="716"/>
			<point x="470" y="716" type="curve" smooth="yes"/>
			<point x="270" y="716"/>
			<point x="71" y="570"/>
			<point x="71" y="310" type="curve" smooth="yes"/>
			<point x="71" y="140"/>
			<point x="196" y="-16"/>
		</contour>
		<contour>
			<point x="267" y="190" type="line"/>
			<point x="280" y="256" type="line"/>
			<point x="371" y="256" type="line"/>
			<point x="398" y="398" type="line"/>
			<point x="385" y="375"/>
			<point x="367" y="364"/>
			<point x="338" y="364" type="curve" smooth="yes"/>
			<point x="301" y="364" type="line"/>
			<point x="314" y="431" type="line"/>
			<point x="351" y="431" type="line" smooth="yes"/>
			<point x="394" y="431"/>
			<point x="408" y="449"/>
			<point x="422" y="521" type="curve"/>
			<point x="504" y="521" type="line"/>
			<point x="453" y="256" type="line"/>
			<point x="544" y="256" type="line"/>
			<point x="531" y="190" type="line"/>
		</contour>
	</outline>
</glyph>
<glyph name="two.blackCircled" format="2">
	<advance width="875"/>
	<unicode hex="2777"/>
	<outline>
		<contour>
			<point x="406" y="-16" type="curve" smooth="yes"/>
			<point x="606" y="-16"/>
			<point x="803" y="130"/>
			<point x="803" y="390" type="curve" smooth="yes"/>
			<point x="803" y="560"/>
			<point x="680" y="716"/>
			<point x="470" y="716" type="curve" smooth="yes"/>
			<point x="270" y="716"/>
			<point x="71" y="570"/>
			<point x="71" y="310" type="curve" smooth="yes"/>
			<point x="71" y="140"/>
			<point x="196" y="-16"/>
		</contour>
		<contour>
			<point x="258" y="190" type="line"/>
			<point x="271" y="257" type="line"/>
			<point x="318" y="280"/>
			<point x="462" y="345"/>
			<point x="475" y="414" type="curve" smooth="yes"/>
			<point x="481" y="444"/>
			<point x="469" y="461"/>
			<point x="439" y="461" type="curve" smooth="yes"/>
			<point x="409" y="461"/>
			<point x="389" y="445"/>
			<point x="382" y="405" type="curve"/>
			<point x="301" y="410" type="line"/>
			<point x="312" y="470"/>
			<point x="372" y="528"/>
			<point x="452" y="528" type="curve" smooth="yes"/>
			<point x="532" y="528"/>
			<point x="569" y="474"/>
			<point x="557" y="414" type="curve" smooth="yes"/>
			<point x="538" y="314"/>
			<point x="370" y="240"/>
			<point x="289" y="220" type="curve"/>
			<point x="326" y="257" type="line"/>
			<point x="534" y="257" type="line"/>
			<point x="521" y="190" type="line"/>
		</contour>
	</outline>
</glyph>
<glyph name="three.blackCircled" format="2">
	<advance width="875"/>
	<unicode hex="2778"/>
	<outline>
		<contour>
			<point x="406" y="-16" type="curve" smooth="yes"/>
			<point x="606" y="-16"/>
			<point x="803" y="130"/>
			<point x="803" y="390" type="curve" smooth="yes"/>
			<point x="803" y="560"/>
			<point x="680" y="716"/>
			<point x="470" y="716" type="curve" smooth="yes"/>
			<point x="270" y="716"/>
			<point x="71" y="570"/>
			<point x="71" y="310" type="curve" smooth="yes"/>
			<point x="71" y="140"/>
			<point x="196" y="-16"/>
		</contour>
		<contour>
			<point x="402" y="182" type="curve" smooth="yes"/>
			<point x="314" y="182"/>
			<point x="274" y="233"/>
			<point x="288" y="303" type="curve"/>
			<point x="372" y="308" type="line"/>
			<point x="364" y="268"/>
			<point x="379" y="249"/>
			<point x="415" y="249" type="curve" smooth="yes"/>
			<point x="449" y="249"/>
			<point x="473" y="262"/>
			<point x="478" y="289" type="curve" smooth="yes"/>
			<point x="484" y="319"/>
			<point x="461" y="328"/>
			<point x="431" y="328" type="curve" smooth="yes"/>
			<point x="399" y="328" type="line"/>
			<point x="412" y="395" type="line"/>
			<point x="444" y="395" type="line" smooth="yes"/>
			<point x="473" y="395"/>
			<point x="490" y="405"/>
			<point x="494" y="428" type="curve" smooth="yes"/>
			<point x="499" y="451"/>
			<point x="476" y="461"/>
			<point x="457" y="461" type="curve" smooth="yes"/>
			<point x="435" y="461"/>
			<point x="410" y="450"/>
			<point x="404" y="415" type="curve"/>
			<point x="322" y="420" type="line"/>
			<point x="333" y="480"/>
			<point x="395" y="528"/>
			<point x="470" y="528" type="curve" smooth="yes"/>
			<point x="540" y="528"/>
			<point x="589" y="492"/>
			<point x="577" y="432" type="curve" smooth="yes"/>
			<point x="565" y="372"/>
			<point x="496" y="346"/>
			<point x="446" y="346" type="curve"/>
			<point x="452" y="376" type="line"/>
			<point x="502" y="376"/>
			<point x="574" y="354"/>
			<point x="560" y="284" type="curve" smooth="yes"/>
			<point x="549" y="224"/>
			<point x="487" y="182"/>
		</contour>
	</outline>
</glyph>
<glyph name="four.blackCircled" format="2">
	<advance width="875"/>
	<unicode hex="2779"/>
	<outline>
		<contour>
			<point x="406" y="-16" type="curve" smooth="yes"/>
			<point x="606" y="-16"/>
			<point x="803" y="130"/>
			<point x="803" y="390" type="curve" smooth="yes"/>
			<point x="803" y="560"/>
			<point x="680" y="716"/>
			<point x="470" y="716" type="curve" smooth="yes"/>
			<point x="270" y="716"/>
			<point x="71" y="570"/>
			<point x="71" y="310" type="curve" smooth="yes"/>
			<point x="71" y="140"/>
			<point x="196" y="-16"/>
		</contour>
		<contour>
			<point x="424" y="190" type="line"/>
			<point x="439" y="267" type="line"/>
			<point x="247" y="267" type="line"/>
			<point x="260" y="334" type="line"/>
			<point x="348" y="373"/>
			<point x="360" y="441"/>
			<point x="375" y="521" type="curve"/>
			<point x="453" y="521" type="line"/>
			<point x="441" y="459"/>
			<point x="429" y="387"/>
			<point x="353" y="334" type="curve"/>
			<point x="452" y="334" type="line"/>
			<point x="488" y="521" type="line"/>
			<point x="566" y="521" type="line"/>
			<point x="530" y="334" type="line"/>
			<point x="584" y="334" type="line"/>
			<point x="571" y="267" type="line"/>
			<point x="517" y="267" type="line"/>
			<point x="502" y="190" type="line"/>
		</contour>
	</outline>
</glyph>
<glyph name="five.blackCircled" format="2">
	<advance width="875"/>
	<unicode hex="277A"/>
	<outline>
		<contour>
			<point x="406" y="-16" type="curve" smooth="yes"/>
			<point x="606" y="-16"/>
			<point x="803" y="130"/>
			<point x="803" y="390" type="curve" smooth="yes"/>
			<point x="803" y="560"/>
			<point x="680" y="716"/>
			<point x="470" y="716" type="curve" smooth="yes"/>
			<point x="270" y="716"/>
			<point x="71" y="570"/>
			<point x="71" y="310" type="curve" smooth="yes"/>
			<point x="71" y="140"/>
			<point x="196" y="-16"/>
		</contour>
		<contour>
			<point x="402" y="182" type="curve" smooth="yes"/>
			<point x="318" y="182"/>
			<point x="278" y="227"/>
			<point x="290" y="287" type="curve"/>
			<point x="374" y="292" type="line"/>
			<point x="370" y="272"/>
			<point x="385" y="248"/>
			<point x="415" y="248" type="curve" smooth="yes"/>
			<point x="445" y="248"/>
			<point x="470" y="270"/>
			<point x="476" y="300" type="curve" smooth="yes"/>
			<point x="482" y="330"/>
			<point x="465" y="351"/>
			<point x="435" y="351" type="curve" smooth="yes"/>
			<point x="405" y="351"/>
			<point x="386" y="338"/>
			<point x="378" y="330" type="curve"/>
			<point x="301" y="330" type="line"/>
			<point x="354" y="520" type="line"/>
			<point x="578" y="520" type="line"/>
			<point x="565" y="453" type="line"/>
			<point x="409" y="453" type="line"/>
			<point x="392" y="392" type="line"/>
			<point x="410" y="406"/>
			<point x="434" y="416"/>
			<point x="468" y="416" type="curve" smooth="yes"/>
			<point x="528" y="416"/>
			<point x="572" y="367"/>
			<point x="559" y="300" type="curve" smooth="yes"/>
			<point x="546" y="233"/>
			<point x="482" y="182"/>
		</contour>
	</outline>
</glyph>
<glyph name="six.blackCircled" format="2">
	<advance width="875"/>
	<unicode hex="277B"/>
	<outline>
		<contour>
			<point x="406" y="-16" type="curve" smooth="yes"/>
			<point x="606" y="-16"/>
			<point x="803" y="130"/>
			<point x="803" y="390" type="curve" smooth="yes"/>
			<point x="803" y="560"/>
			<point x="680" y="716"/>
			<point x="470" y="716" type="curve" smooth="yes"/>
			<point x="270" y="716"/>
			<point x="71" y="570"/>
			<point x="71" y="310" type="curve" smooth="yes"/>
			<point x="71" y="140"/>
			<point x="196" y="-16"/>
		</contour>
		<contour>
			<point x="412" y="245" type="curve" smooth="yes"/>
			<point x="447" y="245"/>
			<point x="471" y="274"/>
			<point x="477" y="303" type="curve" smooth="yes"/>
			<point x="483" y="333"/>
			<point x="469" y="361"/>
			<point x="434" y="361" type="curve" smooth="yes"/>
			<point x="399" y="361"/>
			<point x="374" y="333"/>
			<point x="368" y="303" type="curve" smooth="yes"/>
			<point x="362" y="274"/>
			<point x="377" y="245"/>
		</contour>
		<contour>
			<point x="399" y="182" type="curve" smooth="yes"/>
			<point x="289" y="182"/>
			<point x="277" y="282"/>
			<point x="290" y="352" type="curve" smooth="yes"/>
			<point x="314" y="472"/>
			<point x="391" y="528"/>
			<point x="471" y="528" type="curve" smooth="yes"/>
			<point x="531" y="528"/>
			<point x="587" y="500"/>
			<point x="589" y="442" type="curve"/>
			<point x="506" y="437" type="line"/>
			<point x="504" y="442"/>
			<point x="493" y="461"/>
			<point x="458" y="461" type="curve" smooth="yes"/>
			<point x="418" y="461"/>
			<point x="370" y="432"/>
			<point x="361" y="333" type="curve"/>
			<point x="339" y="315" type="line"/>
			<point x="351" y="375"/>
			<point x="399" y="424"/>
			<point x="466" y="424" type="curve" smooth="yes"/>
			<point x="516" y="424"/>
			<point x="570" y="383"/>
			<point x="555" y="303" type="curve" smooth="yes"/>
			<point x="539" y="223"/>
			<point x="469" y="182"/>
		</contour>
	</outline>
</glyph>
<glyph name="seven.blackCircled" format="2">
	<advance width="875"/>
	<unicode hex="277C"/>
	<outline>
		<contour>
			<point x="406" y="-16" type="curve" smooth="yes"/>
			<point x="606" y="-16"/>
			<point x="803" y="130"/>
			<point x="803" y="390" type="curve" smooth="yes"/>
			<point x="803" y="560"/>
			<point x="680" y="716"/>
			<point x="470" y="716" type="curve" smooth="yes"/>
			<point x="270" y="716"/>
			<point x="71" y="570"/>
			<point x="71" y="310" type="curve" smooth="yes"/>
			<point x="71" y="140"/>
			<point x="196" y="-16"/>
		</contour>
		<contour>
			<point x="344" y="190" type="line"/>
			<point x="365" y="306"/>
			<point x="399" y="406"/>
			<point x="492" y="454" type="curve"/>
			<point x="328" y="454" type="line"/>
			<point x="341" y="521" type="line"/>
			<point x="600" y="521" type="line"/>
			<point x="587" y="457" type="line"/>
			<point x="470" y="402"/>
			<point x="450" y="336"/>
			<point x="423" y="190" type="curve"/>
		</contour>
	</outline>
</glyph>
<glyph name="eight.blackCircled" format="2">
	<advance width="875"/>
	<unicode hex="277D"/>
	<outline>
		<contour>
			<point x="406" y="-16" type="curve" smooth="yes"/>
			<point x="606" y="-16"/>
			<point x="803" y="130"/>
			<point x="803" y="390" type="curve" smooth="yes"/>
			<point x="803" y="560"/>
			<point x="680" y="716"/>
			<point x="470" y="716" type="curve" smooth="yes"/>
			<point x="270" y="716"/>
			<point x="71" y="570"/>
			<point x="71" y="310" type="curve" smooth="yes"/>
			<point x="71" y="140"/>
			<point x="196" y="-16"/>
		</contour>
		<contour>
			<point x="415" y="245" type="curve" smooth="yes"/>
			<point x="449" y="245"/>
			<point x="480" y="262"/>
			<point x="485" y="289" type="curve" smooth="yes"/>
			<point x="490" y="315"/>
			<point x="466" y="332"/>
			<point x="432" y="332" type="curve" smooth="yes"/>
			<point x="398" y="332"/>
			<point x="366" y="315"/>
			<point x="361" y="289" type="curve" smooth="yes"/>
			<point x="356" y="262"/>
			<point x="381" y="245"/>
		</contour>
		<contour>
			<point x="402" y="182" type="curve" smooth="yes"/>
			<point x="317" y="182"/>
			<point x="271" y="225"/>
			<point x="282" y="284" type="curve" smooth="yes"/>
			<point x="293" y="340"/>
			<point x="366" y="376"/>
			<point x="426" y="376" type="curve"/>
			<point x="420" y="345" type="line"/>
			<point x="370" y="345"/>
			<point x="313" y="385"/>
			<point x="322" y="432" type="curve" smooth="yes"/>
			<point x="331" y="481"/>
			<point x="385" y="528"/>
			<point x="470" y="528" type="curve" smooth="yes"/>
			<point x="555" y="528"/>
			<point x="589" y="481"/>
			<point x="580" y="432" type="curve" smooth="yes"/>
			<point x="570" y="381"/>
			<point x="498" y="345"/>
			<point x="448" y="345" type="curve"/>
			<point x="454" y="376" type="line"/>
			<point x="514" y="376"/>
			<point x="573" y="340"/>
			<point x="562" y="284" type="curve" smooth="yes"/>
			<point x="551" y="225"/>
			<point x="487" y="182"/>
		</contour>
		<contour>
			<point x="443" y="391" type="curve" smooth="yes"/>
			<point x="468" y="391"/>
			<point x="496" y="406"/>
			<point x="500" y="428" type="curve" smooth="yes"/>
			<point x="504" y="450"/>
			<point x="482" y="465"/>
			<point x="457" y="465" type="curve" smooth="yes"/>
			<point x="432" y="465"/>
			<point x="404" y="450"/>
			<point x="400" y="428" type="curve" smooth="yes"/>
			<point x="396" y="406"/>
			<point x="418" y="391"/>
		</contour>
	</outline>
</glyph>
<glyph name="nine.blackCircled" format="2">
	<advance width="875"/>
	<unicode hex="277E"/>
	<outline>
		<contour>
			<point x="406" y="-16" type="curve" smooth="yes"/>
			<point x="606" y="-16"/>
			<point x="803" y="130"/>
			<point x="803" y="390" type="curve" smooth="yes"/>
			<point x="803" y="560"/>
			<point x="680" y="716"/>
			<point x="470" y="716" type="curve" smooth="yes"/>
			<point x="270" y="716"/>
			<point x="71" y="570"/>
			<point x="71" y="310" type="curve" smooth="yes"/>
			<point x="71" y="140"/>
			<point x="196" y="-16"/>
		</contour>
		<contour>
			<point x="415" y="182" type="curve" smooth="yes"/>
			<point x="355" y="182"/>
			<point x="306" y="210"/>
			<point x="294" y="273" type="curve"/>
			<point x="377" y="278" type="line"/>
			<point x="379" y="268"/>
			<point x="385" y="249"/>
			<point x="415" y="249" type="curve" smooth="yes"/>
			<point x="455" y="249"/>
			<point x="503" y="278"/>
			<point x="512" y="377" type="curve"/>
			<point x="529" y="395" type="line"/>
			<point x="515" y="325"/>
			<point x="474" y="286"/>
			<point x="407" y="286" type="curve" smooth="yes"/>
			<point x="357" y="286"/>
			<point x="303" y="327"/>
			<point x="318" y="407" type="curve" smooth="yes"/>
			<point x="334" y="487"/>
			<point x="404" y="528"/>
			<point x="474" y="528" type="curve" smooth="yes"/>
			<point x="574" y="528"/>
			<point x="596" y="428"/>
			<point x="583" y="358" type="curve" smooth="yes"/>
			<point x="561" y="250"/>
			<point x="495" y="182"/>
		</contour>
		<contour>
			<point x="438" y="349" type="curve" smooth="yes"/>
			<point x="473" y="349"/>
			<point x="498" y="377"/>
			<point x="504" y="407" type="curve" smooth="yes"/>
			<point x="510" y="436"/>
			<point x="495" y="465"/>
			<point x="460" y="465" type="curve" smooth="yes"/>
			<point x="425" y="465"/>
			<point x="401" y="436"/>
			<point x="395" y="407" type="curve" smooth="yes"/>
			<point x="389" y="377"/>
			<point x="403" y="349"/>
		</contour>
	</outline>
</glyph>
<glyph name="Oslash.ss03" format="2">
	<advance width="805"/>
	<outline>
		<contour>
			<point x="-69" y="0" type="line"/>
			<point x="70" y="0" type="line"/>
			<point x="872" y="700" type="line"/>
			<point x="733" y="700" type="line"/>
		</contour>
		<component base="O"/>
	</outline>
</glyph>
<glyph name="Q.ss03" format="2">
	<advance width="847"/>
	<outline>
		<contour>
			<point x="598" y="0" type="line"/>
			<point x="733" y="0" type="line"/>
			<point x="472" y="346" type="line"/>
			<point x="337" y="346" type="line"/>
		</contour>
		<component base="O"/>
	</outline>
</glyph>
<glyph name="R.ss01" format="2">
	<advance width="632"/>
	<outline>
		<contour>
			<point x="91" y="268" type="line"/>
			<point x="298" y="268" type="line" smooth="yes"/>
			<point x="458" y="268"/>
			<point x="581" y="327"/>
			<point x="611" y="484" type="curve" smooth="yes"/>
			<point x="636" y="612"/>
			<point x="542" y="700"/>
			<point x="382" y="700" type="curve" smooth="yes"/>
			<point x="175" y="700" type="line"/>
			<point x="153" y="587" type="line"/>
			<point x="360" y="587" type="line" smooth="yes"/>
			<point x="440" y="587"/>
			<point x="489" y="562"/>
			<point x="473" y="484" type="curve" smooth="yes"/>
			<point x="457" y="406"/>
			<point x="400" y="381"/>
			<point x="320" y="381" type="curve" smooth="yes"/>
			<point x="113" y="381" type="line"/>
		</contour>
		<contour>
			<point x="6" y="0" type="line"/>
			<point x="144" y="0" type="line"/>
			<point x="280" y="700" type="line"/>
			<point x="142" y="700" type="line"/>
		</contour>
		<contour>
			<point x="374" y="0" type="line"/>
			<point x="528" y="0" type="line"/>
			<point x="394" y="372" type="line"/>
			<point x="246" y="359" type="line"/>
		</contour>
	</outline>
</glyph>
<glyph name="Y.ss02" format="2">
	<advance width="656"/>
	<outline>
		<contour>
			<point x="360" y="257" type="line"/>
			<point x="733" y="700" type="line"/>
			<point x="571" y="700" type="line"/>
			<point x="248" y="319" type="line"/>
		</contour>
		<contour>
			<point x="190" y="0" type="line"/>
			<point x="328" y="0" type="line"/>
			<point x="393" y="337" type="line"/>
			<point x="255" y="337" type="line"/>
		</contour>
		<contour>
			<point x="258" y="257" type="line"/>
			<point x="374" y="319" type="line"/>
			<point x="199" y="700" type="line"/>
			<point x="57" y="700" type="line"/>
		</contour>
	</outline>
</glyph>
<glyph name="asterisk.ss06" format="2">
	<advance width="496"/>
	<outline>
		<contour>
			<point x="310" y="333" type="line"/>
			<point x="393" y="383" type="line"/>
			<point x="302" y="565" type="line"/>
			<point x="219" y="514" type="line"/>
		</contour>
		<contour>
			<point x="140" y="333" type="line"/>
			<point x="301" y="514" type="line"/>
			<point x="238" y="565" type="line"/>
			<point x="75" y="383" type="line"/>
		</contour>
		<contour>
			<point x="243" y="476" type="line"/>
			<point x="297" y="557" type="line"/>
			<point x="115" y="650" type="line"/>
			<point x="62" y="569" type="line"/>
		</contour>
		<contour>
			<point x="211" y="501" type="line"/>
			<point x="301" y="501" type="line"/>
			<point x="346" y="731" type="line"/>
			<point x="256" y="731" type="line"/>
		</contour>
		<contour>
			<point x="259" y="476" type="line"/>
			<point x="478" y="569" type="line"/>
			<point x="455" y="650" type="line"/>
			<point x="237" y="557" type="line"/>
		</contour>
	</outline>
</glyph>
<glyph name="comma.ss07" format="2">
	<advance width="281"/>
	<outline>
		<contour>
			<point x="-58" y="-152" type="line"/>
			<point x="42" y="-152"/>
			<point x="145" y="-93"/>
			<point x="167" y="25" type="curve" smooth="yes"/>
			<point x="184" y="114"/>
			<point x="150" y="165"/>
			<point x="95" y="165" type="curve" smooth="yes"/>
			<point x="55" y="165"/>
			<point x="11" y="139"/>
			<point x="0" y="90" type="curve" smooth="yes"/>
			<point x="-12" y="31"/>
			<point x="26" y="-5"/>
			<point x="66" y="-5" type="curve" smooth="yes"/>
			<point x="76" y="-5" type="line"/>
			<point x="66" y="-44"/>
			<point x="19" y="-69"/>
			<point x="-41" y="-69" type="curve"/>
		</contour>
	</outline>
</glyph>
<glyph name="commaaccentcomb.ss07" format="2">
	<advance width="434"/>
	<outline>
		<contour>
			<point x="16" y="-287" type="line"/>
			<point x="120" y="-287"/>
			<point x="182" y="-228"/>
			<point x="195" y="-158" type="curve" smooth="yes"/>
			<point x="209" y="-84"/>
			<point x="176" y="-44"/>
			<point x="126" y="-44" type="curve" smooth="yes"/>
			<point x="86" y="-44"/>
			<point x="62" y="-72"/>
			<point x="57" y="-102" type="curve" smooth="yes"/>
			<point x="49" y="-146"/>
			<point x="78" y="-179"/>
			<point x="113" y="-179" type="curve" smooth="yes"/>
			<point x="122" y="-179" type="line"/>
			<point x="116" y="-209"/>
			<point x="68" y="-224"/>
			<point x="28" y="-224" type="curve"/>
		</contour>
	</outline>
</glyph>
<glyph name="dieresis.ss07" format="2">
	<advance width="624"/>
	<outline>
		<contour>
			<point x="256" y="554" type="curve" smooth="yes"/>
			<point x="298" y="554"/>
			<point x="338" y="588"/>
			<point x="346" y="630" type="curve" smooth="yes"/>
			<point x="355" y="672"/>
			<point x="327" y="706"/>
			<point x="285" y="706" type="curve" smooth="yes"/>
			<point x="243" y="706"/>
			<point x="203" y="672"/>
			<point x="194" y="630" type="curve" smooth="yes"/>
			<point x="186" y="588"/>
			<point x="214" y="554"/>
		</contour>
		<contour>
			<point x="448" y="554" type="curve" smooth="yes"/>
			<point x="490" y="554"/>
			<point x="530" y="588"/>
			<point x="538" y="630" type="curve" smooth="yes"/>
			<point x="547" y="672"/>
			<point x="519" y="706"/>
			<point x="477" y="706" type="curve" smooth="yes"/>
			<point x="435" y="706"/>
			<point x="395" y="672"/>
			<point x="386" y="630" type="curve" smooth="yes"/>
			<point x="378" y="588"/>
			<point x="406" y="554"/>
		</contour>
	</outline>
</glyph>
<glyph name="dotaccent.ss07" format="2">
	<advance width="440"/>
	<outline>
		<contour>
			<point x="260" y="555" type="curve" smooth="yes"/>
			<point x="304" y="555"/>
			<point x="347" y="591"/>
			<point x="355" y="635" type="curve" smooth="yes"/>
			<point x="364" y="679"/>
			<point x="335" y="715"/>
			<point x="291" y="715" type="curve" smooth="yes"/>
			<point x="247" y="715"/>
			<point x="204" y="679"/>
			<point x="195" y="635" type="curve" smooth="yes"/>
			<point x="187" y="591"/>
			<point x="216" y="555"/>
		</contour>
	</outline>
</glyph>
<glyph name="downArrow.ss08" format="2">
	<advance width="767"/>
	<outline>
		<contour>
			<point x="298" y="-85" type="line"/>
			<point x="661" y="219" type="line"/>
			<point x="602" y="292" type="line"/>
			<point x="241" y="-11" type="line"/>
			<point x="385" y="-11" type="line"/>
			<point x="141" y="292" type="line"/>
			<point x="54" y="219" type="line"/>
		</contour>
		<contour>
			<point x="261" y="0" type="line"/>
			<point x="368" y="0" type="line"/>
			<point x="492" y="639" type="line"/>
			<point x="385" y="639" type="line"/>
		</contour>
	</outline>
</glyph>
<glyph name="downTipLeftArrow.ss08" format="2">
	<advance width="857"/>
	<outline>
		<contour>
			<point x="315" y="-1" type="line"/>
			<point x="402" y="62" type="line"/>
			<point x="158" y="365" type="line"/>
			<point x="130" y="221" type="line"/>
			<point x="492" y="523" type="line"/>
			<point x="433" y="607" type="line"/>
			<point x="70" y="303" type="line"/>
		</contour>
		<contour>
			<point x="146" y="250" type="line"/>
			<point x="757" y="250" type="line"/>
			<point x="777" y="356" type="line"/>
			<point x="166" y="356" type="line"/>
		</contour>
		<contour>
			<point x="667" y="336" type="line"/>
			<point x="773" y="336" type="line"/>
			<point x="844" y="700" type="line"/>
			<point x="738" y="700" type="line"/>
		</contour>
	</outline>
</glyph>
